<svg width="75" height="50" viewBox="0 0 75 50" fill="none" xmlns="http://www.w3.org/2000/svg">
<path fill-rule="evenodd" clip-rule="evenodd" d="M42.1147 19.0686C39.3404 21.2829 37.0295 23.627 35.3131 25.9471C33.635 28.2155 32.6542 30.6218 32.4351 32.4793C32.2047 34.4334 32.8342 34.8367 32.9249 34.8876C33.523 35.2235 34.4885 35.3856 35.8998 34.6871C37.3669 33.9609 39.2291 32.295 40.8104 29.2042C42.6687 25.5718 42.8148 22.0031 42.1147 19.0686ZM38.0139 12.8602C34.3318 15.6821 31.2412 18.7535 28.9365 21.8688C26.6748 24.9261 25.0871 28.4839 24.6953 31.8055C24.3149 35.0305 25.0323 39.0213 28.833 41.1558C32.1261 43.0053 36.0331 42.8067 39.4447 41.118C42.8005 39.4569 45.7114 36.3848 47.8226 32.2581C50.7171 26.6004 50.7746 20.9632 49.4732 16.438C49.2864 15.7886 49.0669 15.148 48.8172 14.5226C54.9618 10.981 62.3267 8.23768 70.1209 7.21899L69.1774 -1.61072e-05C60.3011 1.1601 51.8637 4.26369 44.7533 8.37203C43.9509 7.62775 43.0814 7.01438 42.1595 6.57012C38.0879 4.60807 33.2688 4.86853 28.5863 7.15359C23.9838 9.39963 19.4209 13.6119 15.1797 19.8303C11.9778 24.5249 9.6544 30.7932 8.15416 35.653C7.3902 38.1277 6.81332 40.3263 6.4268 41.9083C6.23329 42.7004 6.08681 43.3407 5.98788 43.7872C5.93839 44.0104 5.90076 44.1854 5.87504 44.3068C5.86217 44.3675 5.85229 44.4148 5.84538 44.4482L5.84146 44.4671C5.83981 44.4751 5.8384 44.4819 5.83726 44.4875L5.83382 44.5043C5.83371 44.5049 5.83361 44.5054 9.65824 45.1248L5.83361 44.5054L5.10452 48.097L12.7538 49.3359L13.4827 45.7453L13.4827 45.745L13.4829 45.7443L13.4837 45.7404L13.4888 45.7154C13.4937 45.6917 13.5016 45.6542 13.5123 45.6036C13.5338 45.5023 13.5668 45.3484 13.6114 45.1472C13.7007 44.7445 13.8359 44.1531 14.0164 43.4143C14.3779 41.9345 14.9185 39.8745 15.6322 37.5625C17.0873 32.8489 19.1602 27.4314 21.7218 23.6757C25.5056 18.1278 29.1336 15.0475 32.09 13.6048C34.6557 12.3527 36.61 12.3571 38.0139 12.8602Z" fill="url(#paint0_linear_502_352)"/>
<defs>
<linearGradient id="paint0_linear_502_352" x1="69.9135" y1="-2.44291" x2="8.56263" y2="54.8195" gradientUnits="userSpaceOnUse">
<stop stop-color="#72AA9F"/>
<stop offset="0.151042" stop-color="#B1CFBF"/>
<stop offset="0.421875" stop-color="#F2D793"/>
<stop offset="0.604167" stop-color="#EFCB71"/>
<stop offset="0.755208" stop-color="#F5A053"/>
<stop offset="0.911458" stop-color="#EA5830"/>
</linearGradient>
</defs>
</svg>
