<svg width="128" height="68" viewBox="0 0 128 68" fill="none" xmlns="http://www.w3.org/2000/svg">
<g clip-path="url(#clip0_502_243)">
<path d="M30.8205 29.2827C29.3761 29.2827 28.3691 28.855 27.7994 28.0014C27.2489 27.1267 26.9727 25.9777 26.9727 24.5525V8.96545H31.1619V24.7232C31.1619 25.1606 31.2387 25.4636 31.3902 25.6344C31.5609 25.8051 31.7316 25.8914 31.9043 25.8914H32.1325C32.2093 25.8722 32.3033 25.853 32.4183 25.8338L32.9305 28.9394C32.7022 29.0334 32.4088 29.1101 32.0462 29.1676C31.7048 29.2444 31.2962 29.2827 30.8205 29.2827Z" fill="#0B0B0B"/>
<path d="M37.8322 29.2827C36.3878 29.2827 35.3808 28.855 34.8111 28.0014C34.2606 27.1267 33.9844 25.9777 33.9844 24.5525V8.96548H38.1737V24.7233C38.1737 25.1606 38.2504 25.4637 38.4019 25.6344C38.5726 25.8051 38.7434 25.8914 38.9141 25.8914H39.1423C39.2191 25.8722 39.3131 25.8531 39.4281 25.8339L39.9403 28.9394C39.712 29.0334 39.4186 29.1101 39.056 29.1677C38.7146 29.2444 38.306 29.2827 37.8303 29.2827H37.8322Z" fill="#0B0B0B"/>
<path d="M40.9987 28.9413V14.8063H45.188V28.9394H40.9987V28.9413ZM43.0799 12.727C42.376 12.727 41.8063 12.5275 41.3709 12.1286C40.9335 11.7296 40.7148 11.1982 40.7148 10.5326C40.7148 9.86704 40.9335 9.33571 41.3709 8.93673C41.8082 8.53775 42.3779 8.33826 43.0799 8.33826C43.782 8.33826 44.3517 8.53775 44.789 8.93673C45.2264 9.33571 45.4451 9.86704 45.4451 10.5326C45.4451 11.1982 45.2264 11.7296 44.789 12.1286C44.3517 12.5275 43.782 12.727 43.0799 12.727Z" fill="#0B0B0B"/>
<path d="M51.2982 29.2828C50.0072 29.2828 48.981 28.8743 48.2214 28.0571C47.4618 27.2208 47.082 26.2042 47.082 25.0072C47.082 23.5264 47.7093 22.3659 48.9638 21.5315C50.2182 20.6952 52.2419 20.1351 55.0328 19.8512C54.9945 19.2239 54.8046 18.731 54.4632 18.3684C54.1409 17.9886 53.5885 17.7987 52.8097 17.7987C52.2208 17.7987 51.6223 17.9119 51.0143 18.1402C50.4062 18.3684 49.7598 18.6811 49.0769 19.0801L47.5673 16.316C48.4593 15.7655 49.4107 15.3186 50.4177 14.9771C51.444 14.6357 52.5066 14.465 53.6096 14.465C55.4146 14.465 56.8014 14.9867 57.7701 16.0321C58.7388 17.0775 59.2241 18.683 59.2241 20.8486V28.9414H55.804L55.5181 27.4874H55.4031C54.8142 28.0188 54.1773 28.4561 53.4945 28.7975C52.8289 29.1198 52.098 29.2828 51.3001 29.2828H51.2982ZM52.7234 26.0335C53.1991 26.0335 53.6076 25.9299 53.9491 25.7208C54.3097 25.4925 54.6703 25.199 55.0309 24.8384V22.3582C53.5482 22.5481 52.5239 22.8531 51.9542 23.2694C51.3845 23.6683 51.0987 24.1441 51.0987 24.6946C51.0987 25.1511 51.2406 25.4925 51.5264 25.7208C51.8295 25.9299 52.2285 26.0335 52.7234 26.0335Z" fill="#0B0B0B"/>
<path d="M61.623 28.9413V14.8063H65.0431L65.3289 16.6017H65.4421C66.0502 16.0321 66.7158 15.5372 67.437 15.1209C68.1774 14.6836 69.0233 14.4649 69.9728 14.4649C71.5112 14.4649 72.6238 14.9771 73.3066 16.0033C74.0087 17.0103 74.3616 18.3972 74.3616 20.1638V28.9413H70.1723V20.7066C70.1723 19.6804 70.0304 18.9784 69.7446 18.5986C69.478 18.2188 69.0425 18.0289 68.4345 18.0289C67.9031 18.0289 67.4466 18.1516 67.0668 18.3991C66.687 18.6273 66.2689 18.9592 65.8123 19.3965V28.9433H61.623V28.9413Z" fill="#0B0B0B"/>
<path d="M82.9451 29.2828C81.635 29.2828 80.4476 28.997 79.383 28.4273C78.3376 27.8384 77.5032 26.9925 76.876 25.8915C76.2679 24.7713 75.9648 23.4305 75.9648 21.8729C75.9648 20.3154 76.3063 18.9573 76.9911 17.8543C77.6759 16.7533 78.5774 15.917 79.6976 15.3473C80.8178 14.7584 82.0243 14.463 83.3172 14.463C84.1919 14.463 84.9611 14.605 85.6248 14.8908C86.3095 15.1766 86.9157 15.5372 87.4489 15.9745L85.4828 18.6811C84.8172 18.1306 84.1823 17.8543 83.5742 17.8543C82.5672 17.8543 81.7596 18.215 81.1516 18.9381C80.5627 19.6593 80.2673 20.6376 80.2673 21.8729C80.2673 23.1082 80.5627 24.0673 81.1516 24.8077C81.7596 25.5289 82.5192 25.8915 83.4304 25.8915C83.8869 25.8915 84.3319 25.7956 84.7692 25.6057C85.2066 25.3966 85.6056 25.1491 85.9662 24.8653L87.6197 27.6006C86.9157 28.2086 86.1561 28.646 85.3389 28.9107C84.5218 29.1581 83.7238 29.2809 82.9451 29.2809V29.2828Z" fill="#0B0B0B"/>
<path d="M94.4713 29.2828C93.1228 29.2828 91.9067 28.9874 90.8248 28.3986C89.741 27.8097 88.8875 26.9638 88.2602 25.8627C87.633 24.7617 87.3203 23.4305 87.3203 21.8729C87.3203 20.3154 87.633 19.0129 88.2602 17.9119C88.9066 16.8109 89.743 15.965 90.7673 15.3761C91.7935 14.768 92.8657 14.465 93.9879 14.465C95.3363 14.465 96.447 14.768 97.3217 15.3761C98.2136 15.965 98.8792 16.7725 99.3166 17.7987C99.7731 18.8058 100.001 19.9548 100.001 21.2476C100.001 21.6082 99.9822 21.9688 99.9438 22.3314C99.9054 22.6728 99.8671 22.9299 99.8306 23.1006H91.3676C91.5575 24.1268 91.9853 24.8864 92.649 25.3794C93.3146 25.8551 94.1126 26.091 95.0429 26.091C96.0499 26.091 97.0665 25.7783 98.0908 25.1511L99.4873 27.6869C98.766 28.1799 97.9585 28.5712 97.0646 28.8551C96.1727 29.1409 95.3076 29.2828 94.4713 29.2828V29.2828ZM91.337 20.3346H96.4374C96.4374 19.5558 96.2475 18.919 95.8677 18.426C95.5071 17.9138 94.9086 17.6568 94.0723 17.6568C93.4258 17.6568 92.8466 17.8851 92.3344 18.3416C91.8223 18.7789 91.4885 19.4426 91.337 20.3365V20.3346Z" fill="#0B0B0B"/>
<path fill-rule="evenodd" clip-rule="evenodd" d="M19.0667 13.1183C17.5398 14.7411 16.3141 16.4233 15.4644 18.048C14.6607 19.5807 14.2751 21.1631 14.2981 22.3601C14.3211 23.6146 14.7316 23.9023 14.8716 23.9656C15.3071 24.1612 15.9401 24.1843 16.7438 23.6337C17.5744 23.0641 18.5411 21.8767 19.2201 19.8339C20.0584 17.3134 19.7956 14.9579 19.0686 13.1164L19.0667 13.1183ZM16.4254 9.76154C14.4381 11.7948 12.8326 13.9547 11.7163 16.0857C10.6574 18.1075 10.0302 20.3901 10.0685 22.4406C10.1069 24.4355 10.832 26.7834 13.1299 27.8211C15.1325 28.7265 17.3288 28.364 19.1357 27.121C20.9158 25.8991 22.3429 23.839 23.231 21.1689C24.4452 17.5167 24.0309 14.0602 22.9222 11.3728C22.7457 10.9451 22.5482 10.5269 22.3295 10.1241C25.6537 7.47892 29.7739 5.25576 34.2912 4.0991L33.2458 -3.05176e-05C28.1569 1.30241 23.4862 3.79603 19.6824 6.82482C19.1377 6.38748 18.5641 6.04413 17.9733 5.82162C15.5066 4.89322 12.7828 5.35167 10.2795 7.04925C7.81662 8.71805 5.51865 11.5991 3.56211 15.7117C2.08896 18.8057 1.24496 22.8224 0.763502 25.9279C0.519894 27.5065 0.360686 28.903 0.262859 29.9062C0.214905 30.4087 0.180378 30.8135 0.159278 31.0954C0.147769 31.2374 0.140096 31.3467 0.13626 31.4234C0.134342 31.4618 0.132424 31.4906 0.130506 31.5117V31.5462H0.128587L0.00390625 33.6581L4.2258 33.9094L4.35048 31.7994V31.7802C4.3524 31.7649 4.35432 31.7419 4.35624 31.7092C4.36007 31.644 4.36774 31.5462 4.37734 31.4196C4.39652 31.1626 4.42721 30.7866 4.47324 30.3167C4.56532 29.3748 4.71302 28.059 4.9432 26.5762C5.41123 23.557 6.18233 20.0468 7.38119 17.5301C9.14207 13.83 11.02 11.6586 12.6542 10.5518C14.2176 9.493 15.4912 9.4297 16.4292 9.76154H16.4254Z" fill="#0B0B0B"/>
</g>
<path d="M1.26 49.9113V40.7273H2.422V49.9113H1.26ZM4.54573 49.9113V43.1073H5.49773L5.59573 44.0873H5.63773C5.9644 43.7607 6.30973 43.49 6.67373 43.2753C7.03773 43.0513 7.45307 42.9393 7.91973 42.9393C8.6384 42.9393 9.16107 43.168 9.48773 43.6253C9.82373 44.0733 9.99173 44.7313 9.99173 45.5993V49.9113H8.84373V45.7533C8.84373 45.1187 8.74107 44.6567 8.53573 44.3673C8.3304 44.078 8.00373 43.9333 7.55573 43.9333C7.2104 43.9333 6.89773 44.022 6.61773 44.1993C6.34707 44.3767 6.03907 44.638 5.69373 44.9833V49.9113H4.54573ZM14.064 50.0793C13.336 50.0793 12.8273 49.8693 12.538 49.4493C12.258 49.0293 12.118 48.4833 12.118 47.8113V44.0453H11.11V43.1773L12.174 43.1073L12.314 41.2033H13.28V43.1073H15.114V44.0453H13.28V47.8253C13.28 48.2453 13.3547 48.572 13.504 48.8053C13.6627 49.0293 13.938 49.1413 14.33 49.1413C14.4513 49.1413 14.582 49.1227 14.722 49.0853C14.862 49.0387 14.988 48.9967 15.1 48.9593L15.324 49.8273C15.1373 49.8927 14.932 49.9487 14.708 49.9953C14.4933 50.0513 14.2787 50.0793 14.064 50.0793ZM18.939 50.0793C18.3324 50.0793 17.7817 49.9393 17.287 49.6593C16.7924 49.37 16.4004 48.9593 16.111 48.4273C15.8217 47.8953 15.677 47.2607 15.677 46.5233C15.677 45.7767 15.8217 45.1373 16.111 44.6053C16.4097 44.0733 16.7924 43.6627 17.259 43.3733C17.7257 43.084 18.2157 42.9393 18.729 42.9393C19.597 42.9393 20.2644 43.2287 20.731 43.8073C21.207 44.386 21.445 45.1607 21.445 46.1313C21.445 46.2527 21.4404 46.374 21.431 46.4953C21.431 46.6073 21.4217 46.7053 21.403 46.7893H16.811C16.8577 47.508 17.0817 48.082 17.483 48.5113C17.8937 48.9407 18.4257 49.1553 19.079 49.1553C19.4057 49.1553 19.7044 49.1087 19.975 49.0153C20.255 48.9127 20.521 48.782 20.773 48.6233L21.179 49.3793C20.8897 49.566 20.5584 49.7293 20.185 49.8693C19.821 50.0093 19.4057 50.0793 18.939 50.0793ZM16.797 45.9633H20.437C20.437 45.2727 20.2877 44.75 19.989 44.3953C19.6997 44.0313 19.289 43.8493 18.757 43.8493C18.281 43.8493 17.8517 44.036 17.469 44.4093C17.0957 44.7733 16.8717 45.2913 16.797 45.9633ZM22.8464 49.9113V43.1073H23.7984L23.8964 44.3393H23.9384C24.1717 43.91 24.4564 43.5693 24.7924 43.3173C25.1284 43.0653 25.4877 42.9393 25.8704 42.9393C26.141 42.9393 26.3837 42.986 26.5984 43.0793L26.3744 44.0873C26.2624 44.05 26.1597 44.022 26.0664 44.0033C25.973 43.9847 25.8564 43.9753 25.7164 43.9753C25.427 43.9753 25.1237 44.092 24.8064 44.3253C24.4984 44.5587 24.2277 44.9647 23.9944 45.5433V49.9113H22.8464ZM27.4199 49.9113V43.1073H28.3719L28.4699 44.0873H28.5119C28.8385 43.7607 29.1839 43.49 29.5479 43.2753C29.9119 43.0513 30.3272 42.9393 30.7939 42.9393C31.5125 42.9393 32.0352 43.168 32.3619 43.6253C32.6979 44.0733 32.8659 44.7313 32.8659 45.5993V49.9113H31.7179V45.7533C31.7179 45.1187 31.6152 44.6567 31.4099 44.3673C31.2045 44.078 30.8779 43.9333 30.4299 43.9333C30.0845 43.9333 29.7719 44.022 29.4919 44.1993C29.2212 44.3767 28.9132 44.638 28.5679 44.9833V49.9113H27.4199ZM36.3641 50.0793C35.7948 50.0793 35.3188 49.9113 34.9361 49.5753C34.5628 49.23 34.3761 48.754 34.3761 48.1473C34.3761 47.4007 34.7075 46.8313 35.3701 46.4393C36.0421 46.038 37.1015 45.758 38.5481 45.5993C38.5481 45.31 38.5061 45.0347 38.4221 44.7733C38.3475 44.512 38.2075 44.302 38.0021 44.1433C37.8061 43.9753 37.5215 43.8913 37.1481 43.8913C36.7561 43.8913 36.3875 43.966 36.0421 44.1153C35.6968 44.2647 35.3888 44.4327 35.1181 44.6193L34.6701 43.8213C34.9875 43.616 35.3748 43.42 35.8321 43.2333C36.2988 43.0373 36.8028 42.9393 37.3441 42.9393C38.1748 42.9393 38.7768 43.196 39.1501 43.7093C39.5235 44.2133 39.7101 44.89 39.7101 45.7393V49.9113H38.7581L38.6601 49.0993H38.6181C38.3008 49.3607 37.9508 49.5893 37.5681 49.7853C37.1948 49.9813 36.7935 50.0793 36.3641 50.0793ZM36.7001 49.1553C37.0268 49.1553 37.3348 49.076 37.6241 48.9173C37.9135 48.7587 38.2215 48.5347 38.5481 48.2453V46.3553C37.4188 46.4953 36.6255 46.7053 36.1681 46.9853C35.7201 47.2653 35.4961 47.6247 35.4961 48.0633C35.4961 48.446 35.6128 48.726 35.8461 48.9033C36.0795 49.0713 36.3641 49.1553 36.7001 49.1553ZM43.5214 50.0793C42.7934 50.0793 42.2847 49.8693 41.9954 49.4493C41.7154 49.0293 41.5754 48.4833 41.5754 47.8113V44.0453H40.5674V43.1773L41.6314 43.1073L41.7714 41.2033H42.7374V43.1073H44.5714V44.0453H42.7374V47.8253C42.7374 48.2453 42.8121 48.572 42.9614 48.8053C43.1201 49.0293 43.3954 49.1413 43.7874 49.1413C43.9087 49.1413 44.0394 49.1227 44.1794 49.0853C44.3194 49.0387 44.4454 48.9967 44.5574 48.9593L44.7814 49.8273C44.5947 49.8927 44.3894 49.9487 44.1654 49.9953C43.9507 50.0513 43.7361 50.0793 43.5214 50.0793ZM45.8299 49.9113V43.1073H46.9779V49.9113H45.8299ZM46.4179 41.7073C46.1939 41.7073 46.0072 41.642 45.8579 41.5113C45.7179 41.3713 45.6479 41.1847 45.6479 40.9513C45.6479 40.7273 45.7179 40.5453 45.8579 40.4053C46.0072 40.2653 46.1939 40.1953 46.4179 40.1953C46.6419 40.1953 46.8239 40.2653 46.9639 40.4053C47.1132 40.5453 47.1879 40.7273 47.1879 40.9513C47.1879 41.1847 47.1132 41.3713 46.9639 41.5113C46.8239 41.642 46.6419 41.7073 46.4179 41.7073ZM51.6412 50.0793C51.0905 50.0793 50.5725 49.9393 50.0872 49.6593C49.6112 49.3793 49.2239 48.9733 48.9252 48.4413C48.6359 47.9093 48.4912 47.27 48.4912 46.5233C48.4912 45.758 48.6359 45.1093 48.9252 44.5773C49.2239 44.0453 49.6112 43.6393 50.0872 43.3593C50.5725 43.0793 51.0905 42.9393 51.6412 42.9393C52.2012 42.9393 52.7192 43.0793 53.1952 43.3593C53.6712 43.6393 54.0539 44.0453 54.3432 44.5773C54.6419 45.1093 54.7912 45.758 54.7912 46.5233C54.7912 47.27 54.6419 47.9093 54.3432 48.4413C54.0539 48.9733 53.6712 49.3793 53.1952 49.6593C52.7192 49.9393 52.2012 50.0793 51.6412 50.0793ZM51.6412 49.1273C52.2292 49.1273 52.7005 48.8893 53.0552 48.4133C53.4192 47.928 53.6012 47.298 53.6012 46.5233C53.6012 45.7393 53.4192 45.1047 53.0552 44.6193C52.7005 44.134 52.2292 43.8913 51.6412 43.8913C51.0625 43.8913 50.5912 44.134 50.2272 44.6193C49.8632 45.1047 49.6812 45.7393 49.6812 46.5233C49.6812 47.298 49.8632 47.928 50.2272 48.4133C50.5912 48.8893 51.0625 49.1273 51.6412 49.1273ZM56.3031 49.9113V43.1073H57.2551L57.3531 44.0873H57.3951C57.7217 43.7607 58.0671 43.49 58.4311 43.2753C58.7951 43.0513 59.2104 42.9393 59.6771 42.9393C60.3957 42.9393 60.9184 43.168 61.2451 43.6253C61.5811 44.0733 61.7491 44.7313 61.7491 45.5993V49.9113H60.6011V45.7533C60.6011 45.1187 60.4984 44.6567 60.2931 44.3673C60.0877 44.078 59.7611 43.9333 59.3131 43.9333C58.9677 43.9333 58.6551 44.022 58.3751 44.1993C58.1044 44.3767 57.7964 44.638 57.4511 44.9833V49.9113H56.3031ZM65.2473 50.0793C64.678 50.0793 64.202 49.9113 63.8193 49.5753C63.446 49.23 63.2593 48.754 63.2593 48.1473C63.2593 47.4007 63.5907 46.8313 64.2533 46.4393C64.9253 46.038 65.9847 45.758 67.4313 45.5993C67.4313 45.31 67.3893 45.0347 67.3053 44.7733C67.2307 44.512 67.0907 44.302 66.8853 44.1433C66.6893 43.9753 66.4047 43.8913 66.0313 43.8913C65.6393 43.8913 65.2707 43.966 64.9253 44.1153C64.58 44.2647 64.272 44.4327 64.0013 44.6193L63.5533 43.8213C63.8707 43.616 64.258 43.42 64.7153 43.2333C65.182 43.0373 65.686 42.9393 66.2273 42.9393C67.058 42.9393 67.66 43.196 68.0333 43.7093C68.4067 44.2133 68.5933 44.89 68.5933 45.7393V49.9113H67.6413L67.5433 49.0993H67.5013C67.184 49.3607 66.834 49.5893 66.4513 49.7853C66.078 49.9813 65.6767 50.0793 65.2473 50.0793ZM65.5833 49.1553C65.91 49.1553 66.218 49.076 66.5073 48.9173C66.7967 48.7587 67.1047 48.5347 67.4313 48.2453V46.3553C66.302 46.4953 65.5087 46.7053 65.0513 46.9853C64.6033 47.2653 64.3793 47.6247 64.3793 48.0633C64.3793 48.446 64.496 48.726 64.7293 48.9033C64.9627 49.0713 65.2473 49.1553 65.5833 49.1553ZM71.672 50.0793C71.2427 50.0793 70.93 49.9487 70.734 49.6873C70.5473 49.4167 70.454 49.034 70.454 48.5393V39.9433H71.602V48.6233C71.602 48.8007 71.6347 48.9313 71.7 49.0153C71.7653 49.09 71.84 49.1273 71.924 49.1273C71.9613 49.1273 71.994 49.1273 72.022 49.1273C72.0593 49.118 72.1107 49.1087 72.176 49.0993L72.33 49.9673C72.2553 50.0047 72.1667 50.0327 72.064 50.0513C71.9613 50.07 71.8307 50.0793 71.672 50.0793ZM76.3771 49.9113V40.7273H78.6731C80.0918 40.7273 81.1698 41.124 81.9071 41.9173C82.6444 42.7013 83.0131 43.8213 83.0131 45.2773C83.0131 46.7427 82.6444 47.8813 81.9071 48.6933C81.1791 49.5053 80.1198 49.9113 78.7291 49.9113H76.3771ZM77.5391 48.9593H78.5891C79.6624 48.9593 80.4651 48.6373 80.9971 47.9933C81.5384 47.34 81.8091 46.4347 81.8091 45.2773C81.8091 44.12 81.5384 43.2333 80.9971 42.6173C80.4651 41.992 79.6624 41.6793 78.5891 41.6793H77.5391V48.9593ZM84.5984 49.9113V43.1073H85.5504L85.6484 44.3393H85.6904C85.9237 43.91 86.2084 43.5693 86.5444 43.3173C86.8804 43.0653 87.2397 42.9393 87.6224 42.9393C87.8931 42.9393 88.1357 42.986 88.3504 43.0793L88.1264 44.0873C88.0144 44.05 87.9117 44.022 87.8184 44.0033C87.7251 43.9847 87.6084 43.9753 87.4684 43.9753C87.1791 43.9753 86.8757 44.092 86.5584 44.3253C86.2504 44.5587 85.9797 44.9647 85.7464 45.5433V49.9113H84.5984ZM91.6812 50.0793C91.1305 50.0793 90.6125 49.9393 90.1272 49.6593C89.6512 49.3793 89.2639 48.9733 88.9652 48.4413C88.6759 47.9093 88.5312 47.27 88.5312 46.5233C88.5312 45.758 88.6759 45.1093 88.9652 44.5773C89.2639 44.0453 89.6512 43.6393 90.1272 43.3593C90.6125 43.0793 91.1305 42.9393 91.6812 42.9393C92.2412 42.9393 92.7592 43.0793 93.2352 43.3593C93.7112 43.6393 94.0939 44.0453 94.3832 44.5773C94.6819 45.1093 94.8312 45.758 94.8312 46.5233C94.8312 47.27 94.6819 47.9093 94.3832 48.4413C94.0939 48.9733 93.7112 49.3793 93.2352 49.6593C92.7592 49.9393 92.2412 50.0793 91.6812 50.0793ZM91.6812 49.1273C92.2692 49.1273 92.7405 48.8893 93.0952 48.4133C93.4592 47.928 93.6412 47.298 93.6412 46.5233C93.6412 45.7393 93.4592 45.1047 93.0952 44.6193C92.7405 44.134 92.2692 43.8913 91.6812 43.8913C91.1025 43.8913 90.6312 44.134 90.2672 44.6193C89.9032 45.1047 89.7212 45.7393 89.7212 46.5233C89.7212 47.298 89.9032 47.928 90.2672 48.4133C90.6312 48.8893 91.1025 49.1273 91.6812 49.1273ZM98.3311 50.0793C97.6124 50.0793 97.0851 49.8553 96.7491 49.4073C96.4131 48.95 96.2451 48.2873 96.2451 47.4193V43.1073H97.4071V47.2653C97.4071 47.9 97.5051 48.362 97.7011 48.6513C97.9064 48.9407 98.2331 49.0853 98.6811 49.0853C99.0357 49.0853 99.3484 48.9967 99.6191 48.8193C99.8991 48.6327 100.198 48.3387 100.515 47.9373V43.1073H101.663V49.9113H100.711L100.613 48.8473H100.571C100.254 49.2207 99.9177 49.5193 99.5631 49.7433C99.2084 49.9673 98.7977 50.0793 98.3311 50.0793ZM105.974 53.0473C105.144 53.0473 104.467 52.8887 103.944 52.5713C103.422 52.254 103.16 51.8013 103.16 51.2133C103.16 50.924 103.249 50.644 103.426 50.3733C103.604 50.112 103.846 49.8787 104.154 49.6733V49.6173C103.986 49.5147 103.842 49.37 103.72 49.1833C103.608 48.9967 103.552 48.7727 103.552 48.5113C103.552 48.222 103.632 47.97 103.79 47.7553C103.949 47.5407 104.117 47.3727 104.294 47.2513V47.1953C104.07 47.0087 103.865 46.7567 103.678 46.4393C103.501 46.122 103.412 45.7627 103.412 45.3613C103.412 44.8667 103.529 44.4373 103.762 44.0733C103.996 43.7093 104.308 43.4293 104.7 43.2333C105.092 43.0373 105.517 42.9393 105.974 42.9393C106.161 42.9393 106.338 42.958 106.506 42.9953C106.674 43.0233 106.819 43.0607 106.94 43.1073H109.306V43.9893H107.906C108.065 44.1387 108.196 44.3393 108.298 44.5913C108.41 44.834 108.466 45.1 108.466 45.3893C108.466 45.8747 108.354 46.2947 108.13 46.6493C107.906 47.004 107.608 47.2793 107.234 47.4753C106.861 47.662 106.441 47.7553 105.974 47.7553C105.61 47.7553 105.27 47.676 104.952 47.5173C104.831 47.62 104.728 47.7367 104.644 47.8673C104.56 47.9887 104.518 48.1427 104.518 48.3293C104.518 48.544 104.602 48.7213 104.77 48.8613C104.948 49.0013 105.265 49.0713 105.722 49.0713H107.038C107.832 49.0713 108.424 49.202 108.816 49.4633C109.218 49.7153 109.418 50.126 109.418 50.6953C109.418 51.1153 109.278 51.5027 108.998 51.8573C108.718 52.212 108.322 52.4967 107.808 52.7113C107.295 52.9353 106.684 53.0473 105.974 53.0473ZM105.974 46.9853C106.366 46.9853 106.702 46.8407 106.982 46.5513C107.272 46.2527 107.416 45.856 107.416 45.3613C107.416 44.8667 107.276 44.4793 106.996 44.1993C106.716 43.9193 106.376 43.7793 105.974 43.7793C105.573 43.7793 105.232 43.9193 104.952 44.1993C104.672 44.4793 104.532 44.8667 104.532 45.3613C104.532 45.856 104.672 46.2527 104.952 46.5513C105.242 46.8407 105.582 46.9853 105.974 46.9853ZM106.142 52.2493C106.796 52.2493 107.318 52.1047 107.71 51.8153C108.102 51.5353 108.298 51.218 108.298 50.8633C108.298 50.546 108.177 50.3267 107.934 50.2053C107.701 50.084 107.365 50.0233 106.926 50.0233H105.75C105.62 50.0233 105.475 50.014 105.316 49.9953C105.167 49.9767 105.018 49.9487 104.868 49.9113C104.626 50.0887 104.448 50.2753 104.336 50.4713C104.224 50.6673 104.168 50.8633 104.168 51.0593C104.168 51.4233 104.341 51.7127 104.686 51.9273C105.041 52.142 105.526 52.2493 106.142 52.2493ZM110.453 49.9113V39.9433H111.601V42.6593L111.559 44.0593C111.886 43.7513 112.226 43.49 112.581 43.2753C112.945 43.0513 113.36 42.9393 113.827 42.9393C114.546 42.9393 115.068 43.168 115.395 43.6253C115.731 44.0733 115.899 44.7313 115.899 45.5993V49.9113H114.751V45.7533C114.751 45.1187 114.648 44.6567 114.443 44.3673C114.238 44.078 113.911 43.9333 113.463 43.9333C113.118 43.9333 112.805 44.022 112.525 44.1993C112.254 44.3767 111.946 44.638 111.601 44.9833V49.9113H110.453ZM119.93 50.0793C119.202 50.0793 118.694 49.8693 118.404 49.4493C118.124 49.0293 117.984 48.4833 117.984 47.8113V44.0453H116.976V43.1773L118.04 43.1073L118.18 41.2033H119.146V43.1073H120.98V44.0453H119.146V47.8253C119.146 48.2453 119.221 48.572 119.37 48.8053C119.529 49.0293 119.804 49.1413 120.196 49.1413C120.318 49.1413 120.448 49.1227 120.588 49.0853C120.728 49.0387 120.854 48.9967 120.966 48.9593L121.19 49.8273C121.004 49.8927 120.798 49.9487 120.574 49.9953C120.36 50.0513 120.145 50.0793 119.93 50.0793ZM1.26 64.9113V55.7273H4.13C4.75533 55.7273 5.31067 55.8113 5.796 55.9793C6.28133 56.138 6.65933 56.4087 6.93 56.7913C7.21 57.1647 7.35 57.6687 7.35 58.3033C7.35 59.0127 7.16333 59.5867 6.79 60.0253C6.41667 60.4547 5.91267 60.7487 5.278 60.9073L7.616 64.9113H6.3L4.088 61.0333H2.422V64.9113H1.26ZM2.422 60.0813H3.962C4.68067 60.0813 5.23133 59.9367 5.614 59.6473C5.99667 59.3487 6.188 58.9007 6.188 58.3033C6.188 57.6967 5.99667 57.272 5.614 57.0293C5.23133 56.7867 4.68067 56.6653 3.962 56.6653H2.422V60.0813ZM11.46 65.0793C10.8533 65.0793 10.3027 64.9393 9.80798 64.6593C9.31332 64.37 8.92132 63.9593 8.63198 63.4273C8.34265 62.8953 8.19798 62.2607 8.19798 61.5233C8.19798 60.7767 8.34265 60.1373 8.63198 59.6053C8.93065 59.0733 9.31332 58.6627 9.77998 58.3733C10.2467 58.084 10.7367 57.9393 11.25 57.9393C12.118 57.9393 12.7853 58.2287 13.252 58.8073C13.728 59.386 13.966 60.1607 13.966 61.1313C13.966 61.2527 13.9613 61.374 13.952 61.4953C13.952 61.6073 13.9427 61.7053 13.924 61.7893H9.33198C9.37865 62.508 9.60265 63.082 10.004 63.5113C10.4147 63.9407 10.9467 64.1553 11.6 64.1553C11.9267 64.1553 12.2253 64.1087 12.496 64.0153C12.776 63.9127 13.042 63.782 13.294 63.6233L13.7 64.3793C13.4107 64.566 13.0793 64.7293 12.706 64.8693C12.342 65.0093 11.9267 65.0793 11.46 65.0793ZM9.31798 60.9633H12.958C12.958 60.2727 12.8087 59.75 12.51 59.3953C12.2207 59.0313 11.81 58.8493 11.278 58.8493C10.802 58.8493 10.3727 59.036 9.98998 59.4093C9.61665 59.7733 9.39265 60.2913 9.31798 60.9633ZM17.1453 65.0793C16.66 65.0793 16.198 64.9907 15.7593 64.8133C15.3206 64.6267 14.938 64.4027 14.6113 64.1413L15.1853 63.3713C15.484 63.6047 15.792 63.8007 16.1093 63.9593C16.4266 64.1087 16.786 64.1833 17.1873 64.1833C17.6353 64.1833 17.9713 64.0807 18.1953 63.8753C18.4193 63.6607 18.5313 63.4087 18.5313 63.1193C18.5313 62.886 18.452 62.69 18.2933 62.5313C18.144 62.3727 17.948 62.242 17.7053 62.1393C17.472 62.0273 17.2293 61.9247 16.9773 61.8313C16.66 61.71 16.3473 61.5747 16.0393 61.4253C15.7313 61.2667 15.4793 61.066 15.2833 60.8233C15.0873 60.5713 14.9893 60.254 14.9893 59.8713C14.9893 59.3207 15.1946 58.8633 15.6053 58.4993C16.0253 58.126 16.604 57.9393 17.3413 57.9393C17.7613 57.9393 18.1533 58.014 18.5173 58.1633C18.8813 58.3127 19.194 58.4947 19.4553 58.7093L18.8953 59.4373C18.662 59.26 18.4193 59.1153 18.1673 59.0033C17.9153 58.8913 17.64 58.8353 17.3413 58.8353C16.912 58.8353 16.5946 58.9333 16.3893 59.1293C16.1933 59.3253 16.0953 59.554 16.0953 59.8153C16.0953 60.03 16.1653 60.2073 16.3053 60.3473C16.4453 60.478 16.6273 60.5947 16.8513 60.6973C17.0753 60.7907 17.3133 60.8887 17.5653 60.9913C17.892 61.1127 18.214 61.2527 18.5313 61.4113C18.8486 61.5607 19.11 61.766 19.3153 62.0273C19.53 62.2793 19.6373 62.62 19.6373 63.0493C19.6373 63.4133 19.5393 63.7493 19.3433 64.0573C19.1566 64.3653 18.8766 64.6127 18.5033 64.7993C18.1393 64.986 17.6866 65.0793 17.1453 65.0793ZM20.9525 64.9113V58.1073H22.1005V64.9113H20.9525ZM21.5405 56.7073C21.3165 56.7073 21.1299 56.642 20.9805 56.5113C20.8405 56.3713 20.7705 56.1847 20.7705 55.9513C20.7705 55.7273 20.8405 55.5453 20.9805 55.4053C21.1299 55.2653 21.3165 55.1953 21.5405 55.1953C21.7645 55.1953 21.9465 55.2653 22.0865 55.4053C22.2359 55.5453 22.3105 55.7273 22.3105 55.9513C22.3105 56.1847 22.2359 56.3713 22.0865 56.5113C21.9465 56.642 21.7645 56.7073 21.5405 56.7073ZM25.3358 65.0793C24.9065 65.0793 24.5938 64.9487 24.3978 64.6873C24.2112 64.4167 24.1178 64.034 24.1178 63.5393V54.9433H25.2658V63.6233C25.2658 63.8007 25.2985 63.9313 25.3638 64.0153C25.4292 64.09 25.5038 64.1273 25.5878 64.1273C25.6252 64.1273 25.6578 64.1273 25.6858 64.1273C25.7232 64.118 25.7745 64.1087 25.8398 64.0993L25.9938 64.9673C25.9192 65.0047 25.8305 65.0327 25.7278 65.0513C25.6252 65.07 25.4945 65.0793 25.3358 65.0793ZM27.4062 64.9113V58.1073H28.5542V64.9113H27.4062ZM27.9942 56.7073C27.7702 56.7073 27.5835 56.642 27.4342 56.5113C27.2942 56.3713 27.2242 56.1847 27.2242 55.9513C27.2242 55.7273 27.2942 55.5453 27.4342 55.4053C27.5835 55.2653 27.7702 55.1953 27.9942 55.1953C28.2182 55.1953 28.4002 55.2653 28.5402 55.4053C28.6895 55.5453 28.7642 55.7273 28.7642 55.9513C28.7642 56.1847 28.6895 56.3713 28.5402 56.5113C28.4002 56.642 28.2182 56.7073 27.9942 56.7073ZM33.3295 65.0793C32.7228 65.0793 32.1722 64.9393 31.6775 64.6593C31.1828 64.37 30.7908 63.9593 30.5015 63.4273C30.2122 62.8953 30.0675 62.2607 30.0675 61.5233C30.0675 60.7767 30.2122 60.1373 30.5015 59.6053C30.8002 59.0733 31.1828 58.6627 31.6495 58.3733C32.1162 58.084 32.6062 57.9393 33.1195 57.9393C33.9875 57.9393 34.6548 58.2287 35.1215 58.8073C35.5975 59.386 35.8355 60.1607 35.8355 61.1313C35.8355 61.2527 35.8308 61.374 35.8215 61.4953C35.8215 61.6073 35.8122 61.7053 35.7935 61.7893H31.2015C31.2482 62.508 31.4722 63.082 31.8735 63.5113C32.2842 63.9407 32.8162 64.1553 33.4695 64.1553C33.7962 64.1553 34.0948 64.1087 34.3655 64.0153C34.6455 63.9127 34.9115 63.782 35.1635 63.6233L35.5695 64.3793C35.2802 64.566 34.9488 64.7293 34.5755 64.8693C34.2115 65.0093 33.7962 65.0793 33.3295 65.0793ZM31.1875 60.9633H34.8275C34.8275 60.2727 34.6782 59.75 34.3795 59.3953C34.0902 59.0313 33.6795 58.8493 33.1475 58.8493C32.6715 58.8493 32.2422 59.036 31.8595 59.4093C31.4862 59.7733 31.2622 60.2913 31.1875 60.9633ZM37.2368 64.9113V58.1073H38.1888L38.2868 59.0873H38.3288C38.6555 58.7607 39.0008 58.49 39.3648 58.2753C39.7288 58.0513 40.1442 57.9393 40.6108 57.9393C41.3295 57.9393 41.8522 58.168 42.1788 58.6253C42.5148 59.0733 42.6828 59.7313 42.6828 60.5993V64.9113H41.5348V60.7533C41.5348 60.1187 41.4322 59.6567 41.2268 59.3673C41.0215 59.078 40.6948 58.9333 40.2468 58.9333C39.9015 58.9333 39.5888 59.022 39.3088 59.1993C39.0382 59.3767 38.7302 59.638 38.3848 59.9833V64.9113H37.2368ZM47.3011 65.0793C46.7037 65.0793 46.1624 64.9393 45.6771 64.6593C45.1917 64.3793 44.8091 63.9733 44.5291 63.4413C44.2491 62.9093 44.1091 62.27 44.1091 61.5233C44.1091 60.758 44.2584 60.1093 44.5571 59.5773C44.8651 59.0453 45.2664 58.6393 45.7611 58.3593C46.2651 58.0793 46.8064 57.9393 47.3851 57.9393C47.8331 57.9393 48.2157 58.0187 48.5331 58.1773C48.8597 58.336 49.1397 58.5227 49.3731 58.7373L48.7851 59.4933C48.5891 59.316 48.3791 59.1713 48.1551 59.0593C47.9404 58.9473 47.6977 58.8913 47.4271 58.8913C47.0164 58.8913 46.6477 59.0033 46.3211 59.2273C46.0037 59.442 45.7517 59.75 45.5651 60.1513C45.3877 60.5433 45.2991 61.0007 45.2991 61.5233C45.2991 62.298 45.4904 62.928 45.8731 63.4133C46.2651 63.8893 46.7737 64.1273 47.3991 64.1273C47.7164 64.1273 48.0104 64.062 48.2811 63.9313C48.5517 63.7913 48.7897 63.628 48.9951 63.4413L49.4991 64.2113C49.1911 64.482 48.8504 64.6967 48.4771 64.8553C48.1037 65.0047 47.7117 65.0793 47.3011 65.0793ZM53.1751 65.0793C52.5684 65.0793 52.0177 64.9393 51.5231 64.6593C51.0284 64.37 50.6364 63.9593 50.3471 63.4273C50.0577 62.8953 49.9131 62.2607 49.9131 61.5233C49.9131 60.7767 50.0577 60.1373 50.3471 59.6053C50.6457 59.0733 51.0284 58.6627 51.4951 58.3733C51.9617 58.084 52.4517 57.9393 52.9651 57.9393C53.8331 57.9393 54.5004 58.2287 54.9671 58.8073C55.4431 59.386 55.6811 60.1607 55.6811 61.1313C55.6811 61.2527 55.6764 61.374 55.6671 61.4953C55.6671 61.6073 55.6577 61.7053 55.6391 61.7893H51.0471C51.0937 62.508 51.3177 63.082 51.7191 63.5113C52.1297 63.9407 52.6617 64.1553 53.3151 64.1553C53.6417 64.1553 53.9404 64.1087 54.2111 64.0153C54.4911 63.9127 54.7571 63.782 55.0091 63.6233L55.4151 64.3793C55.1257 64.566 54.7944 64.7293 54.4211 64.8693C54.0571 65.0093 53.6417 65.0793 53.1751 65.0793ZM51.0331 60.9633H54.6731C54.6731 60.2727 54.5237 59.75 54.2251 59.3953C53.9357 59.0313 53.5251 58.8493 52.9931 58.8493C52.5171 58.8493 52.0877 59.036 51.7051 59.4093C51.3317 59.7733 51.1077 60.2913 51.0331 60.9633ZM61.2991 59.7733L60.8651 61.1733H63.6231L63.1891 59.7733C63.0211 59.26 62.8624 58.7513 62.7131 58.2473C62.5638 57.734 62.4144 57.2113 62.2651 56.6793H62.2091C62.0691 57.2113 61.9244 57.734 61.7751 58.2473C61.6258 58.7513 61.4671 59.26 61.2991 59.7733ZM58.4991 64.9113L61.6071 55.7273H62.9231L66.0311 64.9113H64.7851L63.9171 62.1113H60.5711L59.6891 64.9113H58.4991ZM68.1583 65.0793C67.729 65.0793 67.4163 64.9487 67.2203 64.6873C67.0337 64.4167 66.9403 64.034 66.9403 63.5393V54.9433H68.0883V63.6233C68.0883 63.8007 68.121 63.9313 68.1863 64.0153C68.2517 64.09 68.3263 64.1273 68.4103 64.1273C68.4477 64.1273 68.4803 64.1273 68.5083 64.1273C68.5457 64.118 68.597 64.1087 68.6623 64.0993L68.8163 64.9673C68.7417 65.0047 68.653 65.0327 68.5503 65.0513C68.4477 65.07 68.317 65.0793 68.1583 65.0793ZM71.4467 65.0793C71.0174 65.0793 70.7047 64.9487 70.5087 64.6873C70.322 64.4167 70.2287 64.034 70.2287 63.5393V54.9433H71.3767V63.6233C71.3767 63.8007 71.4094 63.9313 71.4747 64.0153C71.54 64.09 71.6147 64.1273 71.6987 64.1273C71.736 64.1273 71.7687 64.1273 71.7967 64.1273C71.834 64.118 71.8854 64.1087 71.9507 64.0993L72.1047 64.9673C72.03 65.0047 71.9414 65.0327 71.8387 65.0513C71.736 65.07 71.6054 65.0793 71.4467 65.0793ZM73.5171 64.9113V58.1073H74.6651V64.9113H73.5171ZM74.1051 56.7073C73.8811 56.7073 73.6944 56.642 73.5451 56.5113C73.4051 56.3713 73.3351 56.1847 73.3351 55.9513C73.3351 55.7273 73.4051 55.5453 73.5451 55.4053C73.6944 55.2653 73.8811 55.1953 74.1051 55.1953C74.3291 55.1953 74.5111 55.2653 74.6511 55.4053C74.8004 55.5453 74.8751 55.7273 74.8751 55.9513C74.8751 56.1847 74.8004 56.3713 74.6511 56.5113C74.5111 56.642 74.3291 56.7073 74.1051 56.7073ZM78.2504 65.0793C77.681 65.0793 77.205 64.9113 76.8224 64.5753C76.449 64.23 76.2624 63.754 76.2624 63.1473C76.2624 62.4007 76.5937 61.8313 77.2564 61.4393C77.9284 61.038 78.9877 60.758 80.4344 60.5993C80.4344 60.31 80.3924 60.0347 80.3084 59.7733C80.2337 59.512 80.0937 59.302 79.8884 59.1433C79.6924 58.9753 79.4077 58.8913 79.0344 58.8913C78.6424 58.8913 78.2737 58.966 77.9284 59.1153C77.583 59.2647 77.275 59.4327 77.0044 59.6193L76.5564 58.8213C76.8737 58.616 77.261 58.42 77.7184 58.2333C78.185 58.0373 78.689 57.9393 79.2304 57.9393C80.061 57.9393 80.663 58.196 81.0364 58.7093C81.4097 59.2133 81.5964 59.89 81.5964 60.7393V64.9113H80.6444L80.5464 64.0993H80.5044C80.187 64.3607 79.837 64.5893 79.4544 64.7853C79.081 64.9813 78.6797 65.0793 78.2504 65.0793ZM78.5864 64.1553C78.913 64.1553 79.221 64.076 79.5104 63.9173C79.7997 63.7587 80.1077 63.5347 80.4344 63.2453V61.3553C79.305 61.4953 78.5117 61.7053 78.0544 61.9853C77.6064 62.2653 77.3824 62.6247 77.3824 63.0633C77.3824 63.446 77.499 63.726 77.7324 63.9033C77.9657 64.0713 78.2504 64.1553 78.5864 64.1553ZM83.4571 64.9113V58.1073H84.4091L84.5071 59.0873H84.5491C84.8757 58.7607 85.2211 58.49 85.5851 58.2753C85.9491 58.0513 86.3644 57.9393 86.8311 57.9393C87.5497 57.9393 88.0724 58.168 88.3991 58.6253C88.7351 59.0733 88.9031 59.7313 88.9031 60.5993V64.9113H87.7551V60.7533C87.7551 60.1187 87.6524 59.6567 87.4471 59.3673C87.2417 59.078 86.9151 58.9333 86.4671 58.9333C86.1217 58.9333 85.8091 59.022 85.5291 59.1993C85.2584 59.3767 84.9504 59.638 84.6051 59.9833V64.9113H83.4571ZM93.5213 65.0793C92.924 65.0793 92.3826 64.9393 91.8973 64.6593C91.412 64.3793 91.0293 63.9733 90.7493 63.4413C90.4693 62.9093 90.3293 62.27 90.3293 61.5233C90.3293 60.758 90.4786 60.1093 90.7773 59.5773C91.0853 59.0453 91.4866 58.6393 91.9813 58.3593C92.4853 58.0793 93.0266 57.9393 93.6053 57.9393C94.0533 57.9393 94.436 58.0187 94.7533 58.1773C95.08 58.336 95.36 58.5227 95.5933 58.7373L95.0053 59.4933C94.8093 59.316 94.5993 59.1713 94.3753 59.0593C94.1606 58.9473 93.918 58.8913 93.6473 58.8913C93.2366 58.8913 92.868 59.0033 92.5413 59.2273C92.224 59.442 91.972 59.75 91.7853 60.1513C91.608 60.5433 91.5193 61.0007 91.5193 61.5233C91.5193 62.298 91.7106 62.928 92.0933 63.4133C92.4853 63.8893 92.994 64.1273 93.6193 64.1273C93.9366 64.1273 94.2306 64.062 94.5013 63.9313C94.772 63.7913 95.01 63.628 95.2153 63.4413L95.7193 64.2113C95.4113 64.482 95.0706 64.6967 94.6973 64.8553C94.324 65.0047 93.932 65.0793 93.5213 65.0793ZM99.3953 65.0793C98.7886 65.0793 98.238 64.9393 97.7433 64.6593C97.2486 64.37 96.8566 63.9593 96.5673 63.4273C96.278 62.8953 96.1333 62.2607 96.1333 61.5233C96.1333 60.7767 96.278 60.1373 96.5673 59.6053C96.866 59.0733 97.2486 58.6627 97.7153 58.3733C98.182 58.084 98.672 57.9393 99.1853 57.9393C100.053 57.9393 100.721 58.2287 101.187 58.8073C101.663 59.386 101.901 60.1607 101.901 61.1313C101.901 61.2527 101.897 61.374 101.887 61.4953C101.887 61.6073 101.878 61.7053 101.859 61.7893H97.2673C97.314 62.508 97.538 63.082 97.9393 63.5113C98.35 63.9407 98.882 64.1553 99.5353 64.1553C99.862 64.1553 100.161 64.1087 100.431 64.0153C100.711 63.9127 100.977 63.782 101.229 63.6233L101.635 64.3793C101.346 64.566 101.015 64.7293 100.641 64.8693C100.277 65.0093 99.862 65.0793 99.3953 65.0793ZM97.2533 60.9633H100.893C100.893 60.2727 100.744 59.75 100.445 59.3953C100.156 59.0313 99.7453 58.8493 99.2133 58.8493C98.7373 58.8493 98.308 59.036 97.9253 59.4093C97.552 59.7733 97.328 60.2913 97.2533 60.9633Z" fill="#0B0B0B"/>
<defs>
<clipPath id="clip0_502_243">
<rect width="100" height="33.9113" fill="white"/>
</clipPath>
</defs>
</svg>
