<svg width="104" height="35" viewBox="0 0 104 35" fill="none" xmlns="http://www.w3.org/2000/svg">
<g clip-path="url(#clip0_502_231)">
<path d="M31.8073 30.2229C30.3166 30.2229 29.2772 29.7814 28.6892 28.9005C28.121 27.9977 27.8359 26.8118 27.8359 25.3409V9.25342H32.1597V25.5171C32.1597 25.9684 32.2389 26.2812 32.3953 26.4574C32.5715 26.6336 32.7477 26.7227 32.9259 26.7227H33.1615C33.2407 26.7029 33.3377 26.6831 33.4564 26.6633L33.985 29.8686C33.7495 29.9656 33.4465 30.0448 33.0724 30.1041C32.72 30.1833 32.2983 30.2229 31.8073 30.2229Z" fill="white"/>
<path d="M39.0476 30.2229C37.5568 30.2229 36.5174 29.7814 35.9294 28.9005C35.3613 27.9977 35.0762 26.8118 35.0762 25.3409V9.25342H39.3999V25.5171C39.3999 25.9684 39.4791 26.2812 39.6355 26.4574C39.8117 26.6336 39.9879 26.7227 40.1641 26.7227H40.3997C40.4789 26.7029 40.5759 26.6831 40.6947 26.6633L41.2233 29.8686C40.9877 29.9656 40.6848 30.0448 40.3106 30.1041C39.9582 30.1833 39.5365 30.2229 39.0456 30.2229H39.0476Z" fill="white"/>
<path d="M42.3145 29.8705V15.2817H46.6383V29.8685H42.3145V29.8705ZM44.4625 13.1356C43.7359 13.1356 43.148 12.9297 42.6986 12.5179C42.2472 12.1062 42.0215 11.5578 42.0215 10.8708C42.0215 10.1838 42.2472 9.63543 42.6986 9.22364C43.1499 8.81185 43.7379 8.60596 44.4625 8.60596C45.1871 8.60596 45.7751 8.81185 46.2265 9.22364C46.6779 9.63543 46.9035 10.1838 46.9035 10.8708C46.9035 11.5578 46.6779 12.1062 46.2265 12.5179C45.7751 12.9297 45.1871 13.1356 44.4625 13.1356Z" fill="white"/>
<path d="M52.9452 30.2228C51.6129 30.2228 50.5537 29.8011 49.7697 28.9577C48.9857 28.0945 48.5938 27.0453 48.5938 25.8099C48.5938 24.2815 49.2411 23.0838 50.5359 22.2226C51.8306 21.3594 53.9193 20.7813 56.7998 20.4883C56.7602 19.841 56.5642 19.3322 56.2118 18.958C55.8792 18.566 55.3091 18.37 54.5053 18.37C53.8975 18.37 53.2798 18.4868 52.6522 18.7224C52.0247 18.958 51.3575 19.2807 50.6527 19.6925L49.0946 16.8397C50.0152 16.2715 50.9972 15.8102 52.0365 15.4578C53.0957 15.1054 54.1925 14.9292 55.3308 14.9292C57.1938 14.9292 58.6251 15.4677 59.6249 16.5467C60.6247 17.6256 61.1256 19.2827 61.1256 21.5178V29.8704H57.5957L57.3007 28.3697H57.1819C56.5741 28.9181 55.9168 29.3695 55.2121 29.7219C54.5251 30.0545 53.7708 30.2228 52.9472 30.2228H52.9452ZM54.4162 26.8691C54.9072 26.8691 55.3289 26.7622 55.6813 26.5464C56.0534 26.3108 56.4256 26.0079 56.7978 25.6357V23.0759C55.2675 23.2719 54.2103 23.5866 53.6223 24.0162C53.0343 24.428 52.7393 24.919 52.7393 25.4872C52.7393 25.9584 52.8858 26.3108 53.1808 26.5464C53.4936 26.7622 53.9054 26.8691 54.4162 26.8691Z" fill="white"/>
<path d="M63.6016 29.8704V15.2816H67.1315L67.4264 17.1346H67.5432C68.1708 16.5467 68.8578 16.0359 69.6022 15.6063C70.3664 15.1549 71.2394 14.9292 72.2194 14.9292C73.8072 14.9292 74.9554 15.4578 75.6602 16.517C76.3848 17.5563 76.7491 18.9877 76.7491 20.811V29.8704H72.4253V21.3713C72.4253 20.3121 72.2788 19.5876 71.9838 19.1956C71.7086 18.8036 71.2592 18.6076 70.6317 18.6076C70.0833 18.6076 69.6121 18.7343 69.2201 18.9897C68.8281 19.2253 68.3965 19.5678 67.9253 20.0191V29.8724H63.6016V29.8704Z" fill="white"/>
<path d="M85.6086 30.2228C84.2564 30.2228 83.031 29.9278 81.9322 29.3398C80.8532 28.732 79.9921 27.859 79.3447 26.7226C78.7171 25.5664 78.4043 24.1826 78.4043 22.575C78.4043 20.9675 78.7567 19.5658 79.4635 18.4274C80.1702 17.2911 81.1007 16.4279 82.2569 15.8399C83.4131 15.2321 84.6583 14.9272 85.9927 14.9272C86.8954 14.9272 87.6893 15.0737 88.3743 15.3687C89.0811 15.6637 89.7067 16.0359 90.2571 16.4873L88.2278 19.2807C87.5408 18.7125 86.8855 18.4274 86.258 18.4274C85.2186 18.4274 84.3851 18.7996 83.7575 19.546C83.1498 20.2904 82.8449 21.3001 82.8449 22.575C82.8449 23.85 83.1498 24.8399 83.7575 25.604C84.3851 26.3484 85.1691 26.7226 86.1095 26.7226C86.5807 26.7226 87.04 26.6236 87.4913 26.4276C87.9427 26.2118 88.3545 25.9564 88.7267 25.6634L90.4333 28.4866C89.7067 29.1141 88.9227 29.5655 88.0793 29.8387C87.236 30.0941 86.4124 30.2208 85.6086 30.2208V30.2228Z" fill="white"/>
<path d="M97.5055 30.2228C96.1137 30.2228 94.8586 29.9179 93.742 29.3101C92.6234 28.7023 91.7425 27.8292 91.0951 26.6929C90.4477 25.5565 90.125 24.1825 90.125 22.575C90.125 20.9674 90.4477 19.6232 91.0951 18.4868C91.7623 17.3504 92.6254 16.4774 93.6826 15.8696C94.7418 15.242 95.8485 14.9292 97.0066 14.9292C98.3984 14.9292 99.5446 15.242 100.447 15.8696C101.368 16.4774 102.055 17.3108 102.506 18.37C102.978 19.4094 103.213 20.5952 103.213 21.9296C103.213 22.3018 103.193 22.674 103.154 23.0482C103.114 23.4005 103.075 23.6658 103.037 23.842H94.3023C94.4983 24.9012 94.9398 25.6852 95.6247 26.194C96.3117 26.685 97.1353 26.9285 98.0955 26.9285C99.1348 26.9285 100.184 26.6058 101.241 25.9584L102.683 28.5756C101.938 29.0844 101.105 29.4883 100.182 29.7813C99.2615 30.0763 98.3687 30.2228 97.5055 30.2228ZM94.2706 20.9872H99.5348C99.5348 20.1835 99.3388 19.5262 98.9468 19.0174C98.5746 18.4888 97.9569 18.2235 97.0937 18.2235C96.4265 18.2235 95.8287 18.4591 95.3001 18.9303C94.7715 19.3817 94.427 20.0666 94.2706 20.9892V20.9872Z" fill="white"/>
<path fill-rule="evenodd" clip-rule="evenodd" d="M19.6787 13.5395C18.1028 15.2144 16.8377 16.9506 15.9607 18.6275C15.1312 20.2093 14.7332 21.8426 14.757 23.0779C14.7808 24.3727 15.2044 24.6697 15.3489 24.735C15.7984 24.9369 16.4517 24.9607 17.2812 24.3925C18.1384 23.8045 19.1362 22.579 19.837 20.4706C20.7022 17.8692 20.431 15.4381 19.6806 13.5375L19.6787 13.5395ZM16.9525 10.0749C14.9015 12.1735 13.2445 14.4027 12.0923 16.6022C10.9994 18.6888 10.3521 21.0447 10.3917 23.1611C10.4312 25.22 11.1796 27.6432 13.5513 28.7143C15.6182 29.6487 17.885 29.2746 19.7499 27.9917C21.5871 26.7306 23.0601 24.6043 23.9767 21.8485C25.2299 18.0791 24.8023 14.5116 23.658 11.7379C23.4758 11.2965 23.2719 10.8649 23.0462 10.4491C26.4771 7.71904 30.7296 5.42452 35.3919 4.23073L34.313 0C29.0607 1.34425 24.24 3.91793 20.3142 7.04395C19.7519 6.59257 19.16 6.23819 18.5502 6.00854C16.0042 5.05034 13.193 5.5235 10.6094 7.27558C8.06743 8.99796 5.69569 11.9715 3.67634 16.2161C2.15589 19.4095 1.2848 23.5551 0.787887 26.7603C0.536459 28.3896 0.37214 29.8309 0.271172 30.8663C0.221679 31.385 0.186043 31.8027 0.164266 32.0937C0.152387 32.2402 0.144469 32.3531 0.140509 32.4323C0.138529 32.4719 0.13655 32.5016 0.13457 32.5233V32.559H0.13259L0.00390625 34.7387L4.36134 34.998L4.49002 32.8203V32.8005C4.492 32.7847 4.49398 32.7609 4.49596 32.7272C4.49992 32.6599 4.50784 32.559 4.51774 32.4283C4.53753 32.163 4.56921 31.775 4.61672 31.2899C4.71175 30.3179 4.86419 28.9598 5.10176 27.4294C5.58482 24.3133 6.38068 20.6904 7.61802 18.0929C9.43544 14.274 11.3736 12.0329 13.0604 10.8906C14.6739 9.79778 15.9884 9.73245 16.9565 10.0749H16.9525Z" fill="white"/>
</g>
<defs>
<clipPath id="clip0_502_231">
<rect width="103.21" height="35" fill="white"/>
</clipPath>
</defs>
</svg>
