<svg width="600" height="200" viewBox="0 0 600 200" fill="none" xmlns="http://www.w3.org/2000/svg">
<g clip-path="url(#clip0_595_1749)">
<path d="M49.8 112.1L49 113.6L47.8 113.7L47 115.7L46 117.8V120.8H41.5L40.8 121.2L38.8 121.1L37.5 119.8L36 120L34.7 120.5L33 120.3L32.5 121.1L32.1 123.1L32 125.8L33 126.7L32.9 129.4L35 131.3L35.2 128.3L37.3 129.4L37.5 128L38.8 128.9L38.9 130.2L40.2 130.4L42 132.1L42.9 134L45.2 134.8L45.5 135.9L49.8 139L55.6 139.7L57.2 141.6L60.1 141L61.9 140.6L64.9 140.4L65.4 138.7L63.6 134.6L60.7 130.7L60.6 127.8L60.5 126.3L59 124.7L59.1 122.8L59.9 121.5L59.5 119.8L58.2 120.1L58.3 116.8L56.3 113.2L56.5 112.1L55.7 110.9L56.3 109.8L57.7 109.6L58.1 107.7L59.8 107.2L59.9 105.4L59.3 104.5L60 102.8L61.5 102L62.7 102.2L62.8 104.9L63.4 105.3L62.8 105.9L63.2 106.9L63.1 108.3L62.4 109.2L63.3 112.5L64.2 110.8L64.9 111.1L65.9 112.1L69.1 112.4V113.5L70.3 113.2L70.8 114.4L71.8 115.1L72.6 115.3L72.4 116.6L73.3 115.3L73.4 117.5L74.6 118.4L74.7 116.6L75.5 116.3L75.6 114.6L77.2 113.5L77.3 112.2L79.1 112.6L79.7 110.3L81.1 108.4L81.8 106.7L83.1 107.2L83 108.5L82.3 109.1L83.1 109.9L81.9 110.5L80.9 110.9L81 111.8L80.6 112.4L79.7 113.1L79.3 114.5L78.3 115.4C78.3 115.4 79.7 116.2 80 116.1C80.4 116 83 115.9 83 115.9L83.3 114.8L84.3 114.4L85.9 114.2L86.4 111.5L87.5 109.7L86 108.1L85.5 108.2L85.1 108.9L85.2 106.7L84.2 105.8L84.3 104.3L83.1 103.5L82.9 104.6L82.4 105.1L81.8 104.6L82.6 103.1L82.5 102.4L81.7 102.6L80.5 103L80.4 102L81 102.1L82.1 101.7L81.8 100.1L84.5 99.8999L85.9 98.5999V96.7999L86.7 96.5999V95.8999L86 95.7L85.9 94.7L86.8 94.0999L88.5 93.3999V92.7L85.1 93.3999L84.2 93.2L84.4 91.7L83.8 91.8999L82.8 93.2L82.4 94.4999L80.5 95.5999L78.8 95.3999L78.3 93.9999H77.3L76.8 95.2H75.1L72.4 93.5999L69.7 92.9999L68 93.7999L65.1 94.3999L62.9 95.7999L62.4 96.2999L63.2 96.5999L64.8 96.0999L66.4 95.7L67.1 95.9999L66.8 96.5999L65.4 96.7L62.2 97.3999L60.4 97.5999L59.5 98.9999L59.2 99.9999L58 101L58.3 102.8L57.8 104.1L57.2 105L57 106L56.4 106.6L56.3 107.8L55.2 107.4V109.8L54.5 111.4L54.8 112.5L54.1 113.2L52.4 113L50.9 112.1H49.8Z" fill="#003869"/>
<path d="M60.8 109.3L59.9 108.8L59.7 110.3L60.2 111.6L59.1 112.3V114.2L59.8 115.8L60.5 118.4L60.8 116L61.5 114.3L60.3 114.7L60.4 113.3L61.1 111.6L60.4 110.1L60.8 109.3Z" fill="#003869"/>
<path d="M61.4 112.2L61.1 113.2L62 113.8L61.7 113L61.4 112.2Z" fill="#003869"/>
<path d="M37.3 135L37.5 136.6L38.3 137.3V138L39.2001 138.2L39.1 136.9L38.5 135.5L37.3 135Z" fill="#003869"/>
<path d="M50.3 154.1L51.5 154.2L51.6 154.8L52.5 155.7L51.5 156.9L50.3 155V154.1Z" fill="#003869"/>
<path d="M118.7 136.7L119.1 136.1L119.8 136.3L121.1 137.9L121 139L121.5 139.3V142.6L120.7 143.1L119.3 143.9L118.4 144L118.5 141.7L117.9 141.1L118 139.5L119.1 138.7L119 137.2L118.3 136.7H118.7Z" fill="#003869"/>
<path d="M104.2 129.9L100.8 129.7L103.4 130.9L106.6 132.7L111 131.9L111.4 129.9L112.5 129.3L113.1 131.4V134.1L113.4 136.3L112.3 138.1L112.2 139.5L114.1 140.7L115 142.3L114.9 144.2L113.5 145.5L113.3 148.8L112.7 149.7L112.3 152L109.6 154.7L107.7 155.6L106.6 156.8L104.8 156.7L103.7 158.1L101.5 157.2L99.5 155.7L99 154L97.6 153.9L95.8 151L96.5 149.3L95.3 146.8L92.9 145.6L90.7 143.3L86.3 142.9L85.5 142L81.7 142.1L79.8 140.9L80 139.8L78 137.4L78.8 136.2L79.5 133.7L82.3 132.5L83.3 131L84.5 130.8L85.3 130.4L87.2 130.7L88.1 130L91.3 129.7L92.2 130.3L96.2 129.3L96.8 128.8L98.2 129.2L99.5 128L100.8 127.5L102 126.6L101.5 126.1H99.8L98.2 127.4H97L96.6 125.9L98.9 124.3L100.9 124.2L101.3 123L99.2 122.4L98.1 122.1L97.4 122.8L97.8 123.3L97.3 123.6L96 123.1V124.2L95.8 125.4L96 126L95.6 126.5L96 127.1L95.1 127.7L95 127.2L95.1 126.6L94.1 126L92.9 125.2C92.9 125.2 91.3 124.9 91.2 125.3C91.2 125.7 91.5 126.4 91.5 126.4L92.9 127.3L93.8 127.6L93.9 128.2L93.4 127.8L93 128.3L92.6 129.1L92.3 128.6L92.2 127.6L91.1 127.2L89.7 127.1L87.9 127L87.8 128.9L87.1 129.5L85.4 129.8L84.8 129.9L84.2 129.3L83.6 128.7L83.9 127.6L84.2 127.2L85 126.9L86.4 126.8L87 125.9L85.7 125.1L86.7 124.2L88.2 123.8L88.5 122.2L89.2 121.9V122.4L88.8 122.6L88.9 122.9L90.9 122.5L91.9 122.1L92.1 120.7L94.1 119.8L94 119.1L92.9 118.9L92.4 117.5H91.7L91.1 118.2L91.2 119.7L90.2 121.4H89.4V120.4L88.2 121.5L88.3 120.1L88.5 118.8L90 117.6L90.7 114.7L91.7 114H93.4L94.1 113.5L93.8 112.3L93.9 111.1L94.3 110.6L94.5 109.7L93.6 109.5V108.8L94.2 108.2L93.7 106.8L91.6 106.5L91.7 105.9L92.4 105.4L93.6 105L93 103.5V101.9L91.9 101.8L91.1 101.1L91.5 100.5L91.9 98.8999L89.9 98.7999L89.3 99.0999L87.1 97.3999L86.4 96.2L87 95.2999L88.6 94.8999L89.1 94.0999L87.9 93.3999L88.2 92.7L89.1 93.2L91.4 93.4999L92.3 92.2999L92.2 91.0999L94.6 90.7999C94.6 90.7999 94.7 91.4999 94.9 91.3999C95.1 91.1999 94.4 92.2999 94.4 92.2999L93.2 93.4999L93.9 94.2L94.1 94.5999L95 94.8999L95.1 95.5999L96.4 95.2L97.2 94.9999C97.2 94.9999 96.9 92.4999 97.4 92.4999C97.8 92.4999 99.5 92.2 99.5 92.2L101.3 92.3999L102 93.5999L104.3 93.7L104 91.7L105.6 91.2999L107.7 91.5999L105.9 92.7999L104.7 94.8999L105.6 95.4999L105.7 96.2999L106.4 94.3999L106.3 93.7L107.1 93.3999L107.5 94.9999L108.4 93.5999L108 92.8999L108.9 92.3999L109.9 93.2L111.1 93.5999L112.7 93.4999L113.9 95.2999V95.7999L115.3 96.2L115.5 97.7L116.3 97.2L117.5 96.2L118.5 96.4999L119.9 98.2999L119.6 101.1L121.3 100.9L121.4 99.4999L122.1 99.2999L122.4 98.7L122.9 98.3999L123.3 97.4999L123.6 99.5999L123 100.1L122.6 100.7L122.3 101.6L121.1 101.9L118.9 102L118.3 103.6L118.4 104.7L117.3 105.9L117.1 106.7L115.7 107.9L115.8 108.7L116.7 109.1L117.1 110.3L117.6 110.4L118 111.3L118.2 113.3L118.9 113.5L119 114.2L119.9 114.5L120.5 115.8L119.9 116.3L118.6 116.4L116.2 117.5L115.5 117L114.3 116.8V117.8H112.5L110.8 119.8L109.6 122L108.4 121.9L107.8 123.1L105.9 123.6V124.5L106.7 125L107.9 124.9L108.9 123L111.2 122.4L111.8 124.7L110.4 126.7V128.5L109.7 130.4L109.4 130.9L109 130.6L107.6 131L106.1 130.3L105.6 130.8L104.2 129.9Z" fill="#003869"/>
<path d="M114.2 126.2L113.6 126.9L113.7 128.1L114.2 128.6L114.7 128.2L114.6 126.9L114.8 126.6L114.2 126.2Z" fill="#003869"/>
<path d="M120.5 114.1L121 113.1L122.3 113.2L122.4 113.8C122.4 113.8 123.4 113.7 123.3 113.8C123.2 114 123.2 114.4 123.2 114.4L122.7 115.2L122.2 115.1L120.5 114.1Z" fill="#003869"/>
<path d="M123.4 105.8L123.5 102.3L124.6 102.1L125 100L124.5 98.3L125.6 97L125 95.2L123.6 94.5L121.6 94.7L121.4 92.7L119.7 91.7L119.8 90.8L120.7 91L119.4 90.2L120.6 90L120.8 88.3L119.1 87.4L118.7 85.4L116.9 85.7L116.7 85.1L117.1 84.9L117.3 83.6L115.9 82.7L115.8 80.9L113.7 79.5L113.4 77.7L112.7 77.1L111.9 76.9L111.1 75.4L111.6 74.6L111.2 73.7L109.4 73.2L110.3 71.9L108.8 70.4V70L111.3 70.3L111.6 70.9V72.9L112.8 73.7L114.4 74.3L116.3 76.8H115.3H114.7L116 78.7L116.4 79.6L117.5 79.8L117.7 80.8L117.6 82L118.5 82.2L119.5 83.6L120.5 84.6L121.4 86.8L121.9 86.5L124.1 91.9L125.3 91C125.3 91 124.6 90.2 124.7 89.8C124.8 89.4 123.9 88.2 124.1 88.3C124.3 88.3 124.8 88.1 124.8 88.1C124.8 88.1 125.7 89 125.6 89.3C125.5 89.5 126.1 90.6 126.1 90.6L126.3 93.4L126.8 94.9L126.6 97.4L126 98.2L126.3 99.1L126.1 102.3L125.2 102.9L124 105.6L123.4 105.8Z" fill="#003869"/>
<path d="M121.2 82.3999L122.1 82.5999L122.7 83.5999L122.6 84.7999C122.6 84.7999 122.1 84.8999 122 84.5999C121.9 84.3999 121.6 83.7999 121.6 83.7999C121.6 83.7999 121 83.5999 121 83.3999C121.1 83.0999 121.2 82.3999 121.2 82.3999Z" fill="#003869"/>
<path d="M123.1 84.8999L123.7 85.1999L124.1 85.7999L123.8 87.4999L123.2 87.2999L123.1 86.3999L122.6 85.9999L123.1 84.8999Z" fill="#003869"/>
<path d="M96.9 91.2L98.1 91.4L98.6 91.2L99.4 91.4L99.7 92.4L101.8 90.7L103.7 90.1C103.7 90.1 105.3 91.3 105.5 91.3C105.7 91.3 106.6 91.4 106.6 91.4L109.6 91.3L107.4 89.6L106 89.5L105.6 89.8V89.1L103.6 88.6L102.5 88.9L102.2 89.7L100.9 90.5L99.3 90.3L99 89.8L98.5 89.7L98.4 90.3L97.7 90.2L97.6 90.8L96.9 90.9V91.2Z" fill="#003869"/>
<path d="M110.6 92.3999L111.1 91.8999H112.3L112.6 92.4999L112 93.1999H111.2L111.1 92.8999L110.6 92.3999Z" fill="#003869"/>
<path d="M113.2 92.7999L113.6 91.5999L114.2 91.2999V90.2L114.7 89.7V88.8999L114.3 88.7L115.5 87.9999L115 87.2999L116.3 86.7L116.8 86.7999L117 88.7999H115.9L116.1 89.7999L115.6 89.8999L115.5 91.0999L116.2 90.4999L117 90.5999L118.1 90.8999L117.8 91.8999L115.5 91.7L115.6 92.2999L114.8 92.7L113.2 92.7999Z" fill="#003869"/>
<path d="M100.9 64.6C100.8 64.8 100.8 65.9 100.8 65.9L102.8 68.8L104.2 68.9L104.6 69.3H105.8L104.8 67.9L103.7 67.5L102.7 65.7L101.3 65.1V64.6H100.9Z" fill="#003869"/>
<path d="M106.4 70.3999V71.3999L107.1 71.9999L109.1 71.8999L108.5 70.9999L107.5 70.7999L107.3 70.2999L106.4 70.3999Z" fill="#003869"/>
<path d="M120.5 63.4999L119.2 63.3999L118.6 62.7L117.2 63.0999L115.6 63.2999L115.4 63.9999L113.5 64.9999V65.7L114.6 66.5999L116 67.5999L116.2 69.2999L117.1 70.8999L116.1 71.9999L117.5 72.8999L117.6 74.2999L119 73.8999L121.1 74.8999L120.9 75.9999L120.4 77.2L122.4 79.9999L123.3 79.7L123.8 80.2999L124.4 79.9999L124.6 81.2999C124.6 81.2999 124.7 82.2 125.1 82.2C125.4 82.3 126.6 82.2999 126.6 82.2999V82.7L128.2 83.2C128.2 83.2 128.3 83.6999 128.3 83.9999C128.3 84.2999 128.9 84.2999 128.9 84.2999L130 85.2L130.6 86.7999C130.6 86.7999 131.4 87.2999 131.7 87.3999C132 87.3999 132.8 87.3999 132.8 87.3999L133.3 86.2L135 85.3999L134.9 84.0999L133.6 81.2999L129.4 75.3999L128.6 73.8999L125.8 70.9999L126.4 69.8999L126 69.3999H125.2C125.2 69.3999 124.9 67.9999 124.9 67.8999C124.9 67.6999 123.4 65.7999 123.4 65.7999L123.2 64.7L122.7 64.7999L122.2 65.2L121.8 64.9999L121 64.7999L120.5 63.4999Z" fill="#003869"/>
<path d="M116.8 58.8999L118.6 59.5999L119.3 60.7999L120.3 60.8999L119.8 60.4999L119.9 58.7999L119.4 58.2999L117.1 58.3999L116.8 58.8999Z" fill="#003869"/>
<path d="M146.9 115C146.9 115 145.9 115.8 145.9 116C145.9 116.2 145.9 116.9 145.9 116.9L146.7 116.8L147.1 116.4L146.9 115Z" fill="#003869"/>
<path d="M140.5 120.7L140.3 121.1L139.4 121.2V123.2L140.3 122.6L140.6 122L141.1 121.8L141.2 121.1L140.7 121.3L140.5 120.7Z" fill="#003869"/>
<path d="M142.1 129.6L141.4 129.5L141.1 130.1H140.5L140.3 130.8L139.9 131.1L140 131.9L140.9 131.8L142 130.7L142.1 129.6Z" fill="#003869"/>
<path d="M143.9 128.3L143.2 127.9L142.9 129.2L143.5 129.7L143.9 128.3Z" fill="#003869"/>
<path d="M144.3 126.5L144.8 126.7L144.1 127.4L143.9 127.2L144.3 126.5Z" fill="#003869"/>
<path d="M86.8 121.9L86.6 122L86.4 122.6L86.7 122.7L86.4 123.1L86.3 124L86 124.5L86.6 124.4L87.1 124.1L87.4 124L87.1 123.7L87.2 123L87.1 122.6V121.9H86.8Z" fill="#003869"/>
<path d="M86.2 123.1V123.5L86 124L85.7 123.8L85.8 123.3L86.2 123.1Z" fill="#003869"/>
<path d="M102.7 120.6C102.7 120.6 102.1 121.2 102.4 121.2C102.6 121.2 103 121.6 103 121.6H103.9L104 122.6L104.8 122.3L105.4 122.2L106 121L105.4 120.4L103.8 120.5L102.7 120.4V120.6Z" fill="#003869"/>
<path d="M100.6 118.9H101.6L102.8 119.5L102.5 120.1L101.3 120L101 119.4L100.6 118.9Z" fill="#003869"/>
<path d="M75.3 104.1L76 104.3L76.3 105.4L76.2 106L76.7 106.3V108.7L75.6 108.9L75.3 108.2L75.8 107.5L75.7 106.1L75 107.1L73.3 108L73.7 106.8L74.6 106.4L75.5 105.6L75.1 104.7L73.7 104.3L74 103.6L75.3 104.1Z" fill="#003869"/>
<path d="M89.3 184C104.6 190.5 110.7 195.9 110.5 199.5C110.4 201.8 104.1 194.5 100.4 192C96.1 188.7 91.6 185.8 87 184.9C82.6 184.1 49.9 197.1 34.1 185.8C50.7 184.7 72 176.6 89.3 184Z" fill="#003869"/>
<path d="M20.9 73.5999C20.9 74.1999 19.2 76.6999 19.3 76.3999C25.6 66.7999 28.7 68.6 35.5 62.7C34.4 73.5 22.1 80.1999 16.1 84.7999C13.3 68.7999 16.7 54.9 25 42.7C22.9 54.9 22.2 55.6999 20.9 73.5999Z" fill="#003869"/>
<path d="M23.4 68.9999C24.1 57.8999 31.4 50.8999 40 46.3999C37.5 53.5999 33.6 63.1999 23.4 68.9999Z" fill="#003869"/>
<path d="M13.5 95.7C15.7 89.9 21.4 82.9999 27.5 79.7999C26.7 91.0999 16.7 98.8999 11.5 108.9C5.40004 94.5999 2.60004 75.1999 11.4 61.2999C11.4 72.1999 14.7 86.7 13.5 95.7Z" fill="#003869"/>
<path d="M12.3 115.9C14.2 109.7 15.9 104.1 20.8 99.2C24.1 108.4 18.1 118.8 14.2 127.2C4.60004 116.4 -1.79996 104.9 1.00004 87.7C4.80004 97.4 7.40004 107 12.3 115.9Z" fill="#003869"/>
<path d="M17.7 139C17.6 127.7 18.7 123.2 22 116.5C27.3 127.6 24.1 140.1 23.3 151.9C8.4 141.7 1.7 130.8 0 113.6C6.2 123.2 13.9 129.5 17.7 139Z" fill="#003869"/>
<path d="M39.4 170.4C28.9 168.5 17 165 12 154.2L6.69995 140.5C12.5 149.3 18.7999 150.5 28.5999 160.4C25.0999 147.4 27.8 144.5 26.7 135.9C35.8 144.8 36.1 158.5 39.4 170.4Z" fill="#003869"/>
<path d="M59.3 180.1C50.4 179.6 41.3 184.7 33.3 180.1C28.6 177.4 24.2 172.6 20.9 168.2C27 172.2 39.4 170.5 46.9 175.3C39.8 169.4 43.1 161 38.1 152.4C38.1 152.2 38.1 152.2 38.1 152.2C50 157.2 50.1 176.5 59.3 180.1Z" fill="#003869"/>
<path d="M93.4 184C78 190.5 72 195.8 72.2 199.5C72.3 201.8 78.6 194.5 82.3 192C86.6 188.7 91.1 185.8 95.7 184.9C100.1 184.1 132.8 197.1 148.6 185.8C131.9 184.7 110.6 176.6 93.4 184Z" fill="#003869"/>
<path d="M161.8 73.5999C161.8 74.1999 163.5 76.6999 163.4 76.3999C157.1 66.7999 154 68.6 147.2 62.7C148.3 73.5 160.6 80.1999 166.6 84.7999C169.4 68.7999 166 54.9 157.7 42.7C159.8 54.9 160.5 55.6999 161.8 73.5999Z" fill="#003869"/>
<path d="M159.3 68.9999C158.6 57.8999 151.3 50.8999 142.7 46.3999C145.2 53.5999 149.1 63.1999 159.3 68.9999Z" fill="#003869"/>
<path d="M169.2 95.7C167 89.9 161.3 82.9999 155.2 79.7999C156 91.0999 166 98.8999 171.2 108.9C177.3 94.5999 180.1 75.1999 171.3 61.2999C171.3 72.1999 168 86.7 169.2 95.7Z" fill="#003869"/>
<path d="M170.4 115.9C168.5 109.7 166.8 104.1 161.9 99.2C158.6 108.4 164.6 118.8 168.5 127.2C178.2 116.4 184.5 104.9 181.7 87.7C177.9 97.4 175.3 107 170.4 115.9Z" fill="#003869"/>
<path d="M165 139C165.1 127.7 164 123.2 160.7 116.5C155.4 127.6 158.6 140.1 159.4 151.9C174.3 141.7 181 130.8 182.7 113.6C176.5 123.2 168.8 129.5 165 139Z" fill="#003869"/>
<path d="M143.3 170.4C153.8 168.5 165.7 165 170.7 154.2L176 140.5C170.2 149.3 163.9 150.5 154.1 160.4C157.6 147.4 154.9 144.5 156 135.9C146.9 144.8 146.6 158.5 143.3 170.4Z" fill="#003869"/>
<path d="M123.4 180.1C132.3 179.6 141.4 184.7 149.4 180.1C154.1 177.4 158.5 172.6 161.8 168.2C155.7 172.2 143.3 170.5 135.8 175.3C142.9 169.4 139.6 161 144.6 152.4C144.6 152.2 144.6 152.2 144.6 152.2C132.7 157.2 132.6 176.5 123.4 180.1Z" fill="#003869"/>
<path d="M91.3 45.2C56 45.2 27.2 73.8999 27.2 109.3C27.2 144.6 55.9 173.4 91.3 173.4C126.7 173.4 155.4 144.7 155.4 109.3C155.4 73.8999 126.6 45.2 91.3 45.2ZM91.3 122.6C84 122.6 78 116.6 78 109.3C78 102 84 95.9999 91.3 95.9999C98.6 95.9999 104.6 102 104.6 109.3C104.6 116.6 98.7 122.6 91.3 122.6ZM101.1 98.5999C98.5999 96.2999 95.3999 94.8999 91.8999 94.7999V83.4999C98.5999 83.5999 104.6 86.2999 109.1 90.5999L101.1 98.5999ZM90.6999 94.7999C87.0999 94.8999 83.9 96.3999 81.5 98.5999L73.5 90.7C78 86.4 83.9999 83.6999 90.6999 83.5999V94.7999ZM80.6999 99.3999C78.3999 101.9 77 105.1 76.9 108.6H65.5999C65.6999 101.9 68.3999 95.8999 72.6999 91.3999L80.6999 99.3999ZM76.9 109.8C77 113.4 78.4999 116.6 80.6999 119L72.6999 127C68.3999 122.5 65.6999 116.5 65.5999 109.8H76.9ZM81.5 119.9C83.9 122.2 87.1999 123.6 90.6999 123.7V135C83.9999 134.9 78 132.2 73.5 127.9L81.5 119.9ZM91.8999 123.7C95.4999 123.6 98.6999 122.1 101.1 119.9L109 127.9C104.5 132.2 98.5 134.9 91.8 135V123.7H91.8999ZM101.9 119.1C104.2 116.7 105.6 113.4 105.7 109.9H117C116.9 116.6 114.2 122.6 109.9 127.1L101.9 119.1ZM105.8 108.7C105.7 105.1 104.2 101.9 102 99.4999L110 91.4999C114.3 95.9999 117 102 117.1 108.7H105.8ZM109.9 89.8999C105.2 85.3999 98.8999 82.5999 91.8999 82.3999V71.0999C102 71.1999 111.1 75.2999 117.9 81.8999L109.9 89.8999ZM90.6999 82.3999C83.6999 82.4999 77.3999 85.3999 72.6999 89.8999L64.6999 81.8999C71.3999 75.3999 80.5999 71.2999 90.6999 71.0999V82.3999ZM71.9 90.7C67.4 95.4 64.6 101.7 64.4 108.7H53.1999C53.2999 98.6 57.4 89.5 64 82.7L71.9 90.7ZM64.5 109.8C64.6 116.8 67.5 123.1 72 127.8L64.0999 135.8C57.5999 129.1 53.5 119.9 53.3 109.8H64.5ZM72.6999 128.6C77.3999 133.1 83.6999 135.9 90.6999 136.1V147.4C80.5999 147.3 71.4999 143.2 64.6999 136.6L72.6999 128.6ZM91.8999 136.1C98.8999 136 105.2 133.1 109.9 128.6L117.9 136.6C111.2 143.1 102 147.2 91.8999 147.4V136.1ZM110.7 127.8C115.2 123.1 118 116.8 118.2 109.8H129.5C129.4 119.9 125.3 129 118.7 135.8L110.7 127.8ZM118.2 108.7C118.1 101.7 115.2 95.4 110.7 90.7L118.7 82.7C125.2 89.4 129.3 98.6 129.5 108.7H118.2ZM118.6 81.0999C111.7 74.2999 102.2 70.0999 91.8 69.9999V58.7C105.3 58.9 117.5 64.2999 126.5 73.0999L118.6 81.0999ZM90.6999 69.9999C80.2999 70.0999 70.9 74.3999 63.9 81.0999L55.9 73.0999C64.9 64.2999 77.0999 58.8 90.5999 58.7V69.9999H90.6999ZM63.1999 81.8999C56.4999 88.7999 52.1999 98.3 52.0999 108.7H40.7999C40.8999 95.2 46.3999 82.9999 55.1999 73.9999L63.1999 81.8999ZM52.0999 109.8C52.1999 120.2 56.4999 129.6 63.1999 136.6L55.1999 144.6C46.3999 135.6 40.8999 123.4 40.7999 109.9H52.0999V109.8ZM64 137.4C70.9 144.1 80.4 148.4 90.8 148.5V159.8C77.3 159.7 65.0999 154.2 56.0999 145.4L64 137.4ZM91.8999 148.5C102.3 148.3 111.7 144.1 118.7 137.4L126.7 145.4C117.7 154.2 105.5 159.7 92 159.8V148.5H91.8999ZM119.5 136.6C126.2 129.7 130.5 120.2 130.6 109.8H141.9C141.8 123.3 136.3 135.5 127.5 144.5L119.5 136.6ZM130.6 108.7C130.5 98.3 126.2 88.8999 119.5 81.8999L127.5 73.8999C136.3 82.8999 141.8 95.0999 141.9 108.6H130.6V108.7ZM127.4 72.2999C118.2 63.2999 105.7 57.6999 91.8999 57.5999V46.2999C108.8 46.4999 124.2 53.2999 135.4 64.2999L127.4 72.2999ZM90.6999 57.5999C76.8999 57.6999 64.3999 63.2999 55.1999 72.2999L47.1999 64.2999C58.3999 53.2999 73.7999 46.3999 90.6999 46.2999V57.5999ZM54.4 73.0999C45.4 82.2999 39.8 94.7999 39.7 108.6H28.4C28.5 91.6999 35.4 76.2999 46.4 65.0999L54.4 73.0999ZM39.5999 109.8C39.7999 123.6 45.3 136.1 54.3 145.3L46.3 153.3C35.3 142.1 28.3999 126.7 28.2999 109.8H39.5999ZM55.1999 146.2C64.3999 155.2 76.8999 160.8 90.6999 160.9V172.2C73.7999 172 58.3999 165.2 47.1999 154.2L55.1999 146.2ZM91.8999 160.9C105.7 160.7 118.2 155.1 127.4 146.2L135.4 154.1C124.2 165.1 108.8 172 91.8999 172.1V160.9ZM128.2 145.4C137.2 136.2 142.8 123.7 142.9 109.9H154.2C154.1 126.8 147.2 142.2 136.2 153.4L128.2 145.4ZM143 108.7C142.8 94.9 137.3 82.4 128.3 73.2L136.3 65.2C147.3 76.4 154.2 91.8 154.3 108.7H143Z" fill="#003869"/>
<path d="M91.3 90.7C90.7 90.7 90.2 90.3 90.1 89.8L82.6 59.9L73 65.4C72.5 65.7 71.9 65.6 71.5 65.2C71.1 64.8 71 64.2 71.3 63.7L76.8 54.1L46.9 46.6C46.3 46.5 46 46 46 45.4C46 44.8 46.4 44.3 46.9 44.2L76.8 36.7L71.3 27.1C71 26.6 71.1 26 71.5 25.6C71.9 25.2 72.5 25.1 73 25.4L82.6 30.9L90.1 0.999969C90.2 0.399969 90.7 0.0999756 91.3 0.0999756C91.9 0.0999756 92.4 0.499969 92.5 0.999969L100 30.9L109.6 25.4C110.1 25.1 110.7 25.2 111.1 25.6C111.5 26 111.6 26.6 111.3 27.1L105.8 36.7L135.7 44.2C136.3 44.3 136.6 44.8 136.6 45.4C136.6 46 136.2 46.5 135.7 46.6L105.8 54.1L111.3 63.7C111.6 64.2 111.5 64.8 111.1 65.2C110.7 65.6 110.1 65.7 109.6 65.4L100 59.9L92.5 89.8C92.3 90.3 91.8 90.7 91.3 90.7ZM83.5 57.7L91.3 88.9L99.1 57.7L109.9 63.8L103.8 53L135 45.2L103.8 37.4L109.9 26.6L99.1 32.7L91.3 1.49997L83.5 32.7L72.7 26.6L78.8 37.4L47.6 45.2L78.8 53L72.7 63.8L83.5 57.7Z" fill="#F7A600"/>
<path d="M91.3 90.7C90.7 90.7 90.2 90.3 90.1 89.8L82.6 59.9L73 65.4C72.5 65.7 71.9 65.6 71.5 65.2C71.1 64.8 71 64.2 71.3 63.7L76.8 54.1L46.9 46.6C46.3 46.5 46 46 46 45.4C46 44.8 46.4 44.3 46.9 44.2L76.8 36.7L71.3 27.1C71 26.6 71.1 26 71.5 25.6C71.9 25.2 72.5 25.1 73 25.4L82.6 30.9L90.1 0.999969C90.2 0.399969 90.7 0.0999756 91.3 0.0999756C91.9 0.0999756 92.4 0.499969 92.5 0.999969L100 30.9L109.6 25.4C110.1 25.1 110.7 25.2 111.1 25.6C111.5 26 111.6 26.6 111.3 27.1L105.8 36.7L135.7 44.2C136.3 44.3 136.6 44.8 136.6 45.4C136.6 46 136.2 46.5 135.7 46.6L105.8 54.1L111.3 63.7C111.6 64.2 111.5 64.8 111.1 65.2C110.7 65.6 110.1 65.7 109.6 65.4L100 59.9L92.5 89.8C92.3 90.3 91.8 90.7 91.3 90.7ZM83.5 57.7L91.3 88.9L99.1 57.7L109.9 63.8L103.8 53L135 45.2L103.8 37.4L109.9 26.6L99.1 32.7L91.3 1.49997L83.5 32.7L72.7 26.6L78.8 37.4L47.6 45.2L78.8 53L72.7 63.8L83.5 57.7Z" fill="#F7A600"/>
<path d="M135.5 44.8L104.7 37.1L110.6 26.7C110.7 26.5 110.7 26.2 110.5 26C110.3 25.8 110.1 25.8 109.8 25.9L99.4 31.8L91.7 0.999969C91.6 0.799969 91.4 0.599976 91.2 0.599976C90.9 0.599976 90.7 0.799969 90.7 0.999969L83 31.8L72.6 26C72.4 25.9 72.1 25.9 71.9 26.1C71.7 26.3 71.7 26.6 71.8 26.8L77.7 37.2L47 44.8C46.8 44.9 46.6 45.1 46.6 45.3C46.6 45.5 46.8 45.8 47 45.8L77.8 53.5L71.9 64C71.8 64.2 71.8 64.5 72 64.7C72.2 64.9 72.5 64.9 72.7 64.8L83.1 58.9L90.8 89.7C90.9 89.9 91.1 90.1 91.3 90.1C91.6 90.1 91.8 89.9 91.8 89.7L99.5 58.9L109.9 64.8C110.1 64.9 110.4 64.9 110.6 64.7C110.8 64.5 110.8 64.3 110.7 64L104.8 53.6L135.6 45.9C135.8 45.8 136 45.6 136 45.4C136 45.2 135.8 44.9 135.5 44.8Z" fill="white"/>
<path d="M135.5 44.8L104.7 37.1L110.6 26.7C110.7 26.5 110.7 26.2 110.5 26C110.3 25.8 110.1 25.8 109.8 25.9L99.4 31.8L91.7 0.999969C91.6 0.799969 91.4 0.599976 91.2 0.599976C90.9 0.599976 90.7 0.799969 90.7 0.999969L83 31.8L72.6 26C72.4 25.9 72.1 25.9 71.9 26.1C71.7 26.3 71.7 26.6 71.8 26.8L77.7 37.2L47 44.8C46.8 44.9 46.6 45.1 46.6 45.3C46.6 45.5 46.8 45.8 47 45.8L77.8 53.5L71.9 64C71.8 64.2 71.8 64.5 72 64.7C72.2 64.9 72.5 64.9 72.7 64.8L83.1 58.9L90.8 89.7C90.9 89.9 91.1 90.1 91.3 90.1C91.6 90.1 91.8 89.9 91.8 89.7L99.5 58.9L109.9 64.8C110.1 64.9 110.4 64.9 110.6 64.7C110.8 64.5 110.8 64.3 110.7 64L104.8 53.6L135.6 45.9C135.8 45.8 136 45.6 136 45.4C136 45.2 135.8 44.9 135.5 44.8Z" fill="white"/>
<path d="M48.7 45.2999L78.6 37.8999L91.3 45.2999H48.7Z" fill="#F7A600"/>
<path d="M133.8 45.2999L103.9 52.7999L91.3 45.2999H133.8Z" fill="#F7A600"/>
<path d="M91.3 87.8999L83.8 57.8999L91.3 45.2999V87.8999Z" fill="#F7A600"/>
<path d="M91.3 2.79993L98.7 32.6999L91.3 45.2999V2.79993Z" fill="#F7A600"/>
<path d="M73.5 27.6L84.9 34.2L91.3 45.3L73.5 27.6Z" fill="#F7A600"/>
<path d="M109.2 63.2L97.8 56.5999L91.3 45.2999L109.2 63.2Z" fill="#F7A600"/>
<path d="M73.5 63.2L80.1 51.7999L91.3 45.2999L73.5 63.2Z" fill="#F7A600"/>
<path d="M109.2 27.6L102.6 39L91.2 45.3L109.2 27.6Z" fill="#F7A600"/>
<path d="M283.3 93.3999H282.8L253.8 173H251.3L210.9 64.7H224.1L253.1 142.2H253.4L281.8 63.7H284.2L313.1 142.2H313.4L342.1 64.7H355.1L314.6 173H312.1L283.3 93.3999Z" fill="#003869"/>
<path d="M419.5 148.8H416.9L377.8 96.6L377.5 96.9V172H364.9V63.6H367.7L418.4 132.1L468.8 63.6H471.6V172.2H459V134C459.2 117.2 459.2 104.5 459.2 95.7L458.7 95.4L419.5 148.8Z" fill="#003869"/>
<path d="M503.3 158.1C493.4 147.7 488.3 134.5 488.3 118.3C488.3 102.8 493.7 89.6 504.6 78.9C515.5 68 528.9 62.6 544.4 62.6C560.4 62.6 573.6 68 584.2 78.7C594.8 89.3 600 102.5 600 118.3C600 134.1 594.8 147.3 584.2 157.9C573.8 168.5 560.6 173.7 544.4 173.7C527.1 173.8 513.4 168.6 503.3 158.1ZM513.4 150.1C521.1 158.4 531.5 162.5 544.4 162.5C556.9 162.5 567.2 158.3 575 149.8C583 141.2 586.9 130.7 586.9 118.3C586.9 105.7 582.8 95.3 574.8 86.8C566.8 78.2 556.7 73.9 544.3 73.9C531.9 73.9 521.6 78.1 513.7 86.6C505.7 95.1 501.8 105.7 501.8 118.2C501.8 131.2 505.7 141.8 513.4 150.1Z" fill="#003869"/>
</g>
<defs>
<clipPath id="clip0_595_1749">
<rect width="600" height="200" fill="white"/>
</clipPath>
</defs>
</svg>
