<svg width="181" height="80" viewBox="0 0 181 80" fill="none" xmlns="http://www.w3.org/2000/svg">
<path fill-rule="evenodd" clip-rule="evenodd" d="M154.424 28.9654C157.342 26.9884 158.764 24.2994 158.764 20.7744V20.6634C158.764 17.8684 157.843 15.5894 155.948 13.6964C153.603 11.3514 149.978 10.1124 145.465 10.1124H127L127.002 49.7894H145.904C155.437 49.7894 160.906 45.7224 160.906 38.6324V38.5244C160.906 33.9644 158.897 30.9784 154.424 28.9654ZM145.904 41.1604H136.451V33.9064H145.629C149.384 33.9064 151.289 35.1084 151.289 37.4794V37.5894C151.289 39.9604 149.478 41.1604 145.904 41.1604ZM136.451 25.6654V18.7394H144.201C146.458 18.7394 149.147 19.3204 149.147 22.0914V22.2014C149.147 24.4994 147.297 25.6654 143.65 25.6654H136.451Z" fill="#383A3B"/>
<path fill-rule="evenodd" clip-rule="evenodd" d="M78.833 10.0489C81.504 10.0489 83.671 12.2139 83.671 14.8839V49.7969H74V10.0479L78.833 10.0489Z" fill="#383A3B"/>
<path fill-rule="evenodd" clip-rule="evenodd" d="M102.608 10.1118H87L87.01 49.7908L102.608 49.7888C108.546 49.7888 113.933 47.7548 117.781 44.0628C121.57 40.4278 123.654 35.4138 123.654 29.9498V29.8388C123.654 18.4088 114.801 10.1118 102.608 10.1118ZM113.599 29.9498V30.0598C113.599 36.5678 109.182 40.9428 102.608 40.9428H96.671V18.9608H102.608C109.182 18.9608 113.599 23.3758 113.599 29.9498Z" fill="#383A3B"/>
<mask id="mask0_3_1628" style="mask-type:alpha" maskUnits="userSpaceOnUse" x="0" y="0" width="65" height="61">
<path fill-rule="evenodd" clip-rule="evenodd" d="M0 0.787476H64.8486V60.2984H0V0.787476Z" fill="white"/>
</mask>
<g mask="url(#mask0_3_1628)">
<path fill-rule="evenodd" clip-rule="evenodd" d="M34.0683 35.9572C28.9533 44.2392 45.3843 44.3642 37.7823 59.8392C37.5593 59.8762 37.3383 59.9192 37.1103 59.9522C19.3903 62.5462 2.92231 50.2842 0.327308 32.5622C-0.900692 24.1592 1.21431 16.0392 5.66131 9.54623C4.83431 28.2462 38.8453 28.2262 34.0683 35.9572ZM41.3183 59.0432C43.0693 55.7852 46.8823 51.0352 55.0333 41.4592C67.2223 27.1362 31.1013 31.9462 24.9113 21.1062C19.8133 12.1752 38.7863 5.75623 50.2503 0.787231C57.7033 5.69923 63.1103 13.6432 64.5023 23.1702C66.8863 39.4492 56.7263 54.6612 41.3183 59.0432ZM30.6183 18.1442C29.4023 18.7832 31.5783 21.6082 37.1463 21.7592C42.7153 21.9132 35.5363 15.5622 30.6183 18.1442ZM42.9053 21.1662C38.7323 19.8152 41.4783 23.1542 43.4643 23.3752C45.4483 23.5942 45.8623 22.1242 42.9053 21.1662ZM47.2603 24.4352C45.8723 24.3772 45.6243 25.2162 47.7083 25.6562C50.6523 26.2782 48.6483 24.4932 47.2603 24.4352Z" fill="#274E68"/>
</g>
<path d="M75.037 66.4266V59H76.5886V66.4266H75.037Z" fill="#383A3B"/>
<path d="M83.1582 66.4266H81.6727V63.6972C81.6727 63.1259 81.6397 62.745 81.5736 62.5546C81.5076 62.3959 81.4086 62.2372 81.2765 62.142C81.1445 62.0468 80.9794 62.0151 80.7484 62.0151C80.4843 62.0151 80.2532 62.0785 80.0551 62.2055C79.857 62.3325 79.725 62.5229 79.626 62.745C79.5599 62.9672 79.5269 63.3798 79.5269 63.9828V66.4266H78.0414V61.0629H79.4279V61.8564C79.9231 61.2534 80.5173 60.936 81.2765 60.936C81.6067 60.936 81.9038 60.9995 82.1678 61.0947C82.4319 61.1899 82.63 61.3486 82.7951 61.539C82.9601 61.7294 83.0261 61.9199 83.0922 62.142C83.1582 62.3642 83.1582 62.6816 83.1582 63.0942V66.4266ZM87.2186 61.0312V62.1738H86.2283V64.3319C86.2283 64.7762 86.2283 65.0301 86.2613 65.0936C86.2943 65.1571 86.3273 65.2206 86.3933 65.284C86.4593 65.3158 86.5584 65.3475 86.6574 65.3475C86.7894 65.3475 86.9875 65.3158 87.2516 65.2206L87.3837 66.3314C87.0535 66.4583 86.6574 66.5536 86.2283 66.5536C85.9642 66.5536 85.7331 66.5218 85.502 66.4266C85.3039 66.3314 85.1389 66.2362 85.0398 66.0775C84.9408 65.9505 84.8748 65.7601 84.8418 65.5379C84.8088 65.3793 84.8088 65.0301 84.8088 64.5223V62.1738H84.1155V61.0312H84.8088V59.9839L86.2943 59.1587V61.0629H87.2186V61.0312ZM91.5101 64.7128L92.9956 64.9349C92.7975 65.4427 92.5004 65.8553 92.1043 66.1092C91.7081 66.3949 91.18 66.5218 90.5528 66.5218C89.5954 66.5218 88.8692 66.2044 88.407 65.6014C88.0439 65.1254 87.8458 64.4906 87.8458 63.7606C87.8458 62.872 88.0769 62.1738 88.5721 61.666C89.0672 61.1582 89.6614 60.9043 90.4207 60.9043C91.246 60.9043 91.9062 61.1582 92.4014 61.6977C92.8966 62.2372 93.1276 63.0307 93.0946 64.1415H89.3973C89.3973 64.5541 89.5294 64.9032 89.7605 65.1254C89.9916 65.3475 90.2887 65.4745 90.6188 65.4745C90.8499 65.4745 91.0479 65.411 91.213 65.284C91.312 65.1571 91.4111 64.9667 91.5101 64.7128ZM91.5761 63.2528C91.5761 62.8403 91.4441 62.5229 91.246 62.3007C91.0479 62.0785 90.7838 61.9833 90.4867 61.9833C90.1566 61.9833 89.8925 62.1103 89.6945 62.3325C89.4964 62.5546 89.3973 62.872 89.3973 63.2528H91.5761ZM95.6695 66.4266H94.184V61.0629H95.5705V61.8246C95.8016 61.4755 96.0326 61.2216 96.1977 61.1264C96.3958 60.9995 96.5938 60.9677 96.8249 60.9677C97.155 60.9677 97.4852 61.0629 97.8153 61.2216L97.3531 62.4594C97.089 62.3007 96.8579 62.2372 96.6599 62.2372C96.4618 62.2372 96.2637 62.3007 96.1317 62.3959C95.9996 62.4911 95.8676 62.7133 95.8016 62.9989C95.7355 63.2846 95.6695 63.8876 95.6695 64.808V66.4266Z" fill="#383A3B"/>
<path d="M98.2777 64.4271V62.9989H101.183V64.4271H98.2777Z" fill="#383A3B"/>
<path d="M111.086 61.0312H109.732H109.699V66.3949H111.185V63.7924C111.185 63.2846 111.251 62.9037 111.317 62.6816C111.416 62.4594 111.515 62.3007 111.713 62.1738C111.911 62.0468 112.109 61.9833 112.34 61.9833C112.538 61.9833 112.703 62.0468 112.802 62.1103C112.901 62.2055 112.968 62.3007 113.034 62.4594C113.067 62.6181 113.1 62.9672 113.1 63.475V66.3631H114.585V63.7924C114.585 63.2846 114.651 62.9037 114.717 62.6816C114.816 62.4277 114.915 62.269 115.113 62.142C115.311 62.0151 115.509 61.9516 115.707 61.9516C115.972 61.9516 116.203 62.0785 116.335 62.269C116.434 62.4277 116.5 62.7768 116.5 63.3163V66.3949H117.985V62.9672C117.985 62.4594 117.919 62.0785 117.82 61.8564C117.688 61.539 117.49 61.3168 117.193 61.1582C116.896 60.9995 116.533 60.9043 116.137 60.9043C115.806 60.9043 115.509 60.9995 115.212 61.1264C114.915 61.2534 114.651 61.4755 114.42 61.7612C114.255 61.4755 114.024 61.2534 113.76 61.1264C113.496 60.9677 113.199 60.9043 112.835 60.9043C112.142 60.9043 111.581 61.1899 111.086 61.7612V61.0312Z" fill="#383A3B"/>
<path d="M125.347 66.4266H126.832V64.808C126.832 63.8876 126.898 63.2846 126.964 62.9989C127.03 62.7133 127.162 62.4911 127.294 62.3959C127.427 62.3007 127.625 62.2372 127.823 62.2372C128.021 62.2372 128.252 62.3007 128.516 62.4594L128.978 61.2216C128.648 61.0629 128.318 60.9677 127.988 60.9677C127.757 60.9677 127.526 61.0312 127.361 61.1264C127.195 61.2216 126.964 61.4755 126.733 61.8246V61.0629H125.347V66.4266Z" fill="#383A3B"/>
<path d="M129.638 59V60.3012H131.124V59H129.638Z" fill="#383A3B"/>
<path d="M129.638 61.0629V66.4266H131.124V61.0629H129.638Z" fill="#383A3B"/>
<path d="M136.043 62.872L137.495 62.6181C137.33 62.0468 137.033 61.6342 136.604 61.3486C136.208 61.0629 135.679 60.936 134.986 60.936C134.161 60.936 133.501 61.1582 133.005 61.666C132.51 62.142 132.279 62.8402 132.279 63.7289C132.279 64.6176 132.51 65.284 133.005 65.7918C133.468 66.2679 134.128 66.5218 134.953 66.5218C135.679 66.5218 136.241 66.3949 136.67 66.0457C137.099 65.6966 137.363 65.2206 137.528 64.5858L136.076 64.3637C136.009 64.7445 135.91 64.9984 135.712 65.1571C135.514 65.3158 135.316 65.3793 135.019 65.3793C134.656 65.3793 134.359 65.2523 134.128 64.9984C133.897 64.7128 133.798 64.2684 133.798 63.6337C133.798 63.0624 133.897 62.6498 134.128 62.3959C134.359 62.142 134.656 62.0151 135.019 62.0151C135.316 62.0151 135.547 62.1103 135.712 62.2372C135.877 62.3959 135.976 62.5863 136.043 62.872Z" fill="#383A3B"/>
<path d="M148.224 66.4266H149.709V63.0941C149.709 62.6816 149.709 62.3642 149.643 62.142C149.577 61.9199 149.511 61.7294 149.346 61.539C149.181 61.3486 148.983 61.1899 148.719 61.0947C148.455 60.9995 148.158 60.936 147.828 60.936C147.068 60.936 146.474 61.2534 145.979 61.8564V61.0629H144.592V66.4266H146.078V63.9828C146.078 63.3798 146.111 62.9672 146.177 62.745C146.276 62.5229 146.408 62.3324 146.606 62.2055C146.804 62.0785 147.035 62.0151 147.299 62.0151C147.53 62.0151 147.696 62.0468 147.828 62.142C147.96 62.2372 148.059 62.3642 148.125 62.5546C148.191 62.745 148.224 63.1259 148.224 63.6972V66.4266Z" fill="#383A3B"/>
<path fill-rule="evenodd" clip-rule="evenodd" d="M109.006 66.4266H107.323L106.662 64.7445H103.559L102.932 66.4266H101.281L104.286 59H105.936L109.006 66.4266ZM105.078 60.7138L106.134 63.475H104.054L105.078 60.7138Z" fill="#383A3B"/>
<path fill-rule="evenodd" clip-rule="evenodd" d="M122.673 64.7128L124.158 64.9349C123.96 65.4427 123.663 65.8553 123.267 66.1092C122.871 66.3949 122.343 66.5218 121.716 66.5218C120.758 66.5218 120.032 66.2044 119.57 65.6014C119.207 65.1254 119.009 64.4906 119.009 63.7606C119.009 62.872 119.24 62.1738 119.735 61.666C120.23 61.1582 120.824 60.9043 121.584 60.9043C122.409 60.9043 123.069 61.1582 123.564 61.6977C124.059 62.2372 124.29 63.0307 124.257 64.1415H120.56C120.56 64.5541 120.692 64.9032 120.923 65.1254C121.154 65.3475 121.451 65.4745 121.782 65.4745C122.013 65.4745 122.211 65.411 122.376 65.284C122.475 65.1571 122.574 64.9667 122.673 64.7128ZM122.409 62.3007C122.607 62.5229 122.739 62.8402 122.739 63.2528H120.56C120.56 62.872 120.659 62.5546 120.857 62.3324C121.055 62.1103 121.319 61.9833 121.65 61.9833C121.947 61.9833 122.211 62.0785 122.409 62.3007Z" fill="#383A3B"/>
<path fill-rule="evenodd" clip-rule="evenodd" d="M139.74 62.6816L138.386 62.4594C138.551 61.9516 138.782 61.539 139.179 61.3168C139.542 61.0629 140.103 60.936 140.829 60.936C141.489 60.936 141.985 60.9995 142.315 61.1582C142.645 61.3168 142.876 61.5073 143.008 61.7294C143.14 61.9516 143.206 62.3959 143.206 62.9989V64.6493C143.206 65.1254 143.239 65.4745 143.272 65.6966C143.305 65.9188 143.404 66.1727 143.536 66.4266H142.018C142.009 66.4021 141.998 66.3755 141.987 66.3462C141.953 66.2618 141.91 66.1554 141.886 66.014C141.876 65.9861 141.869 65.9637 141.863 65.9451C141.85 65.9002 141.843 65.8778 141.82 65.8553C141.555 66.0775 141.291 66.2679 140.994 66.3949C140.697 66.5218 140.4 66.5853 140.07 66.5853C139.509 66.5853 139.047 66.4266 138.716 66.141C138.386 65.8553 138.221 65.4745 138.221 64.9984C138.221 64.681 138.287 64.4271 138.452 64.1732C138.617 63.9193 138.815 63.7606 139.08 63.6337C139.344 63.5067 139.74 63.4115 140.268 63.3163C140.961 63.1894 141.456 63.0624 141.72 62.9672V62.8402C141.72 62.5546 141.654 62.3642 141.522 62.269C141.39 62.142 141.126 62.0785 140.73 62.0785C140.466 62.0785 140.268 62.142 140.103 62.2372C139.938 62.269 139.839 62.4277 139.74 62.6816ZM141.126 63.976C141.377 63.917 141.575 63.8706 141.72 63.8241H141.753V64.1098C141.753 64.4589 141.72 64.681 141.687 64.808C141.621 64.9984 141.489 65.1571 141.324 65.284C141.093 65.4427 140.829 65.5379 140.565 65.5379C140.334 65.5379 140.136 65.4745 139.971 65.3158C139.806 65.1888 139.74 64.9984 139.74 64.808C139.74 64.5858 139.839 64.4271 140.037 64.3002C140.127 64.2138 140.379 64.1536 140.721 64.0721C140.756 64.0638 140.792 64.0552 140.829 64.0463C140.935 64.0208 141.034 63.9975 141.126 63.976Z" fill="#383A3B"/>
<path d="M75.0702 69.9707H77.9004C78.5256 69.9707 79.0193 70.003 79.3813 70.1C79.842 70.2293 80.204 70.4556 80.5331 70.8112C80.8622 71.1667 81.0925 71.5546 81.2571 72.0395C81.4216 72.5244 81.5204 73.1063 81.5204 73.8174C81.5204 74.4316 81.4545 74.9811 81.29 75.4337C81.0925 75.9832 80.8293 76.4358 80.4673 76.759C80.204 77.0176 79.842 77.2116 79.3813 77.3732C79.0522 77.4702 78.5915 77.5348 77.9991 77.5348H75.0702V69.9707ZM76.6498 71.2314V76.2418H77.8016C78.2295 76.2418 78.5585 76.2095 78.756 76.1772C79.0193 76.1125 79.2167 76.0155 79.3813 75.8539C79.5458 75.6923 79.6775 75.466 79.7762 75.1104C79.8749 74.7872 79.9407 74.3023 79.9407 73.7204C79.9407 73.1386 79.8749 72.686 79.7762 72.3628C79.6775 72.0395 79.5129 71.8132 79.3484 71.6193C79.1509 71.4577 78.9205 71.3284 78.6244 71.2637C78.394 71.2314 77.9662 71.1991 77.3409 71.1991H76.6498V71.2314ZM86.0618 75.7893L87.5427 76.0155C87.3453 76.5327 87.0491 76.953 86.6542 77.2116C86.2593 77.5025 85.7327 77.6318 85.1074 77.6318C84.1531 77.6318 83.4291 77.3086 82.9684 76.6944C82.6064 76.2095 82.4089 75.563 82.4089 74.8195C82.4089 73.9144 82.6393 73.2032 83.1329 72.686C83.6265 72.1688 84.2189 71.9102 84.9758 71.9102C85.7985 71.9102 86.4567 72.1688 86.9503 72.7184C87.444 73.2679 87.6743 74.076 87.6414 75.2074H83.9556C83.9556 75.6276 84.0873 75.9832 84.3176 76.2095C84.548 76.4358 84.8442 76.5651 85.1733 76.5651C85.4036 76.5651 85.6011 76.5004 85.7656 76.3711C85.9302 76.2418 85.996 76.0479 86.0618 75.7893ZM86.1605 74.3346C86.1605 73.9144 86.0289 73.5911 85.8314 73.3649C85.634 73.1386 85.3707 73.0416 85.0745 73.0416C84.7454 73.0416 84.4822 73.1709 84.2847 73.3972C84.0873 73.6235 83.9885 73.9467 83.9885 74.3346H86.1605ZM90.3729 77.5348L88.1351 72.0718H89.6818L90.7349 74.8518L91.0311 75.7893C91.0969 75.563 91.1627 75.4014 91.1956 75.3044C91.2614 75.1428 91.2943 74.9811 91.3602 74.8518L92.4132 72.0718H93.9271L91.7222 77.5348H90.3729ZM98.0407 75.7893L99.5216 76.0155C99.3241 76.5327 99.028 76.953 98.633 77.2116C98.2381 77.5025 97.7116 77.6318 97.0863 77.6318C96.132 77.6318 95.408 77.3086 94.9472 76.6944C94.5852 76.2095 94.3878 75.563 94.3878 74.8195C94.3878 73.9144 94.6182 73.2032 95.1118 72.686C95.6054 72.1688 96.1978 71.9102 96.9547 71.9102C97.7774 71.9102 98.4356 72.1688 98.9292 72.7184C99.4229 73.2679 99.6532 74.076 99.6203 75.2074H95.9345C95.9345 75.6276 96.0662 75.9832 96.2965 76.2095C96.5269 76.4358 96.823 76.5651 97.1521 76.5651C97.3825 76.5651 97.58 76.5004 97.7445 76.3711C97.8432 76.2741 97.942 76.0479 98.0407 75.7893ZM98.1065 74.3346C98.1065 73.9144 97.9749 73.5911 97.7774 73.3649C97.58 73.1386 97.3167 73.0416 97.0205 73.0416C96.6914 73.0416 96.4281 73.1709 96.2307 73.3972C96.0332 73.6235 95.9345 73.9467 95.9345 74.3346H98.1065Z" fill="#383A3B"/>
<path d="M100.772 77.5351V69.9709H102.253V77.5351H100.772Z" fill="#383A3B"/>
<path d="M103.438 74.7225C103.438 74.2376 103.569 73.7851 103.8 73.3325C104.03 72.88 104.392 72.5244 104.82 72.2981C105.248 72.0718 105.741 71.9425 106.301 71.9425C107.156 71.9425 107.848 72.2012 108.374 72.7507C108.901 73.3002 109.197 73.979 109.197 74.7872C109.197 75.6276 108.934 76.3065 108.374 76.856C107.815 77.4055 107.156 77.6641 106.334 77.6641C105.807 77.6641 105.346 77.5348 104.886 77.3086C104.425 77.0823 104.063 76.759 103.833 76.3065C103.569 75.8862 103.438 75.3367 103.438 74.7225ZM104.952 74.7872C104.952 75.3367 105.083 75.7569 105.346 76.0479C105.61 76.3388 105.939 76.4681 106.334 76.4681C106.729 76.4681 107.058 76.3388 107.288 76.0479C107.551 75.7569 107.683 75.3367 107.683 74.7872C107.683 74.2376 107.551 73.8497 107.288 73.5588C107.025 73.2679 106.696 73.1386 106.334 73.1386C105.972 73.1386 105.61 73.2679 105.346 73.5588C105.083 73.8497 104.952 74.2376 104.952 74.7872ZM110.316 72.0395H111.698V72.8477C111.862 72.5891 112.126 72.3628 112.422 72.1688C112.718 72.0072 113.08 71.9102 113.442 71.9102C114.1 71.9102 114.627 72.1688 115.088 72.6537C115.548 73.1386 115.779 73.8497 115.779 74.7225C115.779 75.6276 115.548 76.3388 115.088 76.856C114.627 77.3732 114.067 77.6318 113.442 77.6318C113.146 77.6318 112.85 77.5672 112.619 77.4379C112.356 77.3086 112.093 77.1146 111.83 76.8237V79.5713H110.349V72.0395H110.316ZM111.764 74.6902C111.764 75.3044 111.895 75.7569 112.126 76.0479C112.356 76.3388 112.685 76.5004 113.047 76.5004C113.376 76.5004 113.672 76.3711 113.903 76.0802C114.133 75.7893 114.232 75.369 114.232 74.7549C114.232 74.173 114.1 73.7528 113.87 73.4618C113.64 73.1709 113.343 73.0416 113.014 73.0416C112.652 73.0416 112.356 73.1709 112.126 73.4618C111.895 73.7528 111.764 74.173 111.764 74.6902ZM116.799 72.0395H118.148V72.783C118.642 72.2012 119.201 71.9102 119.892 71.9102C120.254 71.9102 120.55 71.9749 120.814 72.1365C121.077 72.2658 121.307 72.4921 121.472 72.783C121.702 72.4921 121.966 72.2658 122.262 72.1365C122.558 72.0072 122.854 71.9102 123.183 71.9102C123.578 71.9102 123.94 72.0072 124.236 72.1688C124.532 72.3305 124.73 72.5567 124.862 72.88C124.96 73.1063 125.026 73.4942 125.026 74.0114V77.5025H123.545V74.3669C123.545 73.8174 123.479 73.4618 123.381 73.3002C123.249 73.1063 123.019 72.977 122.755 72.977C122.558 72.977 122.36 73.0416 122.163 73.1709C121.966 73.3002 121.867 73.4618 121.768 73.7204C121.702 73.9467 121.636 74.3346 121.636 74.8518V77.4702H120.156V74.4639C120.156 73.9467 120.123 73.5911 120.09 73.4295C120.024 73.2679 119.958 73.1709 119.859 73.0739C119.761 73.0093 119.596 72.9446 119.399 72.9446C119.168 72.9446 118.971 73.0093 118.773 73.1386C118.576 73.2679 118.477 73.4295 118.378 73.6558C118.313 73.8821 118.247 74.27 118.247 74.7872V77.4379H116.799V72.0395ZM129.699 75.7893L131.18 76.0155C130.983 76.5327 130.686 76.953 130.292 77.2116C129.897 77.5025 129.37 77.6318 128.745 77.6318C127.79 77.6318 127.066 77.3086 126.606 76.6944C126.244 76.2095 126.046 75.563 126.046 74.8195C126.046 73.9144 126.277 73.2032 126.77 72.686C127.264 72.1688 127.856 71.9102 128.613 71.9102C129.436 71.9102 130.094 72.1688 130.588 72.7184C131.081 73.2679 131.312 74.076 131.279 75.2074H127.593C127.593 75.6276 127.725 75.9832 127.955 76.2095C128.185 76.4358 128.482 76.5651 128.811 76.5651C129.041 76.5651 129.238 76.5004 129.403 76.3711C129.568 76.2418 129.633 76.0479 129.699 75.7893ZM129.798 74.3346C129.798 73.9144 129.666 73.5911 129.469 73.3649C129.271 73.1386 129.008 73.0416 128.712 73.0416C128.383 73.0416 128.12 73.1709 127.922 73.3972C127.725 73.6235 127.626 73.9467 127.626 74.3346H129.798ZM137.532 77.5348H136.051V74.7549C136.051 74.173 136.018 73.7851 135.952 73.5911C135.886 73.4295 135.787 73.2679 135.656 73.1709C135.524 73.0739 135.36 73.0416 135.129 73.0416C134.866 73.0416 134.636 73.1063 134.438 73.2356C134.241 73.3649 134.109 73.5588 134.01 73.7851C133.944 74.0114 133.912 74.4316 133.912 75.0458V77.5348H132.431V72.0718H133.813V72.88C134.306 72.2658 134.899 71.9425 135.656 71.9425C135.985 71.9425 136.281 72.0072 136.544 72.1042C136.808 72.2012 137.005 72.3628 137.17 72.5567C137.334 72.7507 137.4 72.9446 137.466 73.1709C137.532 73.3972 137.532 73.7204 137.532 74.1407V77.5348ZM141.579 72.0395V73.2032H140.559V75.4014C140.559 75.8539 140.559 76.1125 140.592 76.1772C140.625 76.2418 140.658 76.3065 140.724 76.3711C140.79 76.4034 140.888 76.4358 140.987 76.4358C141.119 76.4358 141.316 76.4034 141.579 76.3065L141.711 77.4379C141.382 77.5672 140.987 77.6641 140.559 77.6641C140.296 77.6641 140.066 77.6318 139.835 77.5348C139.638 77.4379 139.473 77.3409 139.374 77.1792C139.276 77.0499 139.21 76.856 139.177 76.6297C139.144 76.4681 139.144 76.1125 139.144 75.5953V73.2032H138.453V72.0395H139.144V70.9405L140.625 70.1V72.0395H141.579ZM145.627 69.9707H148.721C149.346 69.9707 149.774 70.003 150.07 70.0354C150.366 70.0677 150.629 70.197 150.86 70.3586C151.09 70.5202 151.287 70.7142 151.452 71.0051C151.617 71.2637 151.682 71.5546 151.682 71.8779C151.682 72.2335 151.584 72.5567 151.386 72.8477C151.189 73.1386 150.925 73.3649 150.596 73.5265C151.057 73.6558 151.419 73.8821 151.682 74.2053C151.946 74.5286 152.044 74.9165 152.044 75.3367C152.044 75.6923 151.979 76.0155 151.814 76.3388C151.649 76.662 151.419 76.9206 151.156 77.1146C150.86 77.3086 150.531 77.4379 150.103 77.4702C149.84 77.5025 149.214 77.5025 148.227 77.5348H145.594V69.9707H145.627ZM147.174 71.2314V72.977H148.194C148.786 72.977 149.181 72.977 149.313 72.9446C149.576 72.9123 149.774 72.8153 149.938 72.686C150.103 72.5244 150.169 72.3305 150.169 72.1042C150.169 71.8779 150.103 71.6839 149.971 71.5223C149.839 71.3607 149.642 71.296 149.379 71.2637C149.214 71.2314 148.786 71.2314 148.062 71.2314H147.174ZM147.174 74.2376V76.2741H148.622C149.181 76.2741 149.543 76.2741 149.675 76.2418C149.905 76.2095 150.103 76.1125 150.234 75.9509C150.366 75.7893 150.465 75.563 150.465 75.3044C150.465 75.0781 150.399 74.8842 150.3 74.7225C150.201 74.5609 150.037 74.4639 149.807 74.3669C149.609 74.3023 149.148 74.27 148.424 74.27H147.174V74.2376ZM154.48 73.7204L153.13 73.4942C153.295 72.977 153.525 72.5567 153.92 72.3305C154.282 72.0718 154.842 71.9425 155.566 71.9425C156.224 71.9425 156.717 72.0072 157.047 72.1688C157.376 72.3305 157.606 72.5244 157.738 72.7507C157.869 72.977 157.935 73.4295 157.935 74.0437V75.7246C157.935 76.2095 157.968 76.5651 158.001 76.7913C158.034 77.0176 158.133 77.2762 158.264 77.5348H156.816C156.783 77.4379 156.717 77.3086 156.685 77.1146C156.652 77.0176 156.652 76.9853 156.619 76.953C156.355 77.1793 156.092 77.3732 155.796 77.5025C155.5 77.6318 155.204 77.6965 154.875 77.6965C154.315 77.6965 153.854 77.5348 153.525 77.2439C153.196 76.953 153.032 76.5651 153.032 76.0802C153.032 75.7569 153.097 75.4983 153.262 75.2397C153.427 75.0135 153.624 74.8195 153.887 74.6902C154.151 74.5609 154.545 74.4639 155.072 74.3669C155.763 74.2376 156.257 74.1083 156.52 74.0114V73.8174C156.52 73.5265 156.454 73.3325 156.323 73.2356C156.191 73.1063 155.928 73.0416 155.533 73.0416C155.269 73.0416 155.072 73.1063 154.907 73.2032C154.677 73.3002 154.545 73.4618 154.48 73.7204ZM156.454 74.8842C156.257 74.9488 155.961 75.0135 155.566 75.1104C155.171 75.2074 154.875 75.2721 154.776 75.369C154.578 75.4983 154.48 75.66 154.48 75.8862C154.48 76.0802 154.545 76.2741 154.71 76.4034C154.875 76.5651 155.072 76.6297 155.302 76.6297C155.566 76.6297 155.829 76.5327 156.059 76.3711C156.224 76.2418 156.355 76.0802 156.421 75.8862C156.454 75.7569 156.487 75.5307 156.487 75.1751V74.8842H156.454ZM164.418 77.5348H162.937V74.7549C162.937 74.173 162.904 73.7851 162.839 73.5911C162.773 73.4295 162.674 73.2679 162.542 73.1709C162.411 73.0739 162.246 73.0416 162.016 73.0416C161.753 73.0416 161.522 73.1063 161.325 73.2356C161.127 73.3649 160.996 73.5588 160.897 73.7851C160.831 74.0114 160.798 74.4316 160.798 75.0458V77.5348H159.317V72.0718H160.699V72.88C161.193 72.2658 161.785 71.9425 162.542 71.9425C162.871 71.9425 163.168 72.0072 163.431 72.1042C163.694 72.2012 163.892 72.3628 164.056 72.5567C164.221 72.7507 164.287 72.9446 164.352 73.1709C164.418 73.3972 164.418 73.7204 164.418 74.1407V77.5348Z" fill="#383A3B"/>
<path d="M165.866 77.5351V69.9709H167.348V73.9787L169.059 72.0392H170.869L168.96 74.0439L171 77.5351H169.42L168.005 75.0781L167.314 75.7895V77.5351H165.866Z" fill="#383A3B"/>
</svg>
