<?xml version="1.0" encoding="UTF-8" standalone="no"?>
<!-- Generator: Adobe Illustrator 19.0.0, SVG Export Plug-In . SVG Version: 6.00 Build 0)  -->

<svg
   xmlns:dc="http://purl.org/dc/elements/1.1/"
   xmlns:cc="http://creativecommons.org/ns#"
   xmlns:rdf="http://www.w3.org/1999/02/22-rdf-syntax-ns#"
   xmlns:svg="http://www.w3.org/2000/svg"
   xmlns="http://www.w3.org/2000/svg"
   xmlns:sodipodi="http://sodipodi.sourceforge.net/DTD/sodipodi-0.dtd"
   xmlns:inkscape="http://www.inkscape.org/namespaces/inkscape"
   version="1.1"
   id="Layer_1"
   x="0px"
   y="0px"
   viewBox="0 0 80 80"
   enable-background="new 0 0 389 80"
   xml:space="preserve"
   sodipodi:docname="adb-logo.svg"
   width="80"
   height="80"
   inkscape:version="0.92.4 (5da689c313, 2019-01-14)"><metadata
   id="metadata3778"><rdf:RDF><cc:Work
       rdf:about=""><dc:format>image/svg+xml</dc:format><dc:type
         rdf:resource="http://purl.org/dc/dcmitype/StillImage" /></cc:Work></rdf:RDF></metadata><defs
   id="defs3776" /><sodipodi:namedview
   pagecolor="#ffffff"
   bordercolor="#666666"
   borderopacity="1"
   objecttolerance="10"
   gridtolerance="10"
   guidetolerance="10"
   inkscape:pageopacity="0"
   inkscape:pageshadow="2"
   inkscape:window-width="1920"
   inkscape:window-height="986"
   id="namedview3774"
   showgrid="false"
   inkscape:zoom="1.0077121"
   inkscape:cx="373.12245"
   inkscape:cy="40"
   inkscape:window-x="-11"
   inkscape:window-y="-11"
   inkscape:window-maximized="1"
   inkscape:current-layer="Layer_1" />

<g
   id="XMLID_1_">
	<g
   id="XMLID_22_">
		<polygon
   id="XMLID_80_"
   points="80,80 0,80 0,0 80,0 "
   style="clip-rule:evenodd;fill:#002569;fill-rule:evenodd" />
	</g>
	<g
   id="XMLID_2_">
		<path
   id="XMLID_18_"
   d="M 52.9,39.5 C 51.4,37.3 49.3,35.6 46.5,34.7 45.8,34.5 45,34.3 44.3,34.2 43.6,34.1 42.8,34 42,34 c -0.4,0 -0.9,0 -1.4,0 -0.5,0 -0.9,0 -1.4,0 -0.4,0 -0.8,0 -1.3,0 -0.4,0 -0.9,0 -1.3,0 -0.4,0 -0.9,0 -1.3,0 -0.4,0 -0.9,0 -1.3,0 -0.4,0 -0.8,0 -1.3,0 -0.4,0 -0.9,0 -1.3,0 -0.4,0 -0.9,0 -1.3,0 -0.4,0 -0.9,0 -1.3,0 v 1.2 c 0,0 0,0 0.1,0 0,0 0,0 0.1,0 1.2,0.1 2.2,0.2 2.8,0.5 0.7,0.3 1,1.2 1,2.6 v 17.4 c 0,1.4 -0.3,2.3 -1,2.6 -0.5,0.2 -1.2,0.4 -2,0.5 -0.6,-0.1 -1.2,-0.3 -1.6,-0.6 -0.5,-0.4 -1,-1.1 -1.4,-1.9 L 17,33.5 H 15.6 L 6.2,56.2 C 5.8,57.2 5.3,57.9 4.6,58.3 4,58.6 3.1,58.8 2,58.8 V 60 h 9 v -1.2 h -0.8 c -0.1,0 -0.2,0 -0.3,0 -0.1,0 -0.2,0 -0.3,0 C 9.2,58.8 8.7,58.7 8.4,58.4 8,58.2 7.8,57.8 7.8,57.3 7.8,57.1 7.8,56.9 7.9,56.8 8,56.6 8,56.5 8.1,56.3 l 2,-5.1 h 10.4 l 2.1,5.1 c 0.1,0.2 0.2,0.4 0.3,0.7 0.1,0.2 0.1,0.5 0.1,0.7 0,0.4 -0.2,0.7 -0.4,0.8 -0.3,0.2 -0.6,0.3 -1,0.3 -0.2,0 -0.3,0 -0.5,0 -0.1,0 -0.3,0 -0.4,0 H 19.8 V 60 h 9.2 1.6 11.7 c 3.9,0 7,-1.2 9.4,-3.5 2.4,-2.4 3.6,-5.5 3.6,-9.3 -0.1,-2.9 -0.9,-5.4 -2.4,-7.7 z M 10.6,49.5 14.8,39 c 0,-0.1 0.1,-0.2 0.1,-0.2 0,-0.1 0.1,-0.2 0.1,-0.2 0,-0.1 0.1,-0.2 0.1,-0.3 0,-0.1 0.1,-0.2 0.1,-0.3 0.1,0.4 0.2,0.8 0.4,1.3 0.2,0.4 0.3,0.8 0.5,1.3 0,0.1 0.1,0.2 0.1,0.3 0.1,0.1 0.1,0.2 0.1,0.3 l 3.4,8.3 z m 37.9,5.7 c -1.3,2.3 -3.7,3.5 -7.2,3.5 -1.8,0 -3.1,-0.2 -3.7,-0.7 C 37,57.5 36.7,56.3 36.7,54.4 V 35.3 c 0.2,0 0.5,0 0.7,-0.1 0.2,0 0.5,0 0.7,0 0.2,0 0.4,0 0.7,0 0.2,0 0.5,0 0.7,0 3.8,0 6.6,1.1 8.4,3.2 1.8,2.1 2.6,5 2.6,8.8 0.1,2.9 -0.6,5.6 -2,8 z"
   inkscape:connector-curvature="0"
   style="fill:#ffffff" />
		<path
   id="XMLID_14_"
   d="m 67.9,45.9 c 2.1,0.1 4,0.7 5.8,1.8 1.7,1.1 2.6,2.9 2.6,5.2 0,2.2 -0.8,4 -2.3,5.2 -1.5,1.3 -3.3,1.9 -5.4,1.9 H 55.2 v -1.2 c 0,0 0,0 0.1,0 0,0 0,0 0.1,0 1.3,-0.1 2.2,-0.2 2.8,-0.5 0.6,-0.3 1,-1.2 1,-2.6 V 38.3 c 0,-1.4 -0.3,-2.3 -1,-2.6 -0.7,-0.3 -1.6,-0.5 -2.8,-0.5 0,0 0,0 -0.1,0 0,0 0,0 -0.1,0 V 34 h 12.6 c 1.8,0 3.4,0.5 4.8,1.4 1.4,0.9 2.2,2.4 2.2,4.3 0,2.1 -0.7,3.6 -2.1,4.5 -1.4,0.8 -3,1.4 -4.8,1.7 z m -4.8,0.8 v 9 c 0,1.3 0.4,2.1 1.1,2.4 0.7,0.4 1.6,0.5 2.7,0.5 1.9,0 3.2,-0.6 3.9,-1.9 0.7,-1.2 1.1,-2.7 1.1,-4.4 0,-2.9 -0.9,-4.5 -2.7,-5 -1.9,-0.4 -3.9,-0.6 -6.1,-0.6 z m 0,-1.3 c 2,0 3.8,-0.2 5.3,-0.7 1.5,-0.5 2.2,-1.9 2.2,-4.4 0,-1.6 -0.3,-2.8 -0.9,-3.7 -0.6,-0.9 -1.8,-1.4 -3.5,-1.4 h -3.1 z"
   inkscape:connector-curvature="0"
   style="fill:#ffffff" />
	</g>
</g>
</svg>