<svg width="715" height="200" viewBox="0 0 715 200" fill="none" xmlns="http://www.w3.org/2000/svg">
<path d="M290.939 51.1144C290.968 52.8094 291.661 54.4253 292.87 55.6138C294.079 56.8023 295.706 57.4683 297.402 57.4683C299.097 57.4683 300.724 56.8023 301.933 55.6138C303.142 54.4253 303.835 52.8094 303.864 51.1144V26.911H311.237V50.9468C311.392 52.7315 311.166 54.5287 310.573 56.219C309.979 57.9092 309.032 59.4536 307.795 60.7494C304.712 62.7881 301.097 63.8751 297.4 63.8751C293.703 63.8751 290.088 62.7881 287.005 60.7494C285.769 59.4525 284.824 57.9079 284.231 56.2179C283.638 54.5279 283.412 52.7311 283.566 50.9468V26.911H290.939V51.1144ZM323.041 43.255L323.679 43.0455C325.032 42.5483 326.462 42.2951 327.903 42.2979C328.538 42.2189 329.182 42.3317 329.752 42.6217C330.323 42.9117 330.793 43.3657 331.103 43.9252C331.734 45.5303 332.008 47.2531 331.909 48.9747V63.2338H339.066V48.7556C339.297 45.3905 338.593 42.027 337.032 39.0369C336.185 37.9162 335.059 37.0358 333.768 36.4826C332.476 35.9294 331.062 35.7224 329.666 35.8821C327.29 35.9898 324.985 36.7283 322.989 38.0218V36.5265H315.884V63.2337H323.041L323.041 43.255ZM343.767 63.2339H350.924V36.5267H343.767V63.2339ZM343.767 33.1077H350.924V25.8444H343.767V33.1077ZM372.875 36.5267H366.314V29.1022H359.151V36.5266H356.003V42.6169H359.151V53.7278C358.874 56.5089 359.49 59.3059 360.91 61.7129C361.78 62.5341 362.82 63.1539 363.956 63.5281C365.092 63.9023 366.297 64.0219 367.484 63.8783C369.323 63.7959 371.149 63.5271 372.933 63.076L372.614 57.3627L368.551 57.4658C367.984 57.512 367.422 57.3402 366.978 56.9856C366.647 56.6868 366.437 56.2779 366.385 55.8352C366.34 55.3938 366.314 54.6333 366.314 53.5667V42.6169H372.875L372.875 36.5267ZM383.564 47.4797C383.456 45.9335 383.837 44.3924 384.653 43.0747C385.651 42.24 386.908 41.7777 388.209 41.7665C389.51 41.7553 390.775 42.196 391.787 43.0134C392.594 44.3555 392.95 45.9207 392.802 47.4797H383.564ZM384.927 56.4798C384.469 56.0142 384.116 55.4571 383.889 54.845C383.663 54.233 383.568 53.5799 383.612 52.9287H399.321L399.856 47.963C399.856 39.9135 395.974 35.8887 388.21 35.8887C380.341 35.8887 376.407 40.6783 376.407 50.2574C376.085 53.9393 377.047 57.6191 379.13 60.6722C380.26 61.8222 381.632 62.7064 383.146 63.261C384.661 63.8155 386.279 64.0264 387.885 63.8785C391.637 63.8209 395.369 63.319 399.002 62.3832L398.893 57.0953L397.397 57.2532C394.8 57.469 391.842 57.5754 388.523 57.5722C387.231 57.6609 385.951 57.2722 384.927 56.4798V56.4798ZM419.729 56.8246C418.203 57.2374 416.63 57.4529 415.05 57.4658C414.407 57.5098 413.765 57.3668 413.202 57.054C412.639 56.7412 412.178 56.2721 411.876 55.7032C411.102 53.8273 410.773 51.7982 410.912 49.774C410.912 44.6472 412.354 42.0843 415.237 42.0853C416.996 42.106 418.749 42.284 420.476 42.617V56.6667L419.729 56.8246L419.729 56.8246ZM420.476 25.8444V36.6362L419.455 36.4203C417.889 36.113 416.3 35.9352 414.705 35.8886C413.158 35.7716 411.605 36.0114 410.165 36.5897C408.725 37.1679 407.437 38.0691 406.401 39.2238C404.305 42.3528 403.333 46.1011 403.646 49.8545C403.368 53.5543 404.167 57.2553 405.947 60.511C406.907 61.7094 408.153 62.6461 409.572 63.2342C410.99 63.8223 412.534 64.0428 414.061 63.8753C416.316 63.7643 418.521 63.1639 420.521 62.1157V63.2339H427.627V25.8444L420.476 25.8444ZM455.091 63.2339V33.3268H455.617L464.701 63.2339H476.83V26.911H469.46V56.8245H468.919L460.16 26.911H447.712V63.2339L455.091 63.2339ZM496.27 51.4851V57.1983L495.471 57.4142C494.026 57.8163 492.534 58.0307 491.034 58.0523C489.291 58.0523 488.418 57.0749 488.417 55.1199C488.373 54.7065 488.419 54.2885 488.551 53.8942C488.683 53.4999 488.897 53.1386 489.181 52.8345C489.465 52.5305 489.81 52.291 490.194 52.1321C490.578 51.9732 490.992 51.8987 491.408 51.9137L496.27 51.4851ZM503.434 44.8598C503.546 43.6258 503.402 42.3819 503.01 41.2064C502.618 40.0308 501.988 38.9488 501.159 38.0283C499.042 36.4098 496.394 35.6461 493.741 35.8886C490.062 35.9236 486.404 36.4437 482.862 37.4354L483.071 42.4044L493.122 41.9759C493.968 41.9045 494.813 42.1215 495.52 42.5913C495.804 42.8906 496.019 43.2493 496.149 43.6415C496.279 44.0337 496.32 44.4498 496.27 44.8599V46.5194L490.554 46.948C488.048 46.9469 485.596 47.6782 483.5 49.0522C482.674 49.8165 482.037 50.7628 481.64 51.816C481.243 52.8692 481.096 54.0004 481.212 55.12C481.212 60.9558 483.971 63.8742 489.487 63.8752C492.215 63.8651 494.903 63.2254 497.344 62.0062C498.335 62.7076 499.448 63.217 500.627 63.5078C502.059 63.7827 503.516 63.9058 504.974 63.8752L505.19 58.4809C504.932 58.4555 504.681 58.3792 504.453 58.2565C504.225 58.1337 504.023 57.9668 503.859 57.7655C503.586 57.2075 503.44 56.5953 503.434 55.9738V44.8597L503.434 44.8598ZM524.74 36.5266H518.173V29.1022H511.013V36.5266H507.861V42.6169H511.013V53.7278C510.74 56.509 511.357 59.3051 512.776 61.7129C513.645 62.5339 514.685 63.1534 515.821 63.5277C516.957 63.9019 518.162 64.0216 519.349 63.8783C521.186 63.796 523.01 63.5272 524.792 63.076L524.473 57.3627L520.416 57.4658C519.848 57.5118 519.283 57.3402 518.837 56.9856C518.51 56.6857 518.303 56.2766 518.257 55.8352C518.187 55.0812 518.159 54.3238 518.173 53.5667V42.6169H524.74L524.74 36.5266ZM529.603 63.2337H536.76V36.5266H529.603V63.2337ZM529.603 33.1076H536.76V25.8444H529.603V33.1076ZM549.443 55.8674C548.596 53.9726 548.221 51.9003 548.351 49.8286C548.215 47.7753 548.59 45.7204 549.443 43.8478C549.917 43.263 550.516 42.7915 551.196 42.4676C551.875 42.1437 552.619 41.9756 553.371 41.9756C554.124 41.9756 554.868 42.1437 555.547 42.4676C556.227 42.7915 556.825 43.263 557.299 43.8478C558.159 45.7187 558.536 47.7746 558.398 49.8286C558.53 51.901 558.153 53.9742 557.299 55.8674C556.835 56.4663 556.239 56.9509 555.558 57.2844C554.878 57.6178 554.129 57.7911 553.371 57.7911C552.613 57.7911 551.865 57.6178 551.184 57.2844C550.504 56.9509 549.908 56.4663 549.443 55.8674ZM543.92 39.5492C541.862 42.5666 540.864 46.1825 541.084 49.8286C541.084 59.1961 545.182 63.8783 553.378 63.875C561.566 63.875 565.662 59.1929 565.665 49.8286C565.885 46.1831 564.888 42.5676 562.832 39.5492C560.246 37.1939 556.874 35.8885 553.376 35.8885C549.878 35.8885 546.506 37.1939 543.92 39.5492H543.92ZM577.037 43.2549L577.678 43.0454C579.03 42.5484 580.459 42.2953 581.899 42.2978C582.534 42.2176 583.178 42.3299 583.748 42.62C584.318 42.9102 584.787 43.3648 585.096 43.9251C585.729 45.5296 586.005 47.2528 585.905 48.9748V63.2339H593.062V48.7556C593.29 45.3915 592.589 42.0294 591.035 39.0369C590.185 37.9166 589.059 37.0367 587.766 36.4836C586.473 35.9305 585.059 35.7232 583.662 35.8821C581.286 35.9907 578.982 36.7291 576.985 38.0218V36.5265H569.88V63.2337H577.037L577.037 43.2549ZM618.593 37.2741L616.836 36.9551C614.004 36.3681 611.127 36.0285 608.236 35.94C605.588 35.8257 602.977 36.5867 600.805 38.1055C599.837 38.857 599.069 39.8342 598.567 40.9516C598.065 42.0689 597.844 43.2924 597.924 44.5148C597.803 45.5876 597.921 46.674 598.272 47.6951C598.623 48.7162 599.196 49.6464 599.951 50.4183C601.777 51.7104 603.902 52.5186 606.125 52.7674C607.87 52.98 609.589 53.3742 611.252 53.9436C611.55 54.0618 611.805 54.2686 611.981 54.5359C612.158 54.8032 612.249 55.1184 612.241 55.4388C612.249 55.7558 612.164 56.0682 611.998 56.3381C611.831 56.6081 611.59 56.824 611.304 56.9598C610.181 57.3835 608.978 57.5562 607.781 57.4657C604.697 57.3487 601.622 57.0648 598.569 56.615L598.353 62.5958L600.064 62.9148C602.875 63.5001 605.735 63.8227 608.606 63.8783C615.767 63.8783 619.347 60.9932 619.347 55.223C619.442 54.1972 619.33 53.1628 619.017 52.1812C618.704 51.1997 618.197 50.2911 617.526 49.5096C615.774 48.0937 613.65 47.2132 611.41 46.9736C609.606 46.6979 607.823 46.305 606.07 45.7974C605.761 45.7065 605.491 45.5153 605.303 45.2539C605.114 44.9925 605.018 44.6758 605.03 44.3538C605.007 44.053 605.068 43.7518 605.204 43.4827C605.34 43.2135 605.547 42.9867 605.803 42.8264C606.891 42.4104 608.059 42.2473 609.219 42.3495C612.322 42.4657 615.417 42.7507 618.489 43.2034L618.593 37.2741ZM303.784 119.31C301.078 119.856 298.329 120.159 295.57 120.216C293.807 120.295 292.047 120.004 290.404 119.362C289.16 118.783 288.159 117.785 287.578 116.542C286.92 115.159 286.485 113.681 286.289 112.163C286.025 109.743 285.913 107.308 285.954 104.874C285.89 102.133 286.214 99.3972 286.914 96.7468C287.172 95.6365 287.708 94.6098 288.471 93.7629C289.225 92.9985 290.138 92.4098 291.145 92.0389C292.649 91.5503 294.228 91.3321 295.808 91.3944C298.487 91.4699 301.155 91.7717 303.784 92.2967L303.932 89.7188C300.976 89.0931 297.966 88.7585 294.944 88.7198C293.388 88.5933 291.821 88.7864 290.342 89.2873C288.862 89.7883 287.5 90.5865 286.341 91.6329C284.04 93.9627 282.894 98.7265 282.902 105.924C282.77 109.532 283.253 113.135 284.33 116.581C284.762 117.888 285.482 119.082 286.437 120.074C287.42 121.023 288.605 121.735 289.905 122.155C291.721 122.704 293.615 122.955 295.512 122.897C298.345 122.839 301.165 122.502 303.932 121.891L303.784 119.31ZM311.098 110.342C310.848 107.678 311.37 104.999 312.603 102.624C314.155 101.294 316.132 100.564 318.176 100.569C320.219 100.573 322.194 101.31 323.74 102.647C324.967 105.015 325.49 107.686 325.248 110.342C325.458 113.019 324.998 115.705 323.911 118.16C323.015 119.623 321.095 120.356 318.152 120.361C315.197 120.361 313.296 119.636 312.413 118.192C311.34 115.722 310.889 113.027 311.098 110.342H311.098ZM308.14 110.416C307.858 113.756 308.589 117.104 310.238 120.022C311.64 121.94 314.284 122.897 318.172 122.893C322.061 122.893 324.699 121.936 326.086 120.022C327.721 117.099 328.445 113.754 328.164 110.416C328.468 107.069 327.67 103.714 325.893 100.862C323.724 99.0406 320.983 98.0422 318.151 98.0422C315.319 98.0422 312.578 99.0406 310.409 100.862C308.634 103.715 307.838 107.069 308.14 110.416H308.14ZM335.573 102.624L336.578 102.151C337.487 101.71 338.44 101.364 339.42 101.119C340.565 100.797 341.747 100.629 342.936 100.62C343.791 100.494 344.663 100.609 345.457 100.951C346.25 101.293 346.932 101.849 347.428 102.557C348.309 104.929 348.667 107.464 348.478 109.988V122.413H351.35V109.849C351.61 106.67 351.058 103.477 349.748 100.569C348.99 99.6351 348.005 98.9123 346.887 98.4699C345.769 98.0274 344.556 97.8801 343.365 98.0422C340.618 98.1041 337.934 98.8744 335.573 100.279V98.5159H332.753V122.413H335.573V102.624ZM361.339 122.42H367.603L374.577 98.516H371.612L365.399 119.932H363.488L357.511 98.516H354.356L361.339 122.42ZM379.6 109.272C379.397 106.912 380.023 104.554 381.369 102.605C382.02 101.889 382.825 101.329 383.723 100.968C384.621 100.607 385.589 100.454 386.554 100.52C387.482 100.438 388.416 100.578 389.279 100.927C390.143 101.277 390.911 101.827 391.52 102.531C392.739 104.557 393.284 106.917 393.076 109.272H379.6H379.6ZM393.557 120.025C391.127 120.216 388.704 120.315 386.268 120.315C385.298 120.417 384.318 120.275 383.417 119.903C382.516 119.531 381.721 118.941 381.105 118.185C379.96 116.212 379.435 113.939 379.6 111.663H395.845L395.948 109.369C396.211 106.306 395.38 103.248 393.602 100.739C392.696 99.7939 391.592 99.0609 390.369 98.5934C389.146 98.1259 387.834 97.9355 386.529 98.0358C379.965 98.0358 376.682 102.211 376.681 110.561C376.447 113.787 377.163 117.011 378.74 119.835C379.592 120.906 380.698 121.747 381.957 122.281C383.217 122.815 384.59 123.026 385.952 122.893C389.008 122.854 392.058 122.631 395.087 122.226L394.984 119.88L393.557 120.025H393.557ZM403.308 102.625L404.313 102.151C405.221 101.71 406.173 101.364 407.152 101.12C408.296 100.797 409.479 100.629 410.668 100.62C411.522 100.495 412.395 100.609 413.188 100.951C413.982 101.293 414.664 101.849 415.16 102.557C416.045 104.928 416.406 107.463 416.217 109.988V122.413H419.085V109.849C419.344 106.67 418.792 103.476 417.48 100.569C416.722 99.6345 415.737 98.9114 414.619 98.4689C413.501 98.0264 412.288 97.8794 411.096 98.0422C408.351 98.1037 405.668 98.8741 403.308 100.279V98.5159H400.485V122.413H403.308V102.625ZM436.908 98.5224H428.926V91.0077H426.058V98.5223H422.526V101.049H426.058V114.286C425.823 116.665 426.316 119.058 427.473 121.15C428.121 121.813 428.913 122.319 429.787 122.629C430.661 122.939 431.594 123.045 432.516 122.938C434.132 122.894 435.743 122.733 437.336 122.458L437.149 120.025L432.751 120.357C431.091 120.357 430.044 119.88 429.59 118.927C429.014 116.959 428.789 114.905 428.926 112.859V101.049H436.908V98.5224ZM442.263 98.5095H445.083V122.413H442.263V98.5095ZM442.263 88.9519H445.083V92.5416H442.263V88.9519ZM452.585 110.342C452.337 107.678 452.86 104.999 454.093 102.625C455.644 101.294 457.622 100.565 459.665 100.569C461.709 100.573 463.683 101.31 465.229 102.647C466.457 105.015 466.979 107.686 466.734 110.342C466.942 113.019 466.483 115.705 465.397 118.16C464.508 119.623 462.587 120.356 459.635 120.361C456.69 120.361 454.78 119.638 453.906 118.192C452.83 115.723 452.376 113.027 452.585 110.342H452.585ZM449.627 110.416C449.347 113.756 450.078 117.103 451.724 120.022C453.132 121.94 455.772 122.893 459.661 122.893C463.547 122.893 466.193 121.94 467.569 120.022C469.21 117.101 469.937 113.755 469.657 110.416C469.959 107.068 469.159 103.713 467.379 100.862C465.209 99.0406 462.466 98.0423 459.634 98.0423C456.801 98.0423 454.058 99.0406 451.889 100.862C450.118 103.717 449.324 107.07 449.626 110.416H449.627ZM476.633 102.625L477.639 102.151C478.549 101.709 479.502 101.364 480.484 101.12C481.627 100.796 482.809 100.628 483.997 100.62C484.851 100.495 485.723 100.61 486.516 100.952C487.308 101.294 487.99 101.849 488.485 102.557C489.369 104.929 489.729 107.464 489.539 109.988V122.413H492.41V109.849C492.669 106.67 492.117 103.476 490.805 100.569C490.048 99.6351 489.062 98.9123 487.944 98.4699C486.826 98.0274 485.613 97.8801 484.422 98.0422C481.676 98.1041 478.993 98.8745 476.633 100.279V98.5159H473.807V122.413H476.633L476.633 102.625ZM522.565 98.5224H514.59V91.0077H511.712V98.5223H508.177V101.049H511.712V114.286C511.479 116.665 511.972 119.058 513.127 121.15C513.775 121.813 514.566 122.319 515.439 122.629C516.313 122.939 517.246 123.045 518.167 122.938C519.785 122.894 521.398 122.734 522.994 122.458L522.804 120.025L518.405 120.357C516.755 120.357 515.698 119.88 515.254 118.927C514.678 116.959 514.453 114.905 514.59 112.859V101.049H522.565L522.565 98.5224ZM529.355 110.342C529.105 107.678 529.629 104.999 530.863 102.624C532.414 101.294 534.392 100.564 536.435 100.569C538.479 100.573 540.453 101.31 541.999 102.647C543.225 105.016 543.747 107.686 543.504 110.342C543.715 113.019 543.254 115.706 542.164 118.16C541.474 118.991 540.582 119.63 539.573 120.015C538.565 120.401 537.473 120.52 536.405 120.361C533.46 120.361 531.548 119.638 530.669 118.192C529.596 115.722 529.145 113.027 529.355 110.342H529.355ZM526.39 110.416C526.106 113.757 526.839 117.106 528.494 120.022C529.896 121.94 532.542 122.897 536.431 122.893C540.317 122.893 542.953 121.936 544.339 120.022C545.973 117.099 546.697 113.754 546.417 110.416C546.722 107.069 545.925 103.715 544.149 100.862C541.979 99.0406 539.237 98.0422 536.404 98.0422C533.571 98.0422 530.829 99.0406 528.659 100.862C526.885 103.716 526.089 107.07 526.39 110.416H526.39ZM583.514 119.31C580.806 119.856 578.055 120.159 575.293 120.216C573.531 120.295 571.771 120.004 570.128 119.362C568.886 118.781 567.886 117.783 567.302 116.542C566.647 115.158 566.212 113.681 566.013 112.163C565.753 109.742 565.643 107.308 565.684 104.874C565.622 102.134 565.941 99.3988 566.632 96.7468C566.898 95.6385 567.435 94.6133 568.194 93.7629C568.951 93.0005 569.865 92.4122 570.872 92.0389C572.375 91.55 573.953 91.3318 575.532 91.3944C578.213 91.4702 580.883 91.772 583.514 92.2967L583.659 89.7188C580.703 89.0929 577.693 88.7583 574.671 88.7198C573.114 88.5939 571.547 88.7873 570.067 89.2882C568.587 89.7891 567.225 90.5869 566.064 91.6329C563.77 93.9627 562.624 98.7265 562.626 105.924C562.497 109.531 562.98 113.135 564.054 116.581C564.487 117.888 565.208 119.082 566.164 120.074C567.143 121.022 568.326 121.734 569.622 122.155C571.442 122.703 573.339 122.954 575.239 122.897C578.071 122.838 580.892 122.502 583.659 121.891L583.514 119.31ZM590.829 110.342C590.577 107.678 591.099 104.998 592.333 102.624C593.885 101.294 595.862 100.564 597.906 100.569C599.95 100.573 601.924 101.31 603.47 102.647C604.695 105.016 605.219 107.686 604.978 110.342C605.187 113.02 604.724 115.707 603.631 118.16C602.738 119.623 600.82 120.356 597.876 120.361C594.934 120.361 593.023 119.638 592.143 118.192C591.07 115.722 590.619 113.027 590.828 110.342H590.829ZM587.864 110.416C587.58 113.757 588.313 117.106 589.968 120.022C591.366 121.94 594.011 122.897 597.902 122.893C601.791 122.893 604.428 121.936 605.813 120.022C607.446 117.099 608.17 113.754 607.891 110.416C608.195 107.069 607.399 103.715 605.623 100.862C603.453 99.0406 600.71 98.0422 597.878 98.0422C595.045 98.0422 592.302 99.0406 590.132 100.862C588.358 103.715 587.561 107.069 587.864 110.416H587.864ZM615.78 102.624L616.685 102.151C618.568 101.189 620.645 100.665 622.759 100.62C623.603 100.496 624.465 100.612 625.246 100.954C626.028 101.296 626.697 101.852 627.177 102.557C628.046 104.966 628.397 107.53 628.208 110.084V122.413H631.076V109.988C631.217 107.511 630.974 105.027 630.358 102.624L631.311 102.151C632.196 101.706 633.126 101.36 634.086 101.119C635.237 100.794 636.428 100.626 637.624 100.62C638.476 100.492 639.346 100.606 640.136 100.948C640.926 101.291 641.604 101.848 642.094 102.557C642.956 104.934 643.305 107.466 643.118 109.988V122.413H645.941V109.849C646.206 106.662 645.654 103.46 644.336 100.546C643.576 99.6179 642.591 98.9003 641.475 98.4619C640.358 98.0235 639.148 97.879 637.959 98.0422C636.457 98.0746 634.967 98.3231 633.535 98.7802C632.071 99.1983 630.666 99.7992 629.352 100.569C628.676 99.6864 627.785 98.9915 626.765 98.5494C625.745 98.1073 624.629 97.9327 623.523 98.0422C620.782 98.04 618.097 98.8155 615.779 100.279V98.5159H612.957V122.413H615.779L615.78 102.624ZM654.452 102.244L655.402 101.861C656.317 101.5 657.261 101.219 658.225 101.023C659.355 100.762 660.51 100.627 661.67 100.62C662.56 100.519 663.46 100.671 664.267 101.06C665.075 101.448 665.756 102.056 666.233 102.815C667.205 105.108 667.623 107.599 667.454 110.084C667.477 111.627 667.379 113.168 667.161 114.696C666.99 115.801 666.594 116.859 665.997 117.805C665.404 118.716 664.517 119.398 663.484 119.738C662.307 120.133 661.071 120.326 659.83 120.309C658.473 120.309 656.675 120.222 654.452 120.025L654.452 102.244ZM661.908 98.0358C659.322 98.0602 656.773 98.6647 654.452 99.8048V87.9046H651.58V122.413L652.818 122.51C655.312 122.764 657.448 122.892 659.227 122.893C663.526 122.893 666.474 121.943 668.044 120.051C669.892 117.188 670.727 113.788 670.415 110.394C670.684 107.089 670.04 103.774 668.553 100.81C667.772 99.8216 666.752 99.0481 665.59 98.5627C664.427 98.0772 663.16 97.8959 661.908 98.0358V98.0358ZM677.633 115.627C677.546 115.016 677.597 114.394 677.783 113.806C677.969 113.217 678.285 112.679 678.707 112.229C679.13 111.78 679.648 111.431 680.223 111.209C680.799 110.988 681.417 110.898 682.032 110.948L689.821 110.133V118.785L688.625 119.21C687.565 119.571 686.479 119.851 685.377 120.048C684.133 120.305 682.867 120.441 681.597 120.454C678.951 120.454 677.63 118.845 677.633 115.627V115.627ZM692.64 105.637C692.811 103.57 692.179 101.515 690.874 99.9016C690.1 99.2165 689.194 98.6975 688.211 98.3766C687.228 98.0557 686.19 97.9397 685.161 98.0358C682.069 98.0847 678.988 98.4213 675.958 99.0412L676.103 101.336L677.582 101.191C680.214 100.851 682.862 100.659 685.516 100.614C686.091 100.586 686.665 100.676 687.205 100.879C687.744 101.081 688.236 101.391 688.651 101.79C689.531 102.869 689.951 104.251 689.821 105.638V107.884L681.697 108.692C679.745 108.762 677.871 109.478 676.37 110.729C675.758 111.414 675.292 112.216 675 113.087C674.707 113.958 674.595 114.879 674.669 115.795C674.544 117.696 675.14 119.575 676.338 121.057C676.972 121.694 677.736 122.188 678.578 122.505C679.42 122.822 680.319 122.954 681.217 122.894C684.316 122.87 687.376 122.203 690.204 120.934C690.916 121.619 691.766 122.144 692.698 122.474C693.629 122.804 694.62 122.93 695.605 122.845L695.747 120.551C693.807 120.332 692.766 119.623 692.64 118.453V105.638L692.64 105.637ZM712.194 98.5225H704.212V91.0077H701.334V98.5223H697.802V101.049H701.334V114.286C701.1 116.665 701.594 119.059 702.752 121.15C703.4 121.813 704.192 122.319 705.066 122.629C705.94 122.939 706.874 123.045 707.795 122.938C709.412 122.894 711.025 122.733 712.619 122.458L712.429 120.025L708.03 120.357C706.377 120.357 705.324 119.88 704.882 118.927C704.3 116.96 704.073 114.905 704.212 112.859V101.049H712.194V98.5225ZM304.937 155.726C304.937 165.352 302.021 170.164 296.188 170.163H287.056V142.247H296.188C302.021 142.247 304.937 146.74 304.937 155.726ZM296.188 172.792C304.061 172.792 307.996 167.104 307.995 155.726C307.995 144.954 304.06 139.569 296.188 139.573H284.091V172.792H296.188ZM314.733 159.645C314.532 157.285 315.157 154.928 316.502 152.978C317.154 152.262 317.96 151.704 318.858 151.344C319.757 150.984 320.725 150.832 321.69 150.899C322.618 150.818 323.552 150.957 324.415 151.305C325.279 151.653 326.048 152.201 326.659 152.903C327.875 154.931 328.418 157.29 328.213 159.645H314.733L314.733 159.645ZM328.69 170.404C326.266 170.588 323.84 170.691 321.4 170.691C320.431 170.791 319.452 170.65 318.551 170.278C317.65 169.907 316.855 169.318 316.238 168.564C315.094 166.59 314.57 164.318 314.733 162.042H330.984L331.084 159.748C331.348 156.683 330.517 153.624 328.738 151.115C327.833 150.169 326.729 149.435 325.506 148.967C324.282 148.499 322.971 148.308 321.665 148.408C315.101 148.408 311.818 152.583 311.817 160.934C311.587 164.161 312.301 167.386 313.873 170.214C314.727 171.284 315.834 172.123 317.095 172.657C318.355 173.19 319.729 173.401 321.091 173.269C324.146 173.23 327.196 173.008 330.224 172.605L330.124 170.259L328.69 170.404L328.69 170.404ZM344.225 151.038C346.997 151.101 349.761 151.358 352.497 151.808L352.593 149.268L351.298 149.078C348.925 148.706 346.53 148.498 344.128 148.456C342.01 148.388 339.917 148.938 338.106 150.039C337.292 150.584 336.637 151.336 336.208 152.218C335.78 153.099 335.593 154.079 335.666 155.056C335.559 155.923 335.664 156.804 335.974 157.621C336.283 158.439 336.787 159.169 337.442 159.748C339.315 160.808 341.392 161.458 343.535 161.655C345.48 161.839 347.384 162.331 349.174 163.112C349.656 163.477 350.031 163.964 350.262 164.522C350.493 165.081 350.572 165.691 350.489 166.289C350.55 166.946 350.434 167.608 350.152 168.205C349.871 168.802 349.434 169.312 348.888 169.682C347.519 170.427 345.971 170.776 344.415 170.691C341.658 170.612 338.91 170.339 336.191 169.872L336.001 172.408L337.39 172.605C339.633 172.999 341.903 173.221 344.18 173.269C346.595 173.429 349 172.835 351.063 171.567C351.866 170.94 352.5 170.122 352.908 169.188C353.317 168.255 353.487 167.234 353.402 166.218C353.519 165.31 353.417 164.387 353.104 163.526C352.792 162.665 352.279 161.891 351.607 161.269C349.719 160.164 347.618 159.473 345.443 159.242C343.505 159.027 341.611 158.52 339.826 157.737C339.402 157.45 339.062 157.053 338.844 156.59C338.626 156.126 338.536 155.612 338.585 155.101C338.585 152.401 340.467 151.038 344.225 151.038L344.225 151.038ZM360.672 159.645C360.468 157.286 361.091 154.929 362.434 152.978C363.087 152.262 363.894 151.704 364.793 151.344C365.693 150.984 366.662 150.832 367.629 150.899C368.556 150.819 369.49 150.958 370.353 151.307C371.217 151.655 371.986 152.202 372.598 152.904C373.81 154.932 374.352 157.291 374.145 159.645H360.672V159.645ZM374.625 170.405C372.201 170.588 369.778 170.691 367.339 170.691C366.369 170.792 365.39 170.651 364.489 170.28C363.588 169.908 362.793 169.319 362.177 168.565C361.033 166.59 360.508 164.318 360.672 162.042H376.919L377.022 159.748C377.286 156.684 376.455 153.625 374.676 151.115C373.77 150.17 372.666 149.437 371.443 148.969C370.22 148.501 368.909 148.309 367.603 148.408C361.033 148.408 357.75 152.584 357.755 160.934C357.523 164.162 358.238 167.387 359.811 170.214C360.664 171.283 361.771 172.123 363.03 172.656C364.289 173.189 365.662 173.4 367.023 173.269C370.08 173.23 373.132 173.009 376.162 172.605L376.059 170.259L374.625 170.404L374.625 170.405ZM385.813 172.792V154.863L387.054 154.147C388.188 153.565 389.354 153.047 390.547 152.594C391.941 152.038 393.379 151.598 394.845 151.279V148.415C393.22 148.73 391.639 149.242 390.137 149.939C388.625 150.601 387.177 151.403 385.813 152.333V148.888H382.993V172.792L385.813 172.792ZM412.056 148.895H404.074V141.387H401.197V148.895H397.665V151.424H401.197V164.665C400.959 167.042 401.454 169.435 402.615 171.522C403.263 172.186 404.054 172.692 404.929 173.002C405.803 173.312 406.736 173.418 407.658 173.311C409.276 173.266 410.889 173.108 412.485 172.837L412.291 170.404L407.896 170.73C406.24 170.73 405.189 170.259 404.738 169.299C404.162 167.331 403.937 165.277 404.074 163.231V151.424H412.056L412.056 148.895ZM417.164 148.895H419.99V172.792H417.164V148.895ZM417.164 139.331H419.99V142.92H417.164V139.331ZM438.344 151.424V148.895H431.126V146.501C430.976 144.833 431.257 143.154 431.942 141.625C432.303 141.174 432.774 140.823 433.309 140.606C433.844 140.388 434.426 140.311 435 140.381C435.921 140.381 437.323 140.414 439.205 140.478V138.042L434.571 137.803C433.668 137.702 432.754 137.81 431.9 138.12C431.046 138.429 430.275 138.932 429.647 139.589C428.51 141.686 428.027 144.075 428.262 146.449V148.895H425.152V151.424H428.262V172.792H431.126V151.424L438.344 151.424ZM443.12 148.895H445.94V172.792H443.12V148.895ZM443.12 139.331H445.94V142.92H443.12V139.331ZM461.433 148.408C460.039 148.267 458.631 148.439 457.312 148.911C455.993 149.384 454.796 150.144 453.809 151.138C452.297 152.955 451.541 156.158 451.54 160.747C451.248 164.115 451.969 167.494 453.612 170.449C455.004 172.331 457.596 173.271 461.388 173.269C463.501 173.204 465.608 173.012 467.697 172.692L467.601 170.259L461.913 170.688C460.813 170.848 459.69 170.73 458.646 170.347C457.602 169.963 456.671 169.325 455.936 168.49C454.779 166.073 454.285 163.392 454.505 160.721C454.255 158.072 454.803 155.409 456.081 153.074C456.824 152.298 457.739 151.706 458.751 151.345C459.764 150.984 460.846 150.863 461.913 150.993C463.783 151.048 465.649 151.208 467.501 151.473L467.646 149.027L466.547 148.895C464.858 148.598 463.148 148.435 461.433 148.408L461.433 148.408ZM474.87 165.999C474.782 164.797 475.147 163.606 475.895 162.661C476.803 161.797 478.009 161.317 479.262 161.32L487.058 160.509V169.161L485.856 169.589C484.794 169.944 483.709 170.223 482.607 170.424C481.364 170.684 480.098 170.821 478.827 170.833C476.185 170.833 474.866 169.222 474.87 166L474.87 165.999ZM489.877 156.013C490.043 153.944 489.409 151.89 488.105 150.274C487.33 149.591 486.423 149.073 485.44 148.753C484.458 148.434 483.42 148.318 482.391 148.415C479.299 148.464 476.218 148.801 473.188 149.42L473.336 151.708L474.819 151.57C477.45 151.227 480.099 151.034 482.752 150.993C483.327 150.963 483.901 151.053 484.439 151.255C484.978 151.457 485.469 151.769 485.881 152.169C486.766 153.245 487.189 154.627 487.057 156.013V158.256L478.931 159.071C476.976 159.137 475.098 159.851 473.594 161.102C472.986 161.789 472.522 162.592 472.231 163.463C471.939 164.334 471.827 165.255 471.899 166.17C471.775 168.072 472.373 169.95 473.575 171.429C474.209 172.068 474.973 172.562 475.814 172.88C476.656 173.197 477.556 173.33 478.454 173.269C481.551 173.246 484.609 172.579 487.435 171.31C488.147 171.996 488.998 172.522 489.931 172.853C490.864 173.183 491.856 173.309 492.842 173.224L492.977 170.923C491.037 170.708 489.996 170.002 489.877 168.826V156.013L489.877 156.013ZM509.708 148.895H501.726V141.387H498.858V148.895H495.317V151.424H498.858V164.665C498.625 167.041 499.116 169.431 500.266 171.522C500.916 172.185 501.709 172.69 502.584 173C503.459 173.31 504.393 173.416 505.316 173.311C506.932 173.266 508.543 173.108 510.136 172.837L509.943 170.404L505.551 170.73C503.891 170.73 502.841 170.259 502.396 169.299C501.813 167.332 501.586 165.278 501.726 163.231V151.424H509.708L509.708 148.895ZM514.867 148.895H517.686V172.792H514.867V148.895ZM514.867 139.331H517.686V142.921H514.867V139.331ZM526.206 160.721C525.953 158.057 526.476 155.377 527.711 153.003C529.262 151.672 531.239 150.941 533.283 150.944C535.327 150.948 537.302 151.685 538.848 153.023C540.073 155.393 540.595 158.064 540.353 160.721C540.565 163.398 540.103 166.086 539.009 168.539C538.119 170.002 536.201 170.733 533.254 170.733C530.305 170.733 528.392 170.01 527.515 168.564C526.447 166.095 525.998 163.403 526.206 160.721H526.206ZM523.235 160.792C522.953 164.136 523.689 167.487 525.346 170.404C526.741 172.312 529.393 173.269 533.279 173.269C537.166 173.269 539.795 172.312 541.184 170.404C542.819 167.479 543.543 164.132 543.266 160.792C543.57 157.444 542.774 154.088 540.997 151.234C538.827 149.413 536.084 148.415 533.25 148.415C530.417 148.415 527.674 149.413 525.504 151.234C523.73 154.09 522.934 157.444 523.235 160.792V160.792ZM551.344 153.003L552.35 152.523C553.259 152.085 554.212 151.742 555.192 151.499C556.336 151.174 557.518 151.004 558.707 150.993C559.562 150.867 560.435 150.982 561.228 151.324C562.021 151.666 562.704 152.222 563.199 152.929C564.078 155.302 564.435 157.837 564.247 160.36V172.792H567.118V160.222C567.379 157.044 566.829 153.852 565.52 150.944C564.762 150.011 563.776 149.288 562.658 148.845C561.541 148.402 560.328 148.254 559.136 148.415C556.389 148.479 553.705 149.252 551.344 150.658V148.889H548.525V172.792H551.344V153.003ZM197.454 67.6937C196.81 67.9869 196.155 68.293 195.485 68.6282C194.161 69.2887 192.769 70.0492 191.335 70.8806C189.778 71.7828 188.167 72.7689 186.517 73.8258C168.014 85.6972 145.035 106.146 145.035 106.146C145.035 106.146 157.909 110.184 169.422 106.182C169.422 106.182 187.2 88.5843 198.347 83.0322C198.392 83.0064 198.45 82.9806 198.495 82.9548C198.521 82.1525 198.556 81.3533 198.556 80.5477C198.556 79.1814 198.501 77.8248 198.434 76.481C198.314 74.3961 198.119 72.3338 197.847 70.294L197.454 67.6937ZM196.516 63.0243C196.481 62.8986 196.455 62.7794 196.423 62.6634C196.371 62.4668 196.329 62.2638 196.284 62.0705C196.191 61.7032 196.078 61.3487 195.978 60.9878C195.81 60.3207 195.617 59.6602 195.433 59.0028C195.324 58.6419 195.218 58.2745 195.102 57.9072C195.04 57.6977 194.973 57.4818 194.911 57.2691C194.634 56.4248 194.351 55.5838 194.051 54.7491C194.016 54.6589 193.983 54.5687 193.958 54.4785C193.742 53.8856 193.51 53.2991 193.278 52.7158C193.081 52.2228 192.891 51.733 192.685 51.2464C192.546 50.9178 192.401 50.5923 192.263 50.2668C185.445 34.4402 173.278 21.5153 157.893 13.7539C147.213 8.27976 135.37 5.4616 123.37 5.53839C111.369 5.61518 99.5634 8.58467 88.9545 14.1951C78.3455 19.8055 69.2459 27.8913 62.4271 37.7671C55.6084 47.6428 51.2715 59.0172 49.7844 70.9258C49.7811 70.9741 49.7747 71.016 49.7715 71.0611C49.6458 72.0342 49.5395 73.0203 49.4653 74.0096C49.446 74.19 49.4202 74.3705 49.4041 74.5574C49.3526 75.247 49.3107 75.9398 49.2752 76.6294C49.2559 77.0773 49.2172 77.522 49.2043 77.9763C49.1979 78.073 49.1915 78.1697 49.1882 78.2696H49.1915C49.1721 79.0267 49.1462 79.7841 49.1462 80.5478C49.1445 99.5916 56.4165 117.917 69.4757 131.778C82.5349 145.639 100.395 153.989 119.405 155.12C138.415 156.252 157.14 150.08 171.751 137.866C186.363 125.652 195.757 108.319 198.015 89.4095C196.449 90.0462 194.925 90.7802 193.452 91.6071C186.623 95.6586 180.477 100.762 175.239 106.73C166.58 116.271 157.889 123.593 145.68 127.105C131.794 131.091 114.48 130.798 101.497 123.399C99.1166 122.039 96.889 120.428 94.8528 118.592C94.0601 117.866 92.5778 116.674 92.4135 115.463C91.856 111.415 104.307 115.395 105.774 115.772C112.006 117.41 118.115 119.488 124.054 121.991C128.376 123.963 133.067 124.995 137.817 125.018C142.568 125.04 147.269 124.054 151.609 122.123C155.485 120.24 159.029 117.74 162.104 114.721C163.378 113.575 164.5 112.27 165.443 110.838C138.455 114.096 147.288 110.02 84.4478 81.8819C75.4599 77.788 65.8063 75.3514 55.9521 74.6895C57.2133 59.1407 63.7738 44.4959 74.5367 33.2036C85.2997 21.9113 99.6128 14.6558 115.083 12.6501C130.554 10.6444 146.244 14.01 159.531 22.1843C172.817 30.3585 182.895 42.8461 188.08 57.5592C182.427 58.274 176.948 59.994 171.9 62.6378C164.708 66.6336 126.478 97.9682 126.478 97.9682L141.03 104.616C147.081 98.5854 153.595 93.0377 160.512 88.0238C171.82 79.449 180.234 73.4683 186.517 69.2823C187.987 68.2963 189.346 67.408 190.597 66.6174C192.917 65.1319 194.882 63.9525 196.51 63.0277L196.516 63.0243ZM139.238 69.582C118.544 83.7541 110.417 90.2762 110.417 90.2762C110.417 90.2762 119.936 94.9422 122.891 96.3601L153.407 70.8452C153.407 70.8452 165.288 62.0964 170.093 59.5829C170.093 59.5829 156.929 57.4755 139.238 69.5821L139.238 69.582ZM110.717 56.5732C110.353 56.7279 109.985 56.8761 109.624 57.0275C108.351 57.5528 107.037 58.1006 105.773 58.6677L105.036 58.9963C105.353 67.553 104.066 76.0934 101.24 84.1762L106.47 86.8733C109.785 77.1317 111.226 66.8507 110.717 56.5732ZM104.9 55.5227C106.779 54.6816 108.687 53.9244 110.562 53.1252C113.902 51.8398 117.057 50.1158 119.942 47.9984C124.312 44.7079 127.605 40.1935 129.403 35.0282C130.86 30.7488 132.078 26.3857 133.402 22.0645C133.254 21.9968 133.109 21.9324 132.961 21.8583C101.678 31.4288 104.736 55.5871 104.736 55.5871C104.792 55.569 104.847 55.5475 104.9 55.5227H104.9ZM101.391 55.0264C100.133 50.668 97.6488 46.7631 94.234 43.777C91.2888 41.1572 88.192 38.6631 85.1597 36.1109C85.0566 36.1722 84.9471 36.2431 84.8407 36.3205C83.6565 42.7795 84.7335 49.4494 87.8904 55.2075C91.0474 60.9656 96.0916 65.4604 102.174 67.9354C102.519 63.617 102.255 59.2715 101.391 55.0265L101.391 55.0264ZM117.977 170.846C114.37 170.385 110.724 170.321 107.104 170.656C101.501 171.248 96.06 172.895 91.0697 175.512C85.7034 178.194 80.0895 180.349 74.3068 181.947C67.3369 183.791 59.9397 183.116 53.4192 180.039C53.3362 180.002 53.2426 179.994 53.1545 180.018C53.0664 180.041 52.9893 180.095 52.9364 180.169C52.8835 180.243 52.858 180.334 52.8644 180.425C52.8707 180.516 52.9085 180.602 52.9713 180.668C57.0368 184.572 61.9915 187.429 67.4077 188.991C73.6477 191.006 80.3635 191.006 86.6035 188.991C92.4392 187.325 97.6627 183.32 102.699 180.03C105.98 177.89 109.064 175.054 112.969 174.133C114.803 173.754 116.693 173.736 118.534 174.081C120.348 173.319 122.208 172.671 124.103 172.141C122.097 171.552 120.049 171.119 117.977 170.846L117.977 170.846ZM125.453 176.076C132.449 178.828 138.565 184.29 144.02 189.342C144.665 189.935 150.903 196.045 152.228 197.576C152.263 197.618 152.306 197.652 152.355 197.676C152.404 197.7 152.457 197.713 152.512 197.715C152.566 197.717 152.62 197.707 152.671 197.686C152.721 197.666 152.767 197.635 152.804 197.595L157.151 193.255C157.226 193.177 157.267 193.073 157.265 192.966C157.263 192.858 157.219 192.756 157.142 192.681C150.922 187.032 144.146 182.027 136.918 177.742C134.574 176.407 132.158 175.203 129.68 174.136C127.767 174.427 125.887 174.904 124.067 175.56C124.541 175.731 125.008 175.896 125.453 176.076L125.453 176.076ZM69.3927 177.075C78.1884 176.234 86.8579 174.383 95.2299 171.558C95.3115 171.531 95.3819 171.478 95.4306 171.408C95.4793 171.337 95.5034 171.252 95.4994 171.166C95.4954 171.08 95.4634 170.998 95.4083 170.932C95.3533 170.866 95.2782 170.82 95.1945 170.801C84.9523 168.2 75.8716 162.254 69.3927 153.906C66.0282 150.058 62.1407 146.701 57.8436 143.933C57.7724 143.889 57.689 143.869 57.6056 143.875C57.5222 143.882 57.4431 143.915 57.3796 143.969C57.3162 144.024 57.2717 144.097 57.2525 144.179C57.2334 144.26 57.2407 144.346 57.2733 144.423C58.6525 147.713 62.9286 157.48 66.7439 161.849C69.287 164.581 72.3117 166.82 75.6666 168.455C75.7498 168.498 75.8149 168.569 75.8501 168.656C75.8854 168.743 75.8886 168.839 75.8591 168.928C75.8296 169.017 75.7693 169.093 75.6891 169.141C75.609 169.19 75.5142 169.208 75.4217 169.193C64.6815 167.353 60.473 168.352 50.1935 167.14C43.9945 166.363 38.0968 164.015 33.0601 160.318C32.9874 160.262 32.8975 160.234 32.806 160.237C32.7144 160.241 32.627 160.276 32.5588 160.338C32.4907 160.399 32.4461 160.482 32.4329 160.573C32.4197 160.663 32.4387 160.756 32.4865 160.834C34.3515 163.609 36.5172 166.171 38.9442 168.471C45.563 175.087 54.3472 178.013 69.3926 177.075L69.3927 177.075ZM63.7986 164.707C63.8809 164.726 63.9673 164.718 64.0446 164.684C64.1219 164.649 64.1858 164.591 64.2267 164.517C64.2676 164.443 64.2831 164.357 64.271 164.274C64.2588 164.19 64.2197 164.112 64.1595 164.053C59.9059 159.838 55.8553 152.282 52.1818 140.658C49.5989 133.116 45.5404 126.164 40.2428 120.206C40.184 120.14 40.1046 120.095 40.0175 120.079C39.9303 120.064 39.8404 120.078 39.7622 120.12C39.6841 120.161 39.6223 120.228 39.5867 120.309C39.5511 120.39 39.5439 120.481 39.5661 120.567C40.6037 124.44 41.4995 132.261 42.9335 140.001C44.6414 149.207 52.981 157.009 54.3795 158.262C48.0367 153.272 41.0662 149.135 33.6465 145.959C25.7718 142.49 18.7022 137.425 12.8846 131.085C12.8236 131.015 12.7399 130.968 12.6481 130.954C12.5564 130.94 12.4626 130.959 12.3832 131.007C12.3038 131.055 12.244 131.13 12.2143 131.217C12.1846 131.305 12.1869 131.401 12.2208 131.488C14.4286 136.669 17.313 141.535 20.7989 145.959C23.8574 150.224 27.7437 153.829 32.226 156.559C36.7083 159.289 41.6946 161.088 46.8874 161.849C52.5701 162.509 58.2148 163.463 63.7986 164.707V164.707ZM24.7914 136.095C30.1513 138.766 35.2892 141.861 40.1558 145.35C40.2277 145.399 40.3139 145.423 40.4008 145.417C40.4877 145.412 40.5702 145.378 40.6354 145.32C40.7005 145.262 40.7445 145.184 40.7604 145.099C40.7762 145.013 40.7631 144.925 40.723 144.847C36.8667 136.344 35.0747 127.049 35.493 117.721C35.5014 109.936 34.1007 102.213 31.3587 94.9261C31.3274 94.8416 31.2679 94.7706 31.1903 94.7249C31.1127 94.6792 31.0218 94.6617 30.9328 94.6754C30.8437 94.689 30.7622 94.7329 30.7018 94.7997C30.6414 94.8666 30.606 94.9521 30.6014 95.0421C30.3371 99.0926 28.8162 106.694 27.553 114.338C26.7858 119.949 27.7033 125.661 30.189 130.749C31.2133 132.159 32.0728 133.681 32.7509 135.287C31.7643 133.853 30.907 132.335 30.189 130.749C26.5012 125.583 22.1831 120.897 17.3348 116.8C11.0152 111.608 6.33552 104.697 3.86186 96.9015C3.83858 96.8101 3.7828 96.7303 3.70495 96.6771C3.6271 96.6238 3.53251 96.6008 3.43889 96.6122C3.34526 96.6237 3.25903 96.6688 3.19631 96.7393C3.13359 96.8097 3.09869 96.9006 3.09814 96.9949C3.198 102.45 4.19299 107.852 6.04338 112.984C10.1841 125.565 18.0984 133.131 24.7913 136.096L24.7914 136.095ZM30.1889 130.75C30.908 132.336 31.7653 133.857 32.7508 135.293C32.074 133.685 31.2144 132.161 30.1889 130.75V130.75ZM23.3252 117.986C23.3836 118.037 23.4561 118.07 23.5334 118.081C23.6106 118.091 23.6892 118.078 23.7591 118.043C23.8289 118.009 23.8869 117.954 23.9256 117.887C23.9642 117.819 23.9818 117.741 23.9761 117.663C23.5613 109.577 24.9344 101.499 27.9977 94.0046C31.0374 85.8816 32.5166 77.2579 32.3576 68.5863C32.3576 68.4998 32.3289 68.4158 32.276 68.3475C32.2231 68.2791 32.149 68.2302 32.0653 68.2085C31.9817 68.1867 31.8932 68.1934 31.8137 68.2273C31.7342 68.2613 31.6682 68.3207 31.6261 68.3962C29.7958 71.596 24.9042 80.1418 23.8311 81.7433C21.8301 85.1542 20.3794 88.8592 19.5325 92.7219C19.028 95.293 18.8472 97.9171 18.9944 100.533C18.9979 100.63 18.9654 100.725 18.903 100.8C18.8407 100.875 18.753 100.924 18.6567 100.938C18.5604 100.952 18.4623 100.93 18.3813 100.876C18.3003 100.822 18.242 100.74 18.2178 100.646C17.2253 96.6597 15.8847 91.4363 14.9374 88.5199C13.6677 84.579 10.9738 79.8776 9.33681 74.9731C7.97144 71.3404 6.89819 67.6045 6.12729 63.801C6.11455 63.7098 6.07003 63.626 6.00156 63.5644C5.9331 63.5028 5.84509 63.4673 5.75304 63.4642C5.66098 63.4611 5.5708 63.4906 5.49837 63.5475C5.42593 63.6044 5.37591 63.6851 5.3571 63.7752C4.11974 69.7914 1.61917 86.2128 7.98329 97.633C11.9469 105.212 17.13 112.088 23.3252 117.986V117.986ZM15.6656 79.7068C16.1296 81.3276 16.6033 83.7863 16.9675 85.8841C16.982 85.9688 17.0239 86.0464 17.0866 86.105C17.1494 86.1637 17.2296 86.2001 17.3151 86.2089C17.4006 86.2177 17.4866 86.1982 17.5599 86.1536C17.6333 86.1089 17.69 86.0414 17.7215 85.9615C20.9015 79.1146 24.6562 72.5496 28.9452 66.337L28.9613 66.3242C36.8659 56.3057 38.5576 48.4076 38.9056 45.1111C38.9146 45.0232 38.8936 44.9348 38.8461 44.8603C38.7987 44.7857 38.7274 44.7294 38.644 44.7003C38.5605 44.6713 38.4697 44.6712 38.3862 44.7001C38.3027 44.729 38.2314 44.7853 38.1838 44.8597C35.6193 48.6478 32.417 51.9623 28.7195 54.6558C24.3667 58.2629 21.1078 63.014 19.3101 68.3736C19.2801 68.462 19.2193 68.5366 19.1388 68.5839C19.0583 68.6312 18.9635 68.6479 18.8717 68.6311C18.7799 68.6143 18.6972 68.5651 18.6386 68.4924C18.5801 68.4197 18.5497 68.3283 18.5529 68.235C18.7565 61.2784 18.4074 54.3165 17.5088 47.4151C16.6864 42.5384 16.9672 37.5394 18.3305 32.7854C18.3583 32.6965 18.3536 32.6006 18.3172 32.5148C18.2808 32.429 18.2151 32.359 18.1319 32.3172C18.0486 32.2754 17.9532 32.2645 17.8627 32.2865C17.7722 32.3085 17.6924 32.362 17.6377 32.4374C16.5678 33.8939 15.2144 35.7887 14.2412 37.3741C12.1037 41.2155 10.7099 45.4256 10.1327 49.7836C9.37849 53.9918 9.40144 58.3025 10.2004 62.5024C11.3959 68.4476 13.9933 73.8774 15.6656 79.7068V79.7068ZM20.7699 56.8503C20.77 56.9311 20.7949 57.0099 20.8412 57.0762C20.8876 57.1424 20.9531 57.1928 21.029 57.2205C21.1049 57.2483 21.1875 57.2521 21.2657 57.2314C21.3438 57.2107 21.4137 57.1665 21.4659 57.1048C24.6149 53.3736 28.0578 49.9005 31.7615 46.7191C38.2578 41.1122 48.6372 34.4353 49.243 23.5823C49.2491 23.4972 49.2271 23.4124 49.1806 23.341C49.134 23.2695 49.0653 23.2152 48.985 23.1863C48.9047 23.1575 48.8172 23.1557 48.7358 23.1812C48.6544 23.2068 48.5835 23.2582 48.5341 23.3277C46.0071 26.6985 42.9424 29.6304 39.463 32.0056C34.4862 35.1729 30.1962 39.3073 26.8473 44.1638C26.7971 44.2421 26.7207 44.3001 26.6317 44.3273C26.5427 44.3546 26.4469 44.3494 26.3615 44.3126C26.276 44.2759 26.2063 44.21 26.1648 44.1266C26.1234 44.0433 26.1129 43.948 26.1352 43.8576C27.234 39.3205 29.3028 30.6845 29.8828 28.0357C30.6157 23.348 32.6121 18.9487 35.6573 15.3104C35.7216 15.2466 35.7619 15.1625 35.7714 15.0724C35.7808 14.9823 35.7589 14.8917 35.7093 14.8159C35.6596 14.7401 35.5853 14.6838 35.4989 14.6565C35.4126 14.6291 35.3194 14.6325 35.2352 14.6659C30.6386 16.35 26.7148 19.4843 24.0567 23.5952C19.8612 30.836 20.5508 42.0435 20.5508 43.6837C20.5508 45.0241 20.7183 53.7794 20.7698 56.8503L20.7699 56.8503ZM32.8216 33.3043C37.1428 29.2633 45.5823 22.9926 49.5008 17.5274C53.9219 11.3629 58.5718 5.07601 60.2733 2.78808C60.3225 2.72124 60.3494 2.64052 60.35 2.55747C60.3507 2.47442 60.325 2.39331 60.2767 2.32573C60.2285 2.25815 60.1601 2.20757 60.0813 2.18122C60.0025 2.15488 59.9175 2.15412 59.8382 2.17906C54.4164 4.07816 49.287 6.72688 44.5995 10.0481C35.7411 15.9548 32.8603 28.999 32.1675 32.9433C32.153 33.0245 32.1643 33.1081 32.1998 33.1825C32.2353 33.2569 32.2932 33.3183 32.3653 33.3581C32.4375 33.3979 32.5203 33.4141 32.6021 33.4045C32.684 33.3948 32.7607 33.3598 32.8216 33.3043L32.8216 33.3043ZM194.361 180.165C187.841 183.235 180.448 183.91 173.479 182.073C167.697 180.474 162.083 178.318 156.716 175.638C151.724 173.022 146.283 171.375 140.679 170.781C137.058 170.445 133.41 170.506 129.803 170.965C127.877 171.218 125.972 171.611 124.103 172.141C126.001 172.691 127.864 173.358 129.68 174.136C131.385 173.858 133.126 173.896 134.817 174.249C138.719 175.177 141.803 178.013 145.08 180.152C150.117 183.442 155.34 187.448 161.176 189.114C167.416 191.131 174.132 191.131 180.372 189.114C185.787 187.551 190.742 184.696 194.808 180.793C194.873 180.728 194.913 180.641 194.921 180.549C194.928 180.457 194.903 180.366 194.849 180.29C194.796 180.215 194.717 180.161 194.628 180.138C194.538 180.115 194.444 180.125 194.36 180.165H194.361ZM110.862 177.858C103.635 182.145 96.8611 187.154 90.6443 192.807C90.6044 192.842 90.5724 192.885 90.5501 192.934C90.5279 192.982 90.5159 193.035 90.515 193.088C90.5141 193.141 90.5242 193.194 90.5448 193.243C90.5654 193.293 90.596 193.337 90.6346 193.374L94.9751 197.724C95.0141 197.762 95.0604 197.792 95.1112 197.812C95.1621 197.831 95.2164 197.841 95.2709 197.839C95.3254 197.837 95.379 197.824 95.4284 197.801C95.4778 197.778 95.522 197.745 95.5584 197.705C96.8828 196.168 103.121 190.048 103.763 189.459C109.221 184.419 115.338 178.954 122.333 176.195C122.884 175.976 123.477 175.767 124.07 175.554C122.275 174.893 120.423 174.4 118.537 174.081C115.907 175.188 113.344 176.449 110.862 177.858V177.858ZM118.537 174.081C120.422 174.399 122.274 174.892 124.067 175.554C125.887 174.899 127.768 174.425 129.68 174.136C127.864 173.36 126.002 172.694 124.106 172.141C122.211 172.671 120.351 173.319 118.537 174.081V174.081ZM214.726 160.438C209.686 164.136 203.785 166.487 197.583 167.269C187.307 168.474 183.101 167.475 172.361 169.312C172.268 169.328 172.172 169.309 172.091 169.26C172.01 169.212 171.949 169.136 171.919 169.046C171.889 168.956 171.892 168.859 171.928 168.771C171.963 168.683 172.029 168.611 172.113 168.568C175.473 166.946 178.499 164.707 181.033 161.968C184.858 157.602 189.127 147.838 190.51 144.541C190.542 144.464 190.548 144.379 190.528 144.298C190.509 144.217 190.464 144.144 190.4 144.09C190.336 144.036 190.256 144.004 190.173 143.998C190.09 143.993 190.007 144.014 189.936 144.058C185.639 146.824 181.752 150.179 178.387 154.025C171.912 162.38 162.829 168.328 152.582 170.923C152.499 170.944 152.425 170.992 152.372 171.058C152.318 171.125 152.287 171.207 152.284 171.293C152.28 171.378 152.305 171.462 152.353 171.533C152.402 171.603 152.472 171.656 152.553 171.684C160.926 174.503 169.593 176.354 178.387 177.2C193.432 178.138 202.217 175.209 208.839 168.59C211.265 166.293 213.43 163.734 215.293 160.96C215.341 160.882 215.36 160.79 215.348 160.7C215.335 160.61 215.292 160.527 215.225 160.465C215.158 160.403 215.071 160.367 214.98 160.362C214.889 160.357 214.799 160.384 214.726 160.437L214.726 160.438ZM234.902 131.21C229.08 137.546 222.011 142.61 214.14 146.085C206.718 149.259 199.745 153.394 193.4 158.385C194.805 157.131 203.145 149.327 204.853 140.123C206.287 132.383 207.182 124.559 208.214 120.686C208.236 120.601 208.23 120.511 208.195 120.43C208.16 120.349 208.099 120.282 208.021 120.24C207.944 120.199 207.854 120.184 207.768 120.2C207.681 120.215 207.602 120.259 207.543 120.325C202.248 126.286 198.189 133.241 195.604 140.784C191.931 152.41 187.874 159.957 183.627 164.176C183.567 164.235 183.528 164.313 183.516 164.397C183.503 164.481 183.519 164.567 183.559 164.641C183.6 164.716 183.664 164.775 183.741 164.81C183.818 164.845 183.905 164.854 183.988 164.836C189.571 163.587 195.216 162.63 200.899 161.968C206.091 161.209 211.078 159.411 215.56 156.682C220.042 153.953 223.929 150.349 226.987 146.085C230.475 141.662 233.358 136.794 235.562 131.61C235.597 131.524 235.599 131.428 235.57 131.34C235.54 131.253 235.481 131.178 235.401 131.13C235.322 131.082 235.228 131.064 235.137 131.078C235.045 131.093 234.962 131.14 234.902 131.21V131.21ZM244.688 97.1238C244.688 97.0293 244.654 96.938 244.591 96.8671C244.529 96.7962 244.443 96.7505 244.349 96.7386C244.255 96.7268 244.16 96.7495 244.082 96.8027C244.004 96.8558 243.948 96.9356 243.924 97.0271C241.448 104.824 236.766 111.736 230.445 116.929C225.593 121.017 221.277 125.7 217.597 130.869C216.88 132.457 216.022 133.979 215.035 135.416C215.709 133.805 216.569 132.279 217.597 130.869C220.08 125.779 220.995 120.067 220.227 114.457C218.964 106.823 217.44 99.2216 217.185 95.171C217.18 95.0812 217.145 94.9959 217.084 94.9292C217.024 94.8626 216.942 94.8188 216.854 94.8052C216.765 94.7916 216.674 94.809 216.596 94.8545C216.519 94.9 216.459 94.9708 216.428 95.055C213.677 102.34 212.274 110.064 212.287 117.85C212.709 127.176 210.919 136.468 207.064 144.97C207.022 145.047 207.008 145.136 207.024 145.222C207.04 145.308 207.084 145.386 207.149 145.444C207.215 145.502 207.298 145.536 207.386 145.54C207.473 145.545 207.559 145.52 207.631 145.469C212.498 141.983 217.636 138.891 222.995 136.221C229.678 133.26 237.602 125.687 241.737 113.107C243.581 107.975 244.578 102.576 244.688 97.1238ZM217.594 130.869C216.567 132.28 215.708 133.806 215.035 135.416C216.019 133.977 216.875 132.456 217.594 130.869V130.869ZM229.565 100.768C229.541 100.862 229.484 100.943 229.404 100.997C229.324 101.051 229.227 101.074 229.131 101.06C229.035 101.047 228.948 100.999 228.885 100.926C228.823 100.852 228.79 100.759 228.792 100.662C228.937 98.044 228.757 95.4179 228.254 92.8445C227.407 88.9827 225.956 85.2787 223.955 81.869C222.882 80.2643 217.984 71.7152 216.154 68.5187C216.111 68.4438 216.046 68.3849 215.967 68.3511C215.888 68.3173 215.8 68.3105 215.716 68.3318C215.633 68.3531 215.559 68.4012 215.506 68.4688C215.453 68.5364 215.423 68.6196 215.422 68.7055C215.264 77.3773 216.745 86.001 219.785 94.1238C222.848 101.621 224.221 109.701 223.807 117.789C223.803 117.867 223.821 117.944 223.861 118.01C223.901 118.077 223.959 118.131 224.029 118.164C224.099 118.198 224.178 118.21 224.255 118.199C224.331 118.187 224.403 118.154 224.461 118.102C230.657 112.209 235.84 105.336 239.803 97.7587C246.167 86.3417 243.657 69.9171 242.429 63.9009C242.41 63.8107 242.359 63.7301 242.287 63.6732C242.214 63.6164 242.124 63.5869 242.031 63.59C241.939 63.5931 241.851 63.6285 241.782 63.6901C241.714 63.7516 241.669 63.8354 241.656 63.9267C240.881 67.7289 239.809 71.4644 238.449 75.0987C236.812 80.0065 234.118 84.7047 232.842 88.6425C231.901 91.5555 230.554 96.7823 229.565 100.768H229.565ZM219.063 54.7783C215.363 52.0872 212.159 48.7724 209.596 44.9822C209.548 44.908 209.476 44.8522 209.393 44.8237C209.309 44.7952 209.218 44.7957 209.135 44.8251C209.051 44.8545 208.98 44.9111 208.933 44.9857C208.886 45.0604 208.865 45.1489 208.874 45.2368C209.225 48.5301 210.917 56.4282 218.819 66.4466L218.835 66.4627C223.125 72.6736 226.879 79.2376 230.058 86.0839C230.089 86.1643 230.146 86.2322 230.219 86.2772C230.293 86.3223 230.379 86.3419 230.465 86.3331C230.551 86.3243 230.631 86.2876 230.694 86.2286C230.757 86.1696 230.798 86.0916 230.812 86.0066C231.18 83.9152 231.653 81.4501 232.117 79.8325C233.787 73.9999 236.387 68.5702 237.586 62.6248C238.381 58.4244 238.402 54.1143 237.65 49.906C237.07 45.5482 235.675 41.3385 233.538 37.4965C232.572 35.9143 231.215 34.0163 230.142 32.563C230.088 32.4879 230.008 32.4345 229.918 32.4125C229.828 32.3904 229.734 32.401 229.651 32.4424C229.568 32.4839 229.502 32.5534 229.466 32.6387C229.43 32.7239 229.425 32.8193 229.452 32.9078C230.818 37.6626 231.097 42.6633 230.271 47.5407C229.372 54.4421 229.025 61.4041 229.233 68.3607C229.236 68.4541 229.205 68.5453 229.146 68.6179C229.087 68.6905 229.004 68.7396 228.912 68.7563C228.82 68.7731 228.726 68.7564 228.645 68.7092C228.564 68.662 228.503 68.5875 228.473 68.4992C226.679 63.1369 223.419 58.3839 219.063 54.7782L219.063 54.7783ZM217.897 28.1547C218.48 30.8036 220.559 39.4396 221.645 43.9864C221.666 44.0768 221.655 44.1721 221.613 44.255C221.571 44.338 221.501 44.4032 221.415 44.4389C221.329 44.4747 221.233 44.4786 221.145 44.45C221.056 44.4214 220.981 44.3621 220.932 44.2829C217.586 39.4264 213.298 35.2919 208.323 32.1248C204.842 29.7501 201.777 26.8182 199.249 23.4468C199.199 23.3775 199.129 23.3262 199.047 23.3005C198.966 23.2749 198.879 23.2764 198.798 23.3048C198.718 23.3331 198.649 23.3868 198.602 23.4578C198.555 23.5287 198.532 23.6131 198.537 23.6982C199.146 34.5512 209.528 41.2345 216.031 46.8382C219.73 50.0216 223.169 53.4945 226.317 57.2239C226.369 57.2851 226.438 57.329 226.516 57.3498C226.593 57.3706 226.675 57.3673 226.751 57.3404C226.826 57.3134 226.892 57.2641 226.939 57.199C226.986 57.1339 227.012 57.056 227.013 56.9758C227.065 53.8984 227.229 45.1432 227.229 43.8026C227.229 42.1689 227.925 30.9582 223.723 23.7206C221.068 19.6051 217.144 16.4678 212.544 14.7849C212.46 14.7528 212.368 14.7506 212.283 14.7785C212.197 14.8065 212.124 14.863 212.075 14.9386C212.026 15.0141 212.005 15.1041 212.015 15.1935C212.025 15.2828 212.065 15.3661 212.129 15.4294C215.169 19.0704 217.162 23.4687 217.897 28.1546L217.897 28.1547ZM198.279 17.6466C202.204 23.1182 210.637 29.3858 214.958 33.4235C215.018 33.4799 215.094 33.516 215.175 33.5268C215.257 33.5376 215.339 33.5225 215.412 33.4837C215.484 33.4448 215.542 33.3842 215.578 33.3103C215.614 33.2365 215.626 33.1531 215.612 33.0722C214.926 29.1183 212.039 16.0805 203.183 10.177C198.495 6.85328 193.365 4.2024 187.942 2.30154C187.862 2.27704 187.778 2.27822 187.699 2.30491C187.621 2.33161 187.553 2.38244 187.506 2.4501C187.458 2.51776 187.433 2.59878 187.434 2.68151C187.436 2.76423 187.463 2.84442 187.513 2.91054C189.214 5.20489 193.861 11.4854 198.279 17.6466" fill="#418FDE"/>
</svg>
