<?xml version="1.0" encoding="utf-8"?>
<!-- Generator: Adobe Illustrator 16.0.0, SVG Export Plug-In . SVG Version: 6.00 Build 0)  -->
<!DOCTYPE svg PUBLIC "-//W3C//DTD SVG 1.1//EN" "http://www.w3.org/Graphics/SVG/1.1/DTD/svg11.dtd">
<svg version="1.1" id="Layer_1" xmlns="http://www.w3.org/2000/svg" xmlns:xlink="http://www.w3.org/1999/xlink" x="0px" y="0px"
	 width="231.766px" height="54.436px" viewBox="0 138.184 231.766 54.436" enable-background="new 0 138.184 231.766 54.436"
	 xml:space="preserve">
<g>
	<g>
		<g>
			<g>
				<g>
					<path fill="#2A317D" d="M65.847,177.655c0.201,0,0.302,0.101,0.302,0.302c0,0.2-0.101,0.301-0.302,0.301
						c-0.201,0-0.301-0.101-0.301-0.301C65.546,177.755,65.747,177.655,65.847,177.655z"/>
					<path fill="#2A317D" d="M65.847,175.144c0.201,0,0.302,0.101,0.302,0.302c0,0.2-0.101,0.301-0.302,0.301
						c-0.201,0-0.301-0.101-0.301-0.301C65.546,175.245,65.747,175.144,65.847,175.144z"/>
					<path fill="#2A317D" d="M65.847,172.633c0.201,0,0.302,0.101,0.302,0.302c0,0.2-0.101,0.301-0.302,0.301
						c-0.201,0-0.301-0.101-0.301-0.301C65.546,172.734,65.747,172.633,65.847,172.633z"/>
					<path fill="#2A317D" d="M65.847,170.123c0.201,0,0.302,0.101,0.302,0.302c0,0.199-0.101,0.301-0.302,0.301
						c-0.201,0-0.301-0.102-0.301-0.301C65.546,170.323,65.747,170.123,65.847,170.123z"/>
					<path fill="#2A317D" d="M65.847,167.712c0.201,0,0.302,0.1,0.302,0.301s-0.101,0.301-0.302,0.301
						c-0.201,0-0.301-0.1-0.301-0.301S65.747,167.712,65.847,167.712z"/>
					<path fill="#2A317D" d="M65.847,165.201c0.201,0,0.302,0.101,0.302,0.302s-0.101,0.301-0.302,0.301
						c-0.201,0-0.301-0.1-0.301-0.301S65.747,165.201,65.847,165.201z"/>
					<path fill="#2A317D" d="M65.847,162.69c0.201,0,0.302,0.101,0.302,0.302s-0.101,0.301-0.302,0.301
						c-0.201,0-0.301-0.1-0.301-0.301C65.546,162.891,65.747,162.69,65.847,162.69z"/>
					<path fill="#2A317D" d="M65.847,160.179c0.201,0,0.302,0.101,0.302,0.302c0,0.2-0.101,0.301-0.302,0.301
						c-0.201,0-0.301-0.101-0.301-0.301C65.546,160.38,65.747,160.179,65.847,160.179z"/>
					<path fill="#2A317D" d="M65.847,157.768c0.201,0,0.302,0.102,0.302,0.302c0,0.201-0.101,0.302-0.302,0.302
						c-0.201,0-0.301-0.101-0.301-0.302C65.546,157.87,65.747,157.768,65.847,157.768z"/>
					<path fill="#2A317D" d="M65.847,155.257c0.201,0,0.302,0.102,0.302,0.302c0,0.201-0.101,0.302-0.302,0.302
						c-0.201,0-0.301-0.101-0.301-0.302C65.546,155.359,65.747,155.257,65.847,155.257z"/>
					<path fill="#2A317D" d="M65.847,152.747c0.201,0,0.302,0.102,0.302,0.302s-0.101,0.302-0.302,0.302
						c-0.201,0-0.301-0.102-0.301-0.302C65.546,152.948,65.747,152.747,65.847,152.747z"/>
					<path fill="#2A317D" d="M65.847,150.236c0.201,0,0.302,0.102,0.302,0.301c0,0.201-0.101,0.303-0.302,0.303
						c-0.201,0-0.301-0.102-0.301-0.303C65.546,150.437,65.747,150.236,65.847,150.236z"/>
					<path fill="#2A317D" d="M65.847,147.826c0.201,0,0.302,0.101,0.302,0.302s-0.101,0.301-0.302,0.301
						c-0.201,0-0.301-0.1-0.301-0.301S65.747,147.826,65.847,147.826z"/>
					<path fill="#2A317D" d="M65.847,145.315c0.201,0,0.302,0.101,0.302,0.302s-0.101,0.301-0.302,0.301
						c-0.201,0-0.301-0.1-0.301-0.301S65.747,145.315,65.847,145.315z"/>
				</g>
				<g>
					<path fill="#2A317D" d="M65.847,184.987c0.201,0,0.302,0.101,0.302,0.301c0,0.201-0.101,0.302-0.302,0.302
						c-0.201,0-0.301-0.101-0.301-0.302C65.546,185.187,65.747,184.987,65.847,184.987z"/>
					<path fill="#2A317D" d="M65.847,182.576c0.201,0,0.302,0.101,0.302,0.302s-0.101,0.302-0.302,0.302
						c-0.201,0-0.301-0.101-0.301-0.302S65.747,182.576,65.847,182.576z"/>
					<path fill="#2A317D" d="M65.847,180.065c0.201,0,0.302,0.101,0.302,0.302s-0.101,0.301-0.302,0.301
						c-0.201,0-0.301-0.1-0.301-0.301S65.747,180.065,65.847,180.065z"/>
				</g>
			</g>
		</g>
		<g>
			<path fill="#2A317D" d="M27.983,138.184c-15.065,0-27.218,12.153-27.218,27.218s12.253,27.218,27.218,27.218
				c15.065,0,27.218-12.253,27.218-27.218S43.049,138.184,27.983,138.184z M27.983,141.297c13.358,0,24.205,10.848,24.205,24.205
				c0,0.502,0,1.004,0,1.506H31.097c6.829,1.005,12.655,5.323,15.869,11.35c-1.306,2.108-3.013,3.917-4.921,5.424
				c-1.506-5.524-5.926-9.742-11.249-10.747v14.563h-5.423v-14.663c-5.424,1.104-9.742,5.322-11.25,10.745
				c-1.908-1.505-3.615-3.414-4.921-5.423c3.113-6.025,8.939-10.345,15.869-11.349H3.979c0-0.502,0-1.004,0-1.507
				C3.779,152.145,14.625,141.297,27.983,141.297z"/>
			<path fill="#2A317D" d="M27.983,165.201c8.135,0,15.266-4.72,18.882-11.55c-1.306-2.108-3.013-3.917-4.921-5.424
				c-1.506,5.524-5.925,9.742-11.249,10.747v-14.563h-5.423v14.563c-5.423-1.104-9.742-5.323-11.248-10.747
				c-1.908,1.507-3.616,3.415-4.921,5.424C12.717,160.481,19.848,165.201,27.983,165.201z"/>
		</g>
	</g>
	<g>
		<g>
			<g>
				<path fill="#2A317D" d="M78,145.515v5.524c0,1.506,0.502,2.913,2.31,2.913s2.31-1.407,2.31-2.913v-5.524h1.205v5.926
					c0,2.109-1.306,3.615-3.415,3.615c-2.209,0-3.415-1.606-3.415-3.615v-5.926H78z"/>
				<path fill="#2A317D" d="M86.536,149.935L86.536,149.935c0.402-0.603,1.105-1.005,1.808-1.005c1.607,0,2.109,1.105,2.109,2.511
					v3.516h-1.105v-3.314c0-1.004-0.1-1.707-1.305-1.707c-1.407,0-1.407,1.306-1.407,2.31v2.712h-1.104v-5.825h1.104L86.536,149.935
					L86.536,149.935z"/>
				<path fill="#2A317D" d="M93.868,146.419c0,0.402-0.301,0.804-0.804,0.804c-0.401,0-0.803-0.302-0.803-0.804
					c0-0.402,0.301-0.803,0.803-0.803C93.467,145.716,93.868,146.017,93.868,146.419z M93.668,154.957h-1.105v-5.825h1.105V154.957z
					"/>
				<path fill="#2A317D" d="M101.401,152.043c0,1.809-1.406,3.114-3.113,3.114c-1.708,0-3.114-1.306-3.114-3.114
					c0-1.808,1.406-3.113,3.114-3.113C99.995,148.93,101.401,150.337,101.401,152.043z M96.279,152.043
					c0,1.105,0.904,2.009,2.009,2.009c1.104,0,2.008-0.903,2.008-2.009c0-1.104-0.903-2.008-2.008-2.008
					C97.183,150.036,96.279,150.939,96.279,152.043z"/>
				<path fill="#2A317D" d="M103.812,149.935L103.812,149.935c0.401-0.603,1.104-1.005,1.808-1.005c1.607,0,2.109,1.105,2.109,2.511
					v3.516h-1.104v-3.314c0-1.004-0.101-1.707-1.306-1.707c-1.406,0-1.406,1.306-1.406,2.31v2.712h-1.104v-5.825h1.104
					L103.812,149.935L103.812,149.935z"/>
				<path fill="#2A317D" d="M116.165,145.315c-0.201-0.101-0.502-0.201-0.703-0.201c-0.804,0-0.804,1.005-0.804,1.607v2.511h1.506
					v1.004h-1.506v4.82h-1.105v-4.82h-0.502v-1.004h0.502v-2.812c0-1.306,0.402-2.31,1.909-2.31c0.301,0,0.502,0,0.803,0.1
					L116.165,145.315L116.165,145.315z"/>
				<path fill="#2A317D" d="M122.593,152.043c0,1.809-1.406,3.114-3.113,3.114s-3.113-1.306-3.113-3.114
					c0-1.808,1.406-3.113,3.113-3.113S122.593,150.337,122.593,152.043z M117.47,152.043c0,1.105,0.904,2.009,2.009,2.009
					c1.105,0,2.008-0.903,2.008-2.009c0-1.104-0.903-2.008-2.008-2.008C118.274,150.036,117.47,150.939,117.47,152.043z"/>
				<path fill="#2A317D" d="M125.003,150.036L125.003,150.036c0.301-0.703,0.903-1.105,1.607-1.105c0.301,0,0.603,0.101,0.904,0.302
					l-0.502,1.004c-0.2-0.2-0.401-0.2-0.703-0.2c-1.206,0-1.406,1.104-1.406,2.109v2.911h-1.105v-5.824h1.105L125.003,150.036
					L125.003,150.036z"/>
				<path fill="#2A317D" d="M133.641,154.957h-1.105v-4.82h-0.603v-1.005h0.603v-2.21h1.105v2.21h1.104v1.005h-1.104V154.957z"/>
				<path fill="#2A317D" d="M136.654,144.11v5.825l0,0c0.301-0.603,1.004-1.005,1.807-1.005c1.607,0,2.109,1.105,2.109,2.511v3.516
					h-1.104v-3.314c0-1.004-0.101-1.707-1.306-1.707c-1.406,0-1.406,1.306-1.406,2.31v2.712h-1.105V144.11H136.654z"/>
				<path fill="#2A317D" d="M142.981,152.245c0,1.004,0.703,1.908,1.808,1.908c0.904,0,1.305-0.401,1.708-1.104l0.904,0.502
					c-0.502,1.004-1.607,1.607-2.712,1.607c-1.808,0-2.913-1.306-2.913-3.114c0-1.808,1.004-3.113,2.812-3.113
					c1.908,0,2.711,1.407,2.711,3.113v0.201H142.981z M146.396,151.441c-0.101-0.904-0.703-1.506-1.607-1.506
					s-1.506,0.602-1.708,1.506H146.396z"/>
				<path fill="#2A317D" d="M154.33,148.729L154.33,148.729l-1.104,6.228h-1.206l1.908-9.843l3.214,7.432l3.214-7.432l1.908,9.843
					h-1.206l-1.104-6.228l0,0l-2.812,6.429L154.33,148.729z"/>
				<path fill="#2A317D" d="M164.173,152.245c0,1.004,0.703,1.908,1.808,1.908c0.904,0,1.305-0.401,1.708-1.104l0.904,0.502
					c-0.502,1.004-1.607,1.607-2.712,1.607c-1.808,0-2.913-1.306-2.913-3.114c0-1.808,1.004-3.113,2.812-3.113
					c1.908,0,2.711,1.407,2.711,3.113v0.201H164.173z M167.487,151.441c-0.101-0.904-0.703-1.506-1.607-1.506
					c-0.904,0-1.506,0.602-1.707,1.506H167.487z"/>
				<path fill="#2A317D" d="M174.217,154.052L174.217,154.052c-0.502,0.703-1.206,1.105-2.009,1.105
					c-1.808,0-2.812-1.507-2.812-3.114c0-1.606,1.105-3.013,2.712-3.013c0.904,0,1.607,0.402,2.008,1.105l0,0v-6.026h1.105v10.847
					h-1.004V154.052z M174.317,152.043c0-1.104-0.703-2.108-1.908-2.108s-1.808,1.004-1.808,2.108c0,1.105,0.703,2.109,1.808,2.109
					C173.614,154.153,174.317,153.249,174.317,152.043z"/>
				<path fill="#2A317D" d="M178.635,146.419c0,0.402-0.302,0.804-0.804,0.804c-0.401,0-0.803-0.302-0.803-0.804
					c0-0.402,0.301-0.803,0.803-0.803C178.334,145.716,178.635,146.017,178.635,146.419z M178.434,154.957h-1.105v-5.825h1.105
					V154.957z"/>
				<path fill="#2A317D" d="M181.749,154.957h-1.104v-4.82h-0.603v-1.005h0.603v-2.21h1.104v2.21h1.105v1.005h-1.105V154.957z"/>
				<path fill="#2A317D" d="M184.36,152.245c0,1.004,0.703,1.908,1.808,1.908c0.904,0,1.305-0.401,1.707-1.104l0.904,0.502
					c-0.502,1.004-1.606,1.607-2.711,1.607c-1.808,0-2.913-1.306-2.913-3.114c0-1.808,1.004-3.113,2.812-3.113
					c1.908,0,2.712,1.407,2.712,3.113v0.201H184.36z M187.675,151.441c-0.101-0.904-0.703-1.506-1.607-1.506
					c-0.904,0-1.506,0.602-1.708,1.506H187.675z"/>
				<path fill="#2A317D" d="M191.19,150.036L191.19,150.036c0.301-0.703,0.904-1.105,1.607-1.105c0.301,0,0.603,0.101,0.904,0.302
					l-0.503,1.004c-0.201-0.2-0.401-0.2-0.703-0.2c-1.206,0-1.406,1.104-1.406,2.109v2.911h-1.104v-5.824h1.104v0.804H191.19z"/>
				<path fill="#2A317D" d="M195.91,150.036L195.91,150.036c0.302-0.703,0.904-1.105,1.607-1.105c0.301,0,0.603,0.101,0.904,0.302
					l-0.502,1.004c-0.201-0.2-0.402-0.2-0.703-0.2c-1.206,0-1.406,1.104-1.406,2.109v2.911h-1.105v-5.824h1.105v0.804H195.91z"/>
				<path fill="#2A317D" d="M204.748,154.957h-1.104v-0.904l0,0c-0.402,0.703-1.105,1.105-2.009,1.105
					c-1.808,0-2.812-1.507-2.812-3.114c0-1.606,1.104-3.013,2.711-3.013c0.904,0,1.607,0.402,2.009,1.105l0,0v-1.005h1.105v5.825
					H204.748z M203.644,152.043c0-1.104-0.704-2.108-1.908-2.108c-1.206,0-1.808,1.004-1.808,2.108c0,1.105,0.703,2.109,1.808,2.109
					C202.94,154.153,203.644,153.249,203.644,152.043z"/>
				<path fill="#2A317D" d="M207.56,149.935L207.56,149.935c0.402-0.603,1.105-1.005,1.808-1.005c1.607,0,2.109,1.105,2.109,2.511
					v3.516h-1.105v-3.314c0-1.004-0.1-1.707-1.305-1.707c-1.406,0-1.406,1.306-1.406,2.31v2.712h-1.104v-5.825h1.104L207.56,149.935
					L207.56,149.935z"/>
				<path fill="#2A317D" d="M213.887,152.245c0,1.004,0.704,1.908,1.809,1.908c0.904,0,1.306-0.401,1.707-1.104l0.904,0.502
					c-0.502,1.004-1.607,1.607-2.712,1.607c-1.808,0-2.913-1.306-2.913-3.114c0-1.808,1.004-3.113,2.812-3.113
					c1.908,0,2.712,1.407,2.712,3.113v0.201H213.887z M217.202,151.441c-0.101-0.904-0.703-1.506-1.607-1.506
					s-1.507,0.602-1.708,1.506H217.202z"/>
				<path fill="#2A317D" d="M225.036,154.957h-1.104v-0.904l0,0c-0.401,0.703-1.104,1.105-2.008,1.105
					c-1.808,0-2.812-1.507-2.812-3.114c0-1.606,1.104-3.013,2.711-3.013c0.904,0,1.607,0.402,2.009,1.105l0,0v-1.005h1.104
					L225.036,154.957L225.036,154.957z M224.032,152.043c0-1.104-0.703-2.108-1.908-2.108c-1.206,0-1.808,1.004-1.808,2.108
					c0,1.105,0.703,2.109,1.808,2.109C223.329,154.153,224.032,153.249,224.032,152.043z"/>
				<path fill="#2A317D" d="M227.848,149.935L227.848,149.935c0.402-0.603,1.105-1.005,1.808-1.005c1.607,0,2.109,1.105,2.109,2.511
					v3.516h-1.105v-3.314c0-1.004-0.1-1.707-1.305-1.707c-1.406,0-1.406,1.306-1.406,2.31v2.712h-1.105v-5.825h1.105
					L227.848,149.935L227.848,149.935z"/>
				<path fill="#2A317D" d="M78,160.581v5.523c0,1.507,0.502,2.913,2.31,2.913s2.31-1.406,2.31-2.912v-5.524h1.205v5.926
					c0,2.109-1.306,3.616-3.415,3.616c-2.209,0-3.415-1.607-3.415-3.616v-5.926H78L78,160.581z"/>
				<path fill="#2A317D" d="M86.536,164.9L86.536,164.9c0.402-0.604,1.105-1.004,1.808-1.004c1.607,0,2.109,1.104,2.109,2.511v3.514
					h-1.105v-3.312c0-1.006-0.1-1.708-1.305-1.708c-1.407,0-1.407,1.306-1.407,2.31v2.711h-1.104v-5.824h1.104L86.536,164.9
					L86.536,164.9z"/>
				<path fill="#2A317D" d="M93.868,161.485c0,0.402-0.301,0.804-0.804,0.804c-0.401,0-0.803-0.302-0.803-0.804
					c0-0.402,0.301-0.804,0.803-0.804C93.467,160.681,93.868,160.983,93.868,161.485z M93.567,169.92h-1.104v-5.824h1.104V169.92z"
					/>
				<path fill="#2A317D" d="M101.401,167.008c0,1.808-1.406,3.114-3.113,3.114c-1.708,0-3.114-1.307-3.114-3.114
					s1.406-3.112,3.114-3.112C99.995,163.996,101.401,165.301,101.401,167.008z M96.279,167.008c0,1.104,0.904,2.009,2.009,2.009
					c1.104,0,2.008-0.904,2.008-2.009c0-1.104-0.903-2.008-2.008-2.008C97.183,165,96.279,165.905,96.279,167.008z"/>
				<path fill="#2A317D" d="M103.812,164.9L103.812,164.9c0.401-0.604,1.104-1.004,1.808-1.004c1.607,0,2.109,1.104,2.109,2.511
					v3.514h-1.104v-3.312c0-1.006-0.101-1.708-1.306-1.708c-1.406,0-1.406,1.306-1.406,2.31v2.711h-1.104v-5.824h1.104
					L103.812,164.9L103.812,164.9z"/>
				<path fill="#2A317D" d="M114.357,165.1L114.357,165.1c0.502-0.702,1.205-1.104,2.109-1.104c1.707,0,2.711,1.507,2.711,3.013
					c0,1.708-1.004,3.114-2.812,3.114c-0.804,0-1.506-0.402-2.009-1.105l0,0v4.219h-1.105v-9.24h1.105V165.1L114.357,165.1z
					 M117.972,167.008c0-1.104-0.703-2.108-1.908-2.108c-1.205,0-1.808,1.005-1.808,2.108c0,1.104,0.703,2.109,1.808,2.109
					C117.37,169.218,117.972,168.214,117.972,167.008z"/>
				<path fill="#2A317D" d="M126.209,167.008c0,1.808-1.406,3.114-3.114,3.114s-3.113-1.307-3.113-3.114s1.406-3.112,3.113-3.112
					C124.802,163.996,126.209,165.301,126.209,167.008z M121.087,167.008c0,1.104,0.904,2.009,2.008,2.009s2.008-0.904,2.008-2.009
					c0-1.104-0.904-2.008-2.008-2.008S121.087,165.905,121.087,167.008z"/>
				<path fill="#2A317D" d="M128.519,164.096v3.214c0,0.904,0.2,1.808,1.305,1.808s1.306-0.804,1.306-1.808v-3.214h1.105v3.313
					c0,1.607-0.704,2.713-2.512,2.713c-1.808,0-2.511-1.105-2.511-2.713v-3.313H128.519z"/>
				<path fill="#2A317D" d="M135.348,165.1L135.348,165.1c0.301-0.702,0.904-1.104,1.607-1.104c0.301,0,0.603,0.101,0.904,0.301
					l-0.502,1.005c-0.201-0.201-0.402-0.201-0.703-0.201c-1.206,0-1.407,1.105-1.407,2.109v2.711h-1.104v-5.824h1.104L135.348,165.1
					L135.348,165.1z"/>
				<path fill="#2A317D" d="M143.784,169.92h-1.105v-10.745h1.105V169.92z"/>
				<path fill="#2A317D" d="M151.116,169.92h-1.105v-0.903l0,0c-0.402,0.703-1.105,1.105-2.009,1.105
					c-1.808,0-2.812-1.507-2.812-3.114c0-1.606,1.105-3.013,2.712-3.013c0.904,0,1.607,0.402,2.009,1.104l0,0v-1.004h1.104v5.824
					H151.116z M150.011,167.008c0-1.104-0.703-2.108-1.908-2.108s-1.808,1.005-1.808,2.108c0,1.104,0.703,2.109,1.808,2.109
					C149.409,169.218,150.011,168.214,150.011,167.008z"/>
				<path fill="#2A317D" d="M158.448,163.794L158.448,163.794l-1.105,6.228h-1.206l1.908-9.843l3.214,7.432l3.214-7.432l1.908,9.843
					h-1.205l-1.105-6.228l0,0l-2.812,6.429L158.448,163.794z"/>
				<path fill="#2A317D" d="M168.29,167.209c0,1.005,0.703,1.908,1.808,1.908c0.904,0,1.306-0.401,1.707-1.104l0.904,0.502
					c-0.502,1.005-1.606,1.607-2.711,1.607c-1.808,0-2.912-1.307-2.912-3.114s1.004-3.112,2.812-3.112
					c1.908,0,2.712,1.405,2.712,3.112v0.201H168.29z M171.605,166.407c-0.101-0.904-0.703-1.507-1.607-1.507
					c-0.904,0-1.506,0.603-1.708,1.507H171.605z M171.203,161.385l-2.009,1.907l-0.501-0.301l1.606-2.109L171.203,161.385z"/>
				<path fill="#2A317D" d="M178.334,169.017L178.334,169.017c-0.502,0.703-1.205,1.105-2.008,1.105
					c-1.808,0-2.812-1.507-2.812-3.114c0-1.606,1.104-3.013,2.712-3.013c0.904,0,1.606,0.402,2.008,1.104l0,0v-5.925h1.105v10.745
					h-1.105v-0.903H178.334z M178.434,167.008c0-1.104-0.703-2.108-1.908-2.108c-1.205,0-1.808,1.005-1.808,2.108
					c0,1.104,0.703,2.109,1.808,2.109C177.732,169.218,178.434,168.214,178.434,167.008z"/>
				<path fill="#2A317D" d="M182.753,161.485c0,0.402-0.301,0.804-0.804,0.804c-0.401,0-0.803-0.302-0.803-0.804
					c0-0.402,0.301-0.804,0.803-0.804C182.452,160.681,182.753,160.983,182.753,161.485z M182.552,169.92h-1.105v-5.824h1.105
					V169.92z"/>
				<path fill="#2A317D" d="M185.867,169.92h-1.105v-4.82h-0.603v-1.004h0.603v-2.209h1.105v2.209h1.105v1.004h-1.105V169.92z"/>
				<path fill="#2A317D" d="M188.478,167.209c0,1.005,0.703,1.908,1.808,1.908c0.904,0,1.306-0.401,1.707-1.104l0.904,0.502
					c-0.501,1.005-1.607,1.607-2.711,1.607c-1.808,0-2.912-1.307-2.912-3.114s1.003-3.112,2.812-3.112
					c1.908,0,2.712,1.405,2.712,3.112v0.201H188.478z M191.792,166.407c-0.1-0.904-0.703-1.507-1.607-1.507
					s-1.506,0.603-1.708,1.507H191.792z"/>
				<path fill="#2A317D" d="M195.307,165.1L195.307,165.1c0.301-0.702,0.904-1.104,1.607-1.104c0.302,0,0.603,0.101,0.904,0.301
					l-0.501,1.005c-0.201-0.201-0.402-0.201-0.704-0.201c-1.205,0-1.406,1.105-1.406,2.109v2.711h-1.105v-5.824h1.105v1.004H195.307
					z"/>
				<path fill="#2A317D" d="M200.029,165.1L200.029,165.1c0.301-0.702,0.904-1.104,1.606-1.104c0.302,0,0.603,0.101,0.904,0.301
					l-0.502,1.005c-0.2-0.201-0.401-0.201-0.703-0.201c-1.205,0-1.406,1.105-1.406,2.109v2.711h-1.104v-5.824h1.104v1.004H200.029z"
					/>
				<path fill="#2A317D" d="M208.866,169.92h-1.105v-0.903l0,0c-0.402,0.703-1.105,1.105-2.009,1.105
					c-1.808,0-2.812-1.507-2.812-3.114c0-1.606,1.105-3.013,2.712-3.013c0.904,0,1.607,0.402,2.009,1.104l0,0v-1.004h1.105v5.824
					H208.866z M207.761,167.008c0-1.104-0.703-2.108-1.908-2.108s-1.808,1.005-1.808,2.108c0,1.104,0.703,2.109,1.808,2.109
					C207.159,169.218,207.761,168.214,207.761,167.008z"/>
				<path fill="#2A317D" d="M211.678,164.9L211.678,164.9c0.401-0.604,1.105-1.004,1.808-1.004c1.607,0,2.109,1.104,2.109,2.511
					v3.514h-1.206v-3.312c0-1.006-0.1-1.708-1.306-1.708c-1.406,0-1.406,1.306-1.406,2.31v2.711h-1.105v-5.824h1.105V164.9
					L211.678,164.9z"/>
				<path fill="#2A317D" d="M218.006,167.209c0,1.005,0.703,1.908,1.808,1.908c0.904,0,1.306-0.401,1.707-1.104l0.904,0.502
					c-0.502,1.005-1.607,1.607-2.712,1.607c-1.808,0-2.913-1.307-2.913-3.114s1.004-3.112,2.812-3.112
					c1.908,0,2.712,1.405,2.712,3.112v0.201H218.006z M221.32,166.407c-0.101-0.904-0.703-1.507-1.607-1.507
					c-0.904,0-1.506,0.603-1.708,1.507H221.32z M220.918,161.385l-2.008,1.907l-0.502-0.301l1.606-2.109L220.918,161.385z"/>
				<path fill="#2A317D" d="M224.333,167.209c0,1.005,0.703,1.908,1.808,1.908c0.904,0,1.306-0.401,1.708-1.104l0.904,0.502
					c-0.502,1.005-1.607,1.607-2.712,1.607c-1.808,0-2.913-1.307-2.913-3.114s1.004-3.112,2.812-3.112
					c1.908,0,2.712,1.405,2.712,3.112v0.201H224.333z M227.647,166.407c-0.1-0.904-0.703-1.507-1.607-1.507
					s-1.506,0.603-1.707,1.507H227.647z"/>
			</g>
		</g>
		<path fill="#2A317D" d="M141.073,174.241c0.201-0.302,0.803-0.201,1.104,0c0-0.201,0.201-0.302,0.101-0.603
			c-0.703-0.503-1.507,0.401-1.607,1.104c0.1,0.201,0.402,0.301,0.502,0.502c-0.301,0.1-0.904,0.301-0.703,0.603
			c0.703-0.401,1.808-0.401,2.209-1.104C141.976,174.944,141.274,174.641,141.073,174.241z"/>
		<g>
			<path fill="#2A317D" d="M94.07,181.07c-0.101,0.402-0.402,0.602-0.502,0.904c0.401,0.301,1.004,1.306,0.502,1.808
				c-1.406,0.301-1.406-1.306-1.708-2.21c-0.501,0.402,0,1.104-0.1,1.607c-0.201,0.803-1.105,0.603-2.109,0.603
				c-0.904-0.402-1.104-1.406-1.506-2.31c-0.602,0.602,0.302,1.606-0.602,2.108c-0.402,0.201-1.306,0.201-2.009,0.1
				c0.502-4.218-4.318-2.409-5.926-1.305c0.603-1.808,0.101-4.018-0.401-5.524c0.201,0,0.201,0.101,0.401,0.101
				c0.101-0.502,0.201-1.004,0.201-1.607c-0.804,0-1.205-0.301-1.607-0.803c-0.201,0.502-0.302,1.104-0.402,1.707
				c0.1,0.201,0.502,0.201,0.603,0.401c0.401,1.809,1.205,4.319,0.502,6.327c-0.804,0.503-2.009,0.805-3.515,0.703
				c0,0.402,0,0.904,0,1.307c3.515-0.302,8.235,0.301,11.549,0c0.502-0.101,0.804-0.302,1.206-0.502
				c0.804,0.702,3.013,0.702,3.817,0c0.502,0.401,1.205,0.603,2.109,0.502C94.772,183.68,94.973,181.873,94.07,181.07z
				 M83.825,183.982c-1.306,0.101-3.013-0.101-4.218,0c1.004-0.603,2.712-1.707,4.318-1.406
				C85.131,182.777,85.231,183.782,83.825,183.982z"/>
			<path fill="#2A317D" d="M115.16,176.149c-0.703-0.201-1.205-0.503-1.506-1.105c-0.201,0.603-0.402,1.105-0.402,1.808
				c0.101,0.201,0.402,0.101,0.402,0.402c0.302,2.21,0.603,4.418,0.904,6.628c-0.804,0-1.607,0-2.511,0
				c-0.101-1.306-0.804-2.108-1.206-3.013c-2.31,0.402-2.21,3.515-5.223,3.013c0-1.606-0.1-2.912-1.004-3.515
				c-0.201,0.401-0.301,0.904-0.603,1.205c0.503,0.703,1.105,1.205,1.005,2.41c-1.105,0-2.31,0-3.415,0
				c-0.1-1.205-0.1-2.41-1.105-2.51c-1.305-0.102-2.31,2.208-1.406,3.313c0.402,0.502,1.105,0.502,2.009,0.603
				c-1.004,1.306-2.21,3.114-4.52,2.913c-0.401,0-1.004-0.402-1.406-0.102c0.904,0.503,2.21,1.006,3.415,0.804
				c1.808-0.2,2.712-2.108,3.114-3.615c2.511-0.201,6.026,0.604,7.131-1.005c1.105,1.407,4.118,0.904,6.629,1.005
				c0-2.912-0.703-5.122-0.904-7.834C115.16,177.856,115.06,176.751,115.16,176.149z M101.2,183.982
				c-0.803,0-1.506-0.101-1.506-0.803C99.794,182.175,101.401,182.877,101.2,183.982z M109.436,182.877
				c0.201-0.302,0.502-0.702,0.904-0.804c0.502,0.402,0.904,1.206,0.804,1.908C110.44,183.782,109.837,183.48,109.436,182.877z"/>
			<path fill="#2A317D" d="M117.069,180.367c0.201,1.809,0.302,3.415,0.503,5.122c1.506-2.512,0.1-6.93-0.101-9.843
				C116.265,176.751,116.767,178.358,117.069,180.367z"/>
			<path fill="#2A317D" d="M141.374,180.466c0.201,1.809,0.301,3.415,0.502,5.022c1.506-2.512,0.1-6.83-0.101-9.742
				C140.57,176.952,141.073,178.458,141.374,180.466z"/>
			<path fill="#2A317D" d="M198.521,180.466c0.201,1.809,0.302,3.415,0.502,5.022c1.506-2.512,0.101-6.83-0.101-9.742
				C197.718,176.952,198.22,178.458,198.521,180.466z"/>
			<path fill="#2A317D" d="M105.719,177.455c-0.502-0.201-0.904-0.402-1.305-0.604c-0.101,0.402-0.402,0.804-0.603,1.105
				c0.401,0.301,0.904,0.401,1.305,0.702C105.318,178.257,105.519,177.856,105.719,177.455z"/>
			<path fill="#2A317D" d="M188.177,177.455c-0.502-0.201-0.904-0.402-1.306-0.604c-0.1,0.402-0.402,0.804-0.602,1.105
				c0.401,0.301,0.904,0.401,1.305,0.702C187.775,178.257,187.976,177.856,188.177,177.455z"/>
			<path fill="#2A317D" d="M103.912,178.157c-0.502-0.2-0.904-0.401-1.306-0.603c-0.1,0.402-0.402,0.804-0.602,1.206
				c0.502,0.1,0.803,0.502,1.305,0.602C103.51,178.86,103.711,178.559,103.912,178.157z"/>
			<path fill="#2A317D" d="M186.269,178.157c-0.502-0.2-0.904-0.401-1.306-0.603c-0.1,0.402-0.401,0.804-0.603,1.206
				c0.502,0.1,0.804,0.502,1.306,0.602C185.967,178.86,186.068,178.559,186.269,178.157z"/>
			<path fill="#2A317D" d="M152.823,179.161c-0.502-0.2-0.904-0.4-1.306-0.602c-0.1,0.502-0.401,0.703-0.603,1.105
				c0.402,0.199,0.904,0.501,1.306,0.702C152.422,179.965,152.622,179.563,152.823,179.161z"/>
			<path fill="#2A317D" d="M169.395,178.76c-0.1,0.4,0,1.004-0.1,1.405c1.406,0.603,2.008,1.809,2.008,3.716
				c-1.406-0.201-3.414,0.402-4.018-0.602c-0.1,0.4-0.2,0.803-0.1,1.305c0.704,1.105,3.113,0.503,4.72,0.603
				C171.906,182.175,171.505,179.665,169.395,178.76z"/>
			<path fill="#2A317D" d="M155.837,183.982c0-1.306-0.101-2.41-0.803-3.013c-0.201,0.503-0.402,1.005-0.603,1.507
				c0.502,0.903,1.105,1.907,0.803,3.113c-0.502,2.21-6.126,2.913-6.729,0.603c-0.201-0.804,0.101-2.009,0.301-2.611
				c0.1-0.401,0.603-0.804,0.301-1.104c-0.603,1.104-2.109,4.218-0.603,5.724c1.104,1.105,4.52,1.105,6.025,0.102
				c0.904-0.604,1.306-1.607,1.407-2.913c1.506,0.101,2.41-0.301,3.013-1.005c0.804,0.704,1.708,1.105,3.314,1.005
				c0.201-2.108-0.603-3.213-1.206-4.419C158.649,181.271,158.85,184.284,155.837,183.982z M159.553,182.877
				c0.201-0.302,0.502-0.702,0.904-0.804c0.502,0.402,0.904,1.206,0.803,1.908C160.557,183.782,159.854,183.48,159.553,182.877z"/>
			<path fill="#2A317D" d="M133.842,187.598c0.502,0.201,0.904,0.402,1.305,0.602c0.101-0.4,0.301-0.803,0.604-1.104
				c-0.402-0.302-0.904-0.402-1.306-0.704C134.344,186.794,134.042,187.196,133.842,187.598z"/>
			<path fill="#2A317D" d="M134.042,180.768c-0.904,0.101-1.506,0.704-1.607,1.407c2.109-0.402,3.616,0.903,4.52,1.807
				c-1.908,0-3.816,0-5.725,0c-0.1-2.311-0.502-4.317-0.803-6.428c0.201,0,0.401,0.201,0.502,0.101c0-0.503,0.201-0.804,0.1-1.406
				c-0.602-0.301-1.205-0.502-1.406-1.104c-0.2,0.502-0.401,1.005-0.401,1.808c0.201,0.2,0.301,0.302,0.401,0.603
				c0.402,0.904,0.402,2.31,0.603,3.516c0.201,1.205,0.402,2.511,0.402,3.716c-0.904,1.606-6.026,2.311-6.428-0.101
				c-0.201-1.005,0.201-1.708,0.502-2.31c0.201-0.401,0.703-1.005,0.401-1.206c-0.803,1.105-2.511,4.018-0.904,5.625
				c1.607,1.606,6.83,0.804,7.031-1.406c2.913,0,5.825,0,8.637,0c0-0.401,0-0.903,0-1.306
				C137.457,183.68,136.553,180.568,134.042,180.768z"/>
			<path fill="#2A317D" d="M187.173,180.367c-0.201,0.401-0.302,0.904-0.603,1.205c0.502,0.703,1.105,1.205,1.004,2.41
				c-1.305,0-2.611,0-4.017,0c-1.607-0.603-3.314-4.118-5.825-3.013c-0.502,0.2-0.904,0.804-1.004,1.306
				c2.109-0.402,3.615,0.904,4.52,1.808c-2.31,0-4.921,0.101-7.131-0.101c-1.305-1.908-0.2-6.126-1.305-8.235
				c-0.301,0.502-0.603,1.005-0.904,1.507c1.708,1.104,0.101,7.331,2.009,8.135c0.703,0.302,2.51,0.101,3.515,0.101
				c3.716,0,7.231,0,10.646,0C188.177,183.379,188.378,181.07,187.173,180.367z"/>
			<path fill="#2A317D" d="M195.91,176.55c-0.1,0-1.105-0.703-1.205-0.904c-0.1-0.2-0.401,0.703-0.401,0.904
				c-0.101,0.201-0.101,0.502-0.101,0.502l0.703,0.502c0,0,0.1,1.005-0.101,1.908c-0.301,1.607-0.803,2.41-0.803,2.41
				s-1.305-2.812-2.009-3.515c-0.703-0.703-1.908-2.611-2.511-2.611c0,0-0.401,1.005-0.301,1.405
				c0.101,0.402,0.904,1.507,1.306,1.608c0.301,0.1,0.803-0.302,1.104,0.2c0.302,0.503,2.009,3.314,2.009,3.314
				s-1.406,1.405-2.009,1.908c-0.302,0.2-0.302,1.104-0.302,1.306c0.402,0.101,1.306,0.101,1.808,0
				c0.502-0.101,1.507-0.101,1.707-0.603c0.201-0.503-0.2-1.406-0.301-1.808c-0.201-0.402-0.201-0.603-0.201-0.603
				s0.803-1.607,1.004-2.612c0.201-1.004,0-1.907,0-1.907l0.402,0.2c0,0,0.101-0.903,0.201-1.104
				C196.111,176.65,196.01,176.55,195.91,176.55z M194.303,183.782c0,0.301-0.703,0.401-1.206,0.401
				c-0.603,0-0.603-0.201-0.502-0.302c0.201-0.1,1.205-1.104,1.205-1.104C194.002,182.977,194.303,183.48,194.303,183.782z"/>
		</g>
	</g>
</g>
</svg>
