<svg width="428" height="234" viewBox="0 0 428 234" fill="none" xmlns="http://www.w3.org/2000/svg">
<path d="M182.844 118.586H160.178V207.262H182.844V118.586Z" fill="#040204"/>
<path d="M198.85 207.145H220.581V173.38H246.401V153.519H220.581V138.447H247.336V118.586H198.85V207.145Z" fill="#040204"/>
<path d="M298.626 118.586H280.75L245.233 207.262H269.534L274.208 194.41H304.935L309.258 207.262H333.793L298.626 118.586ZM280.517 176.418L289.63 146.042H289.98L299.093 176.418H280.517Z" fill="#040204"/>
<path d="M410.318 135.059C398.869 118.586 381.11 118.586 371.179 118.586H341.854V207.262H372.932C406.58 207.262 418.614 186.933 418.614 162.749C418.38 152.935 416.394 143.471 410.318 135.059ZM374.1 187.284H364.403V138.447H374.217C384.265 138.447 388.821 142.653 391.508 146.626C394.78 151.65 395.831 157.959 395.831 162.982C395.831 175.6 391.041 187.284 374.1 187.284Z" fill="#040204"/>
<path d="M74.4228 67.5296C73.4881 66.1276 72.4366 64.7256 71.3851 63.5573C70.3336 62.3889 69.0485 61.3374 67.6465 60.5196C66.4782 59.8186 65.894 59.7018 64.7257 59.0008C62.389 57.7156 60.4028 55.9631 58.884 53.7433C57.8325 52.3413 56.8978 50.8224 56.1968 49.1868C55.6127 47.7848 55.2622 46.2659 55.0285 44.7471C54.7948 43.1114 54.9117 41.5926 55.1453 39.9569C55.2622 38.7886 55.6127 37.6203 55.9632 36.4519C56.1968 35.7509 56.4305 35.0499 56.781 34.3489C57.1315 33.7648 57.482 33.2974 57.9493 32.8301V5.14062H59.585V33.2974C59.585 34.5826 59.7018 35.9846 59.9355 37.2698C60.1692 38.4381 60.6365 39.7233 61.3375 40.6579C62.0385 41.8263 63.09 42.8778 64.2583 43.5788C64.8425 44.0461 65.5435 44.3966 66.2445 44.6303C66.595 44.6303 66.9455 44.6303 67.296 44.6303C66.8287 43.1114 66.595 41.4758 66.595 39.9569C66.595 38.2044 66.8287 36.5688 67.296 34.9331V5.14062H68.9317V32.2459L69.0485 32.1291C69.399 31.6618 69.8663 31.3113 70.3337 30.8439C70.6842 30.4934 71.1515 30.2598 71.6188 30.0261C71.9693 29.7924 72.4367 29.6756 72.904 29.5588C73.3713 29.4419 73.9555 29.4419 74.5396 29.4419C75.1238 29.4419 75.5911 29.5588 76.1753 29.5588C77.11 29.7924 77.9278 30.2598 78.6288 30.9608C79.0961 31.4281 79.4466 31.7786 79.7971 32.2459L79.914 32.3628V5.14062H81.5496V35.0499C82.1338 36.6856 82.3675 38.3213 82.2506 40.0738C82.2506 41.7094 82.017 43.2283 81.5496 44.7471C81.9001 44.7471 82.2506 44.7471 82.6011 44.7471C83.3021 44.5134 84.0031 44.2798 84.5873 43.6956C85.7556 42.9946 86.8071 41.9431 87.5081 40.7748C88.2091 39.7233 88.6765 38.5549 88.9101 37.2698C89.1438 35.9846 89.2606 34.5826 89.2606 33.2974V5.14062H90.8963V32.8301C91.3636 33.2974 91.7141 33.8816 92.0646 34.3489C92.4151 35.0499 92.6488 35.6341 92.8825 36.3351C93.233 37.5034 93.5835 38.6718 93.7003 39.8401C93.934 41.3589 93.934 42.9946 93.8171 44.6303C93.7003 46.1491 93.233 47.6679 92.6488 49.0699C91.9478 50.7056 91.13 52.2244 89.9616 53.6264C89.2606 54.6779 88.326 55.7294 87.3913 56.6641C86.4566 57.4819 85.2883 58.2998 84.12 58.8839C82.9516 59.5849 82.3675 59.7018 81.1991 60.4028C79.7971 61.2206 78.6288 62.2721 77.4605 63.4404C76.2922 64.7256 75.3575 66.1276 74.4228 67.5296Z" fill="#14965C"/>
<path d="M74.4228 91.3636C72.0861 87.5081 69.0485 84.1199 65.3098 81.6664C65.3098 81.6664 63.9078 80.7318 60.286 78.6288C57.7156 77.1099 55.4958 75.1238 53.7433 72.9039C43.9293 58.4166 49.1868 45.3313 50.2383 45.5649V5.14062H51.874V48.7194C51.874 48.7194 51.0561 53.7433 58.6503 57.1314C63.5573 59.3513 70.1 65.1929 74.4228 72.7871C78.7456 65.1929 85.2883 59.3513 90.1953 57.1314C97.7895 53.7433 96.9716 48.7194 96.9716 48.7194V5.14062H98.6073V45.5649H98.4905L98.6073 45.6818C99.542 45.4481 104.916 58.4166 95.2191 72.9039C93.4666 75.2406 91.2468 77.2268 88.6765 78.6288C85.0546 80.7318 83.6526 81.6664 83.6526 81.6664C79.7971 84.1199 76.6426 87.3912 74.4228 91.3636Z" fill="#14965C"/>
<path d="M74.4228 115.314C72.4366 110.057 68.2307 105.968 62.9732 104.098C32.246 92.7656 43.3452 68.5811 44.3967 67.4128V5.14062H46.1492V67.1791C46.266 68.6979 46.6165 70.2168 47.0838 71.6188C48.0185 74.0723 49.5373 76.6426 51.173 77.5773C54.9117 79.9139 57.482 80.3813 61.1038 82.2506C64.2583 83.8862 68.2307 86.5734 74.4228 93.7002C80.615 86.5734 84.5873 83.8862 87.7418 82.2506C91.3636 80.3813 93.934 79.9139 97.6726 77.5773C99.1915 76.6426 100.827 74.0723 101.762 71.6188C102.229 70.2168 102.58 68.6979 102.696 67.1791V5.14062H104.449V67.4128C105.617 68.5811 116.716 92.6487 85.9893 104.098C80.615 106.085 76.409 110.057 74.4228 115.314Z" fill="#14965C"/>
<path d="M29.442 207.145H9.4635V189.62H29.3252C38.0877 189.62 45.0976 182.493 45.0976 173.731V118.586H62.1553V174.315C62.2721 192.424 47.5511 207.145 29.442 207.145Z" fill="#14965C"/>
<path d="M119.404 207.145H139.382V189.62H119.52C110.758 189.62 103.748 182.493 103.748 173.731V118.586H86.6903V174.315C86.6903 192.424 101.294 207.145 119.404 207.145Z" fill="#14965C"/>
<path d="M29.2083 228.526H9.4635V211.001H29.3252C51.874 211.001 65.894 193.359 65.894 173.965V118.819H82.9516V174.549C83.1853 204.224 59.2345 228.409 29.5588 228.643C29.442 228.526 29.3252 228.526 29.2083 228.526Z" fill="#14965C"/>
</svg>
