<svg width="461" height="482" viewBox="0 0 461 482" fill="none" xmlns="http://www.w3.org/2000/svg">
<g clip-path="url(#clip0_601_1983)">
<path d="M227.25 244.746H112.125V359.879H227.25V244.746Z" fill="#0063AC"/>
<path d="M141.32 263.609V308.894C141.32 332.855 153.175 341.746 168.929 341.746C185.57 341.746 198.011 332.144 198.011 308.547V263.609H187.977V309.23C187.977 326.144 180.563 333.652 169.266 333.652C159 333.652 151.371 326.343 151.371 309.23V263.609H141.32Z" fill="white"/>
<path d="M349.477 244.746H234.352V359.879H349.477V244.746Z" fill="#0063AC"/>
<path d="M272.43 340.77C272.43 340.77 272.313 285.907 271.735 276.208L272.087 276.099C275.868 284.419 310.751 340.771 310.751 340.771H320.79V263.888H311.454C311.454 263.888 311.673 317.384 312.579 327.661L312.227 327.763C308.688 319.79 274.032 263.888 274.032 263.888H263.075V340.771H272.43V340.77Z" fill="white"/>
<path d="M349.477 366.949H234.352V482.074H349.477V366.949Z" fill="#0063AC"/>
<path d="M311.367 391.676C306.785 387.567 299.617 385.278 289.793 385.278C281.82 385.278 275.543 385.973 270.75 386.883V462.738H280.676V431.941C282.973 432.507 285.696 432.617 288.668 432.617C298.367 432.617 306.906 429.73 312.148 424.179C316.148 420.163 318.195 414.687 318.195 407.745C318.195 400.887 315.574 395.312 311.367 391.676Z" fill="white"/>
<path d="M288.898 425.09C285.695 425.09 282.843 424.856 280.675 424.297V394.418C282.39 394.074 285.695 393.621 290.023 393.621C300.972 393.621 308.171 398.496 308.171 408.785C308.172 419.152 300.973 425.09 288.898 425.09Z" fill="#0063AC"/>
<path d="M227.133 367.062H112V482.191H227.133V367.062Z" fill="#0063AC"/>
<path d="M192.953 394.645C186.223 388.375 176.086 385.165 161.824 385.165C153.945 385.165 146.781 385.856 140.601 386.778V462.395C145.734 463.083 151.558 463.286 158.742 463.286C173.672 463.286 185.539 459.446 192.859 452.251C199.906 445.192 203.894 434.899 203.894 422.364C203.895 409.93 199.906 400.918 192.953 394.645Z" fill="white"/>
<path d="M160.68 455.336C156.789 455.336 153.153 455.336 150.649 454.863V394.074C153.274 393.512 157.157 393.062 162.274 393.062C183.258 393.062 193.54 404.355 193.415 422.702C193.414 443.457 181.887 455.438 160.68 455.336Z" fill="#0063AC"/>
<path d="M349.594 0H112.125V237.523H349.594V0Z" fill="#0063AC"/>
<path d="M315.832 123.668C312.508 128.371 308.492 132.785 305.414 137.594C305.758 133.793 306.211 129.11 304.719 125.496C302.164 117.746 299.914 109.871 299.203 101.355L299.273 98.097C301.207 106.796 309.757 112.785 309.211 122.535C309.406 124.906 308.672 126.894 308.238 128.984L308.39 129.136L308.777 128.702C310.039 123.925 310.672 118.886 312.64 114.421C315.445 108.007 318.929 101.523 317.507 93.769C321.773 102.914 320.496 115.121 315.832 123.668Z" fill="white"/>
<path d="M310.57 74.395C316.183 81.993 317.422 94.079 313.324 102.782C311.824 106.481 310.734 110.411 310.14 114.493C309.843 113.798 309.785 112.848 309.538 112.055C307.311 103.543 299.249 97.469 295.921 89.43C294.882 86.797 293.991 84.082 293.491 81.227C297.022 87.774 305.757 91.168 308.143 98.383C309.123 100.223 309.069 102.492 309.655 104.457C309.784 104.457 309.913 104.363 309.913 104.238C308.87 96.797 309.179 89.011 310.202 81.676C310.14 77.688 309.757 73.828 307.538 70.754C308.961 71.578 309.609 73.164 310.57 74.395Z" fill="white"/>
<path d="M306.625 72.941C308.102 79.589 305.965 86.074 307.32 92.785L307.254 92.84C303.641 85.731 295.957 82.375 290.672 76.676C287.594 73.289 286.274 69.168 285.524 64.805C288.555 72.114 296.712 73.731 301.399 79.867C302.977 81.289 303.493 83.258 304.501 84.879L304.665 84.707C301.962 78.953 301.048 72.461 299.204 66.328C298.235 63.668 296.368 61.043 293.86 59.363C300.016 60.629 305.355 67.051 306.625 72.941Z" fill="white"/>
<path d="M290.168 57.684C294.813 61.829 296.906 67.215 298.277 72.786L299.027 74.552C292.289 69.72 286.183 63.193 281.875 56.329L276.617 51.005C281.242 52.965 286.219 54.137 290.168 57.684Z" fill="white"/>
<path d="M202.133 52.527C210.899 48.203 220.488 45.886 230.922 45.699C254.781 45.73 277.57 59.738 287.953 81.828C294.531 94.519 296.402 111.996 292.137 126.324C287.797 143.254 273.555 160.379 256.969 167.344C238.305 176.489 211.774 174.203 195.133 162.27C172 146.43 162.539 119.105 169.531 92.141C173.777 76.133 186.527 59.969 202.133 52.527Z" fill="white"/>
<path d="M183.832 51.902C179.18 55.98 175.953 61.14 172.508 65.949C169.406 69.773 165.457 72.304 161.93 75.597C163.836 71.675 163.907 66.988 166.594 63.386C170.426 56.699 177.516 54.363 183.832 51.902Z" fill="white"/>
<path d="M158.398 66.0981C160.64 63.2861 163.523 61.3251 166.746 60.5081C160.5 64.8011 160.891 72.5281 158.898 78.9571C158.261 81.3241 157.16 83.5191 156.621 85.9411L156.789 86.0741C157.836 83.3121 159.664 80.7301 161.93 78.4801C166.399 74.3671 172.985 71.8041 175.172 65.7221C175.078 74.1751 168.012 80.8081 161.281 85.5661C158.476 88.0041 155.801 90.7931 154.277 93.9141C154.117 91.7971 154.601 89.6481 154.441 87.3711C153.711 79.9961 153.176 71.5741 158.398 66.0981Z" fill="white"/>
<path d="M145.719 91.328C145.516 83.855 148.617 77.754 153 72.184C153.105 72.118 153.211 71.993 153.363 72.016C148.558 79.328 152.531 88.539 152.32 96.864L151.687 105.376C151.765 105.435 151.765 105.688 151.999 105.595C152.28 104.657 152.351 103.638 152.53 102.654C153.671 95.783 159.624 90.912 164.846 86.166C165.967 84.943 166.92 83.662 167.506 82.225C167.096 85.631 166.014 89.08 164.592 92.248C160.545 100.158 153.037 106.639 151.686 115.693C151.023 107.027 145.094 100.539 145.719 91.328Z" fill="white"/>
<path d="M142.055 101.957C142.594 99.621 143.024 97.207 144.032 95.062C142.091 104.941 148.743 112.054 150.923 120.632C151.837 123.82 152.071 127.277 153.364 130.28C153.493 130.346 153.594 130.214 153.68 130.12C150.422 121.011 155.102 112.558 159.813 105.436C160.954 103.502 161.625 101.35 162.188 99.147C162.688 103.256 161.661 108.01 161.047 112.276C159.914 117.717 158.203 122.87 156.719 128.167C155.731 131.448 155.989 135.183 156.5 138.632L156.023 138.253C152.554 131.894 145.734 126.929 143.718 119.968C142.031 114.426 140.922 108.012 142.055 101.957Z" fill="white"/>
<path d="M141.742 121.262C142.508 131.742 153.773 137.278 159 145.946C160.234 147.723 161.309 149.68 162.949 151.161C162.691 150.059 161.656 149.106 161.273 147.97C159.433 144.333 158.777 140.001 159.218 135.599C159.734 130.251 161.968 125.279 161.12 119.646C165.702 129.556 164.311 141.904 166.874 152.623C167.542 154.967 168.901 157.053 169.788 159.303C160.35 152.873 147.503 146.764 143.319 134.998C141.555 130.941 141.367 125.914 141.742 121.262Z" fill="white"/>
<path d="M147.375 145.309C152.637 157.207 165.789 158.192 174.633 165.438C176.238 166.864 177.969 168.094 179.789 168.958L179.883 168.856C177.844 167.02 175.516 164.934 174.086 162.559C168.93 155.379 170.742 145.309 166.875 137.59C170.391 141.793 173.586 146.156 175.711 150.942C178.875 158.731 180.07 167.524 187.395 173.415C179.461 170.821 170.204 171.552 163.235 166.677C155.613 161.992 148.805 154.047 147.375 145.309Z" fill="white"/>
<path d="M160.891 167.496C169.301 177.09 183.086 173.887 194.309 176.387C195.883 176.617 197.352 177.242 199.032 176.989C197.696 176.137 195.837 176.235 194.376 175.473C185.579 172.364 184.278 162.84 179.497 156.426C185.614 160.477 190.727 165.942 196.372 171.231C200.427 174.77 205.282 176.411 210.411 177.469C209.188 177.907 207.563 177.781 206.239 178.129C197.032 180.414 186.774 184.113 176.993 180.781C170.641 178.789 164.086 173.766 160.891 167.496Z" fill="white"/>
<path d="M275.262 189.832C265.77 193.383 255.856 189.676 248.45 184.051C245.454 182.141 242.798 179.391 238.899 179.656C237.504 179.617 236.133 179.683 234.946 180.035C242.157 183.387 248.848 188.004 254.977 193.922C253.934 195.09 252.61 196.195 251.344 197.211C245.453 190.863 238.899 184.734 231.586 181.168C230.172 181.352 228.797 182.211 227.516 182.895C221.555 186.668 215.664 191.52 211.25 197.434L207.438 194.301C213.516 188.168 220.235 183.387 227.563 179.961C220.36 177.688 215.649 183.723 210.176 186.801C203.778 191.262 194.602 193.352 186.867 190.281C182.719 188.703 178.719 186.386 175.703 182.617C181.789 186.801 190.828 187.246 197.73 184.527C207.007 180.504 216.609 175.414 227.781 177.839C229.535 177.878 231.242 179.616 232.89 178.132C241.179 175.976 250.57 177.468 257.726 181.261L265.093 184.202C271.937 186.733 280.796 186.042 286.652 181.854C283.648 185.617 279.531 188.316 275.262 189.832Z" fill="white"/>
<path d="M285.453 180.031C274.769 184.051 264.058 179.121 253.84 177.465L251.875 177.207V177.156C256.75 176.047 261.492 174.586 265.391 171.066C271.114 165.562 276.203 159.906 282.575 155.562C277.852 161.613 277.36 170.214 269.567 174.105C267.626 175.371 265.204 175.589 263.204 176.554C266.052 176.616 268.649 175.589 271.466 175.308C281.915 173.675 293.868 175.347 301.181 166.449C298.453 172.645 291.664 177.844 285.453 180.031Z" fill="white"/>
<path d="M291.359 169.176C285.929 170.633 280.109 171.106 274.812 172.906C283.769 165.222 283.273 153.324 289.25 144.269C291.141 141.699 292.723 139.003 294.945 136.581C291.316 143.89 292.883 153.347 288.711 160.44C287.098 163.237 284.789 165.971 282.246 168.198C283.086 168.151 283.816 167.44 284.531 166.96C291.336 160.187 300.203 158.284 307.539 152.776C310.484 150.432 313.184 147.37 314.477 144.053C313.078 155.277 301.91 165.816 291.359 169.176Z" fill="white"/>
<path d="M304.816 150.027C300.609 152.777 296.336 155.332 292.289 158.465V158.106C298.5 147.786 295.453 133.629 299.273 122.309L300.703 118.512C299.914 125.563 302.976 131.547 302.773 138.633C302.539 142.91 301.148 146.707 298.898 150.117H299.273C302.312 146.14 304.695 141.902 308.242 138.094C313.746 132.785 319.344 127.344 320.074 119.969C321.938 132.273 315.039 143.055 304.816 150.027Z" fill="white"/>
<path d="M257.191 149.211L257.632 148.598C259.534 147.118 261.585 145.715 263.265 143.883H263.495C263.1 143.762 262.624 144.141 262.194 143.953C261.292 143.543 261.147 142.746 261.147 141.832L257.256 137.809L257.045 137.211C256.748 137.973 256.17 138.445 255.615 139.004C255.642 139.52 255.455 140.285 256.064 140.625C257.326 141.039 258.97 141.867 259.252 143.348C258.74 144.746 256.084 146.008 257.725 147.528C258.258 148.281 256.977 148.566 257.191 149.211Z" fill="#0063AC"/>
<path d="M234.562 97.844C235.296 98.25 235.699 97.5 236.32 97.34C237.195 97.434 237.882 98.199 238.422 98.762C238.984 99.012 239.531 98.668 240.035 98.481C240.39 95.852 243.68 96.231 244.656 93.77L244.054 93.993C243.804 93.638 243.175 93.794 243.21 93.231C243.741 92.708 244.44 91.919 245.101 91.708C242.265 89.927 239.32 88.411 236.085 87.599C234.819 87.302 233.483 87.271 232.28 86.833C232.889 88.638 232.358 91.29 232.733 93.388L234.995 94.138C235.679 93.036 237.128 92.826 237.757 91.771C238.163 91.423 238.64 91.771 238.968 92.15C239.073 93.002 238.839 93.857 238.581 94.677C237.727 96.391 235.699 96.598 234.562 97.844Z" fill="#0063AC"/>
<path d="M268.277 119.105C266.941 123.351 265.39 127.492 262.726 131.195C261.691 132.523 260.664 134.367 259.324 135.054L262.195 137.589C262.347 137.433 262.257 137.175 262.3 136.96C262.3 136.581 262.476 136.136 262.952 136.19C264.339 136.163 264.366 137.651 265.163 138.413C264.995 139.616 266.05 140.565 265.698 141.675C273.678 133.253 277.671 122.941 278.401 111.515L278.835 111.011C275.987 111.288 272.983 111.093 270.046 111.136L269.343 110.921C269.542 112.847 269.027 114.714 268.909 116.612L269.936 117.745C270.241 118.19 270.131 118.858 269.725 119.198C269.273 119.496 268.711 119.465 268.277 119.105Z" fill="#0063AC"/>
<path d="M260.664 91.098C259.602 89.078 257.894 87.274 256.43 85.469L256.278 85.86C253.36 88.887 250.161 92.02 247.383 95.13C247.563 95.501 247.875 95.857 248.242 96.04C248.355 95.286 248.777 94.614 248.847 93.825C249.593 92.786 250.745 93.446 251.718 93.669C253.234 93.317 254.659 94.021 256.21 93.997C257.355 94.552 257.452 96.013 258.499 96.579C258.78 96.981 258.554 97.47 258.175 97.786C258.499 100.157 259.628 97.149 260.835 97.724C261.335 97.912 261.972 97.845 262.343 98.38C262.534 99.364 263.741 99.185 263.804 100.122C263.706 100.591 263.202 100.724 262.866 100.985C263.171 101.926 261.913 102.528 262.343 103.54C264.179 103.888 264.245 101.763 265.093 100.821C264.624 99.184 264.273 97.497 263.335 96.04C262.296 95.825 261.667 94.583 260.612 94.368C258.586 93.566 260.93 92.309 260.664 91.098Z" fill="#0063AC"/>
<path d="M232.438 157.184C234.786 156.391 237.508 156.512 240.04 156.102C239.54 155.911 239.024 155.797 238.642 155.282C237.158 155.184 236.454 153.645 235.994 152.458C235.767 151.618 236.346 150.919 236.689 150.185C236.064 148.892 234.095 149.826 232.947 149.365C232.635 149.107 232.408 148.724 231.974 148.658L232.439 149.365C232.438 151.961 232.758 154.617 232.438 157.184Z" fill="#0063AC"/>
<path d="M234.477 132.492C235.297 132.648 234.715 133.543 235.321 133.863C236.614 133.441 237.61 134.961 238.641 134.011C238.586 132.523 240.27 132.648 241.18 132.269C242.614 131.417 244.219 130.277 244.063 128.378L243.821 128.101C242.844 128.101 242.344 128.855 241.633 129.453C240.727 129.969 240.281 128.504 239.563 128.855C239.594 129.011 239.754 129.082 239.891 129.136C240.063 129.366 240.133 129.835 239.891 130.066C238.805 131.043 238.301 129.578 237.282 129.671V130.066C237.321 130.277 237.223 130.628 236.915 130.496C236.267 129.453 234.974 129.836 234.337 128.926C233.939 128.703 233.548 128.985 233.267 129.235C233.048 129.715 232.033 129.176 232.283 130.005C231.502 130.278 231.412 131.13 230.838 131.642C229.842 131.474 229.416 132.591 228.486 132.568C228.58 132.752 228.486 133.072 228.763 133.095C229.345 133.349 229.911 133.404 230.615 133.318C231.555 131.805 233.145 133.07 234.477 132.492Z" fill="#0063AC"/>
<path d="M243.828 120.129C243.875 120.598 243.945 121.231 244.344 121.633C245.578 121.453 245.051 123.156 246.18 123.008C246.821 122.817 246.223 122.278 246.399 121.867C246.223 120.914 245.297 120.816 244.657 120.246C244.587 120.062 244.727 119.902 244.805 119.75C244.344 119.492 244.125 119.781 243.828 120.129Z" fill="#0063AC"/>
<path d="M242.391 76.449C239.18 75.316 235.68 74.832 232.188 74.308L232.508 74.999L232.442 83.569L233.274 83.409C238.516 84.132 243.321 85.819 247.477 89.198L247.704 89.87C249.106 87.87 251.266 86.159 252.938 84.268L254.532 83.346L253.77 83.034C250.281 80.125 246.504 77.918 242.391 76.449Z" fill="#0063AC"/>
<path d="M183.527 111.77L184.218 117.598C184.491 119.84 185.484 121.993 185.413 124.207C185.757 123.734 185.542 122.777 186.405 122.684C186.046 121.993 187.065 121.395 186.491 120.789C186.772 119.273 186.952 117.715 188.296 116.617C189.921 116.547 190.038 114.418 191.655 114.324C192.475 114.293 192.983 115.402 193.346 115.781C192.319 114.558 192.373 112.531 192.631 111.133L191.936 111.457C188.991 111.391 185.928 111.629 183.139 111.23L183.527 111.77Z" fill="#0063AC"/>
<path d="M240.27 126.578C241.02 125.789 242.618 125.824 242.688 124.687C241.583 124.511 241.02 125.121 240.27 125.726C240.164 125.965 239.82 126.41 240.27 126.578Z" fill="#0063AC"/>
<path d="M260.398 110.699L261.367 111.672C262.344 112.336 261.691 113.754 262.726 114.328C263.953 114.957 264.406 116.387 264.953 117.461C265.137 117.18 265.137 116.832 265.234 116.543C265.672 114.805 265.605 112.848 266.144 111.137C264.242 111.23 262.055 111.418 260.398 110.699Z" fill="#0063AC"/>
<path d="M247.633 132.871C248.707 133.152 249.445 134.492 250.793 134.078C251.938 133.441 253.836 134.457 254.594 133.254C254.473 132.082 255.485 131.227 255.996 130.219L256.367 130.121C257.004 130.781 256.969 131.773 257.258 132.492C258.133 131.547 258.832 130.496 259.629 129.523C261.715 126.48 263.496 123.222 264.246 119.75C263.398 119.777 262.539 119.922 261.758 120.18C260.836 120.129 259.723 120.66 258.93 120.024C258.657 119.778 258.457 120.157 258.5 120.411C258.172 120.884 257.852 121.477 257.125 121.263C256.559 121.009 256.559 120.411 256.367 119.966C256.398 120.318 256.277 120.63 256.207 120.946C255.551 121.634 255.316 122.309 254.852 123.063C254.188 123.793 253.114 123.536 252.411 124.137C252.282 125.66 250.606 125.336 249.657 125.825C249.595 126.009 249.813 126.036 249.907 126.2C250.36 126.325 250.958 126.325 251.274 125.88C252.602 126.235 252.317 124.56 253.09 123.982C253.75 123.888 254.383 123.322 255.063 123.771C255.774 124.615 255.926 125.849 255.829 126.959C255.063 127.713 255.458 128.951 254.915 129.838C255.036 130.889 253.77 131.358 253.935 132.404C253.533 132.873 252.822 132.947 252.189 132.947C249.705 131.998 247.064 131.388 244.279 131.131C244.025 131.229 243.869 131.451 243.904 131.74C245.051 132.34 246.434 132.371 247.633 132.871Z" fill="#0063AC"/>
<path d="M228.762 160.598L229.09 160.118L228.106 160.376C215.766 159.528 204.852 155.165 195.836 146.446L195.734 146.829L189.218 153.38C199.085 161.931 210.226 167.439 222.945 169.181C224.976 169.521 227.297 169.333 229.242 169.935L228.762 169.181V160.598V160.598Z" fill="#0063AC"/>
<path d="M216.012 126.48C219.41 129.277 223.203 131.003 227.414 131.738C227.633 130.886 227.289 129.812 227.73 129.082C228.046 128.379 228.89 128.41 229.535 128.531C229.91 128.504 230.144 128.035 229.91 127.707C228.996 127.531 229.418 126.516 229.086 125.941C229.133 125.629 229.664 125.691 229.535 125.273C228.89 124.769 229.844 124.207 229.312 123.668C229.464 123.559 229.582 123.371 229.742 123.266C227.824 124.071 225.785 122.899 224.094 122.149C223.258 121.661 222.063 121.204 221.883 120.18C220.523 122.395 217.91 124.422 216.012 126.48Z" fill="#0063AC"/>
<path d="M212.758 116.613C212.449 116.449 212.406 116.488 212.156 116.761C212.004 116.761 211.812 116.8 211.687 116.706C211.687 114.901 209.66 115.979 208.906 115.038C209.789 116.667 210.265 118.542 211.172 120.179C211.75 121.636 213.008 122.781 213.586 124.206C214.184 123.065 215.391 122.147 216.25 121.101C216.312 120.632 216.211 120.214 215.941 119.871C215.671 119.199 215.929 118.258 215.406 117.691C214.601 117.976 215.707 118.793 215.351 119.277C215.007 119.496 214.624 119.199 214.601 118.886C213.867 118.769 213.296 118.124 213.07 117.46C213.68 117.082 212.918 116.922 212.758 116.613Z" fill="#0063AC"/>
<path d="M218.836 117.531C218.637 118.316 218.109 119.008 217.531 119.582L217.629 119.644C218.391 119.101 218.941 118.132 219.914 118.07L218.836 117.531Z" fill="#0063AC"/>
<path d="M228.016 148.289C220.321 147.906 213.586 145.094 207.602 140.621C207.79 141.379 208.797 141.871 208.516 142.812C207.977 143.675 206.871 143.691 205.993 143.675C204.177 143.382 202.845 144.749 201.153 144.929C199.594 145.409 199.055 143.507 197.637 143.675C206.426 151.351 216.485 156.159 228.27 156.796L229.157 157.398L228.766 156.324V147.965L228.016 148.289Z" fill="#0063AC"/>
<path d="M193.84 144.172C192.758 143.41 191.801 142.184 190.899 141.129C189.852 140.848 188.766 140.121 188.235 139.113C187.923 138.754 188.212 138.136 187.864 137.879L187.466 138.352C186.361 138.887 185.966 137.747 185.204 137.278C184.212 136.747 184.7 134.872 183.36 135.216C182.86 135.193 182.696 134.622 182.38 134.31C181.157 134.427 180.833 133.068 180.165 132.408C180.036 132.693 180.165 133.068 179.79 133.256C178.517 133.545 178.087 131.994 177.22 131.354C176.993 131.452 176.845 131.717 176.517 131.647C175.771 130.983 175.259 130.026 175.22 128.991C174.181 127.803 174.658 125.948 174.853 124.518C175.044 124.139 175.587 123.924 175.478 123.452C175.771 122.784 176.47 122.718 177.134 122.686C177.388 122.819 177.642 123.065 177.759 123.295C178.173 123.037 179.099 123.318 178.743 122.4C179.274 121.931 180.079 121.763 180.809 121.638C181.313 122.279 181.559 123.005 182.235 123.599L181.794 122.908C181.032 119.806 180.435 116.646 180.259 113.287C180.294 113.099 179.868 113.006 180.107 112.822L180.166 112.912C180.205 112.213 180.15 111.611 180.26 111.139L179.408 111.459L170.611 111.397C171.119 121.514 173.802 130.725 178.369 139.182C180.611 143.354 183.904 147.116 186.775 151.014L193.072 144.491L193.84 144.172Z" fill="#0063AC"/>
<path d="M203.961 70.285C201.996 71.644 200.195 73.418 198.172 74.621C200.52 76.101 202.445 78.582 204.563 80.531L204.786 81.136C210.173 75.98 216.716 72.976 223.782 71.519C225.446 71.351 227.134 70.789 228.762 71.144C228.649 68.128 228.383 64.996 228.696 62.015C219.527 62.562 211.32 65.344 203.961 70.285Z" fill="#0063AC"/>
<path d="M196.43 103.32C196.086 104.84 196.278 106.605 195.668 108.035C196.789 107.519 198.391 107.719 199.625 107.875C198.906 107.496 199.512 106.582 199.086 106.066C198.992 105.289 198.859 104.304 199.625 103.789C199.539 102.492 200.918 101.828 201.059 100.656C201.399 99.332 202.914 100.226 203.649 99.523C204.126 99.265 203.711 98.828 203.711 98.48C204.344 97.613 205.328 97.656 206.078 97.175C206.625 96.355 207.32 95.468 208.203 94.976C210.105 95.035 210.141 92.371 211.937 92.304C209.472 90.437 207.128 87.941 204.945 85.781C200.586 91.008 197.602 96.762 196.43 103.32Z" fill="#0063AC"/>
<path d="M197.637 116.16C197.727 115.59 196.883 115.441 196.961 114.871C197.57 113.695 196.992 111.801 198.551 111.293C197.449 111.481 196.465 111.703 195.524 111.012L195.973 111.77C196.047 113.856 196.883 115.848 196.43 117.973C196.789 117.371 196.883 116.547 197.637 116.16Z" fill="#0063AC"/>
<path d="M206.359 139.004L206.242 138.789L206.359 139.18V139.004Z" fill="#0063AC"/>
<path d="M195.832 77.27L192.41 81.622C186.812 89.302 184.148 98.192 183.359 107.88L192.035 107.716L192.855 108.04C192.507 107.806 192.593 107.435 192.476 107.122C193.179 98.099 196.335 90.063 202.562 83.349C200.164 81.271 197.914 79.052 195.878 76.677L195.832 77.27Z" fill="#0063AC"/>
<path d="M222.562 136.449C223.257 135.711 224.078 135.219 224.937 134.902C222.128 135.476 219.648 133.449 217.253 132.34C215.89 131.324 214.116 130.5 213.296 128.985C211.421 131.262 209.214 133.633 207.007 135.438C207.972 135.5 208.523 136.583 209.343 137.059C214.093 141.008 220.007 142.914 225.503 144.27L224.003 143.567C222.855 142.278 221.237 140.755 221.179 138.958C222.316 138.566 222.188 137.309 222.562 136.449Z" fill="#0063AC"/>
<path d="M200.918 111.293L200.672 112.965C200.285 113.953 199.055 113.215 198.492 113.891C198.082 114.52 198.508 115.184 198.859 115.688C197.976 117.715 200.867 118.356 200.824 120.184C201.715 121.325 200.703 122.965 201.972 123.981C202.249 126.04 201.687 128.829 203.492 130.438L203.812 132.407C204.179 133.762 202.187 133.407 202.445 134.618C202.84 134.427 202.914 134.938 202.953 135.059V134.997C205.391 132.185 208.203 129.208 211.078 126.712L209.883 125.505C207.633 122.146 205.863 118.567 205.008 114.646L204.094 114.177C204.055 115.185 203.578 115.978 203.649 116.989L203.333 117.368C202.673 117.345 202.251 116.802 201.688 116.45C201.551 116.102 201.204 115.54 201.75 115.255C202.066 115.228 202.281 115.317 202.516 115.466C202.793 115.122 202.672 114.622 202.84 114.177C202.914 113.415 202.25 112.72 202.723 112.052C203.332 111.993 203.778 112.72 204.024 113.126C204.633 113.314 205.11 112.821 205.61 112.591C205.61 112.052 206.36 111.321 205.54 111.013C205.993 109.775 205.673 108.478 205.47 107.279C205.138 106.232 203.962 106.42 203.111 106.517C200.545 107.333 203.525 109.271 202.892 110.849C202.531 111.77 201.586 110.918 200.918 111.293Z" fill="#0063AC"/>
<path d="M282.023 111.137L281.496 110.754L281.805 111.609C281.309 122.144 277.793 131.445 271.766 139.722C270.61 141.105 269.516 142.808 268.043 143.792C270.457 145.687 273.117 148.538 275.098 150.73L275.344 150.253C285.035 139.206 290.539 126.409 291.141 111.608L291.528 110.85L291.055 111.08L282.023 111.137Z" fill="#0063AC"/>
<path d="M196.277 72.395L196.429 71.957C205.671 63.543 216.429 58.918 228.761 58.348L228.484 57.594L228.386 49.989L228.648 49.11C215.921 49.614 204.625 53.95 194.609 61.165C192.668 62.497 190.961 64.517 189 65.665H189.27C191.781 67.488 194.156 70.121 196.277 72.395Z" fill="#0063AC"/>
<path d="M228.336 74.551C220.297 75.129 213.32 78.473 207.219 83.516C209.633 85.176 211.774 87.871 213.961 89.797C214.117 89.586 214.281 89.363 214.438 89.106C217.446 86.965 220.559 85.004 224.098 84.114C225.664 83.95 227.227 83.2 228.868 83.567C228.528 80.59 228.528 77.309 228.868 74.239L228.336 74.551Z" fill="#0063AC"/>
<path d="M228.762 87.082C223.676 87.75 218.989 89.492 215.262 93.445H215.946C216.716 94.207 217.938 94.047 218.52 95.066C218.805 95.636 217.977 95.57 218.008 96.039C218.172 96.176 218.399 96.199 218.52 96.418C219.118 96.629 218.989 96.074 219.223 95.824C220 95.035 220.137 96.582 220.891 96.582C221.43 96.23 222.188 96.199 222.563 96.801C223.079 96.356 224.157 96.762 224.313 95.953C225.305 94.902 224.758 93.297 226.211 92.629C226.719 92.902 226.18 93.387 226.371 93.832C227.344 94.238 228.453 93 229.242 93.992C228.527 91.93 228.695 89.359 228.762 87.082Z" fill="#0063AC"/>
<path d="M229.09 101.266C228.149 102.84 226.563 103.192 225.078 103.637C224.66 104.141 224.758 105.254 223.781 105.149C223.465 105.856 222.386 106.262 222.797 107.278C222.281 108.348 222.527 109.747 222.258 110.919C220.391 112.091 220.914 109.364 219.985 108.794L219.649 109.333C219.294 109.427 219.036 109.204 218.774 108.958C218.493 108.841 218.008 108.755 217.758 109.02C217.348 109.719 216.715 110.286 216.875 111.231C216.687 111.793 215.734 111.606 215.867 112.215C216.914 112.184 218.039 111.996 219.058 111.77C219.796 111.958 220.39 111.422 221.12 111.395C221.358 111.52 221.671 111.77 221.561 112.149H221.819C222.315 111.77 222.526 111.188 222.315 110.637C222.385 109.965 223.112 109.965 223.545 109.774C223.955 109.965 223.701 110.372 223.779 110.704C225.197 111.231 223.427 112.278 223.228 113.032C222.853 113.637 223.228 115.001 222.033 114.809C221.818 114.747 221.67 114.52 221.724 114.262H221.56C221.529 114.778 221.912 115.465 222.412 115.688C223.287 114.961 223.322 113.727 224.607 113.567C225.255 112.876 224.31 111.794 225.302 111.231C226.943 111.188 228.693 110.501 230.005 111.825C229.907 112.395 229.696 112.665 230.169 113.13C229.841 113.857 229.638 114.646 229.028 115.255C229.18 115.661 229.063 116.165 228.692 116.45C228.262 118.384 226.051 117.458 224.754 118.134C226.746 119.646 229.152 120.212 231.738 120.029C233.097 119.967 232.504 118.287 233.199 117.533C233.637 115.318 235.672 116.83 236.91 116.228C237.379 115.287 237.855 114.365 237.972 113.29C237.191 112.786 236.878 111.825 237.124 110.919C236.589 110.189 236.644 108.857 235.464 108.728C235.296 108.478 235.437 108.15 235.601 107.978C235.578 107.279 236.261 107.056 236.456 106.517C235.737 106.044 235.925 104.997 235.979 104.388C234.737 104.747 234.62 103.134 233.702 102.786C233.479 102.052 232.69 101.927 232.061 101.806C230.538 102.533 230.291 100.661 229.151 100.22C229.026 99.8721 228.756 99.3651 229.151 99.0831C229.721 98.5991 230.471 99.0171 231.135 98.9781L230.608 98.6971C230.104 98.1311 228.991 98.4821 228.331 98.6971C228.969 99.3321 228.695 100.473 229.09 101.266Z" fill="#0063AC"/>
<path d="M180.32 107.977L180.105 106.735C180.71 96.6369 183.929 87.6529 189.601 79.6219C191.015 78.0009 192.062 75.9849 193.839 74.7739C191.78 72.8479 189.64 70.5979 187.468 68.4809L187.253 67.6219C178.226 77.6529 172.671 89.1059 171.054 102.181C170.695 104.083 170.937 106.04 170.554 107.978C173.711 107.719 177.152 107.719 180.32 107.977Z" fill="#0063AC"/>
<path d="M265.934 145.793C265.032 147.527 263.075 148.629 261.586 149.969C259.531 152.028 256.18 152.465 255.129 155.446C254.027 156.446 253.652 158.032 252.106 158.598C251.52 160.121 249.907 160.028 248.993 161.129C246.341 163.504 244.626 159.617 242.22 159.149L237.383 160C235.699 160 234.024 160.598 232.438 160.059C232.672 163.278 232.672 166.762 232.438 169.997L233.04 169.614C248.298 168.958 261.458 163.161 272.755 152.907L266.087 146.544L265.934 145.793Z" fill="#0063AC"/>
<path d="M232.281 57.5199C232.281 57.2389 232.406 56.9929 232.578 56.7779C233.023 56.5119 233.383 56.9029 233.566 57.2079C233.613 57.6569 233.804 58.4229 233.425 58.6769C233.804 58.7319 234.007 58.4499 234.335 58.4499C241.581 58.9889 248.296 61.1019 254.312 64.5199V64.3679C255.55 63.7629 257.124 62.9729 258.39 64.0479C259.913 63.4819 260.191 65.3449 261.429 65.5639C262.921 66.4509 264.601 68.107 264.788 69.841C265.061 70.419 265.956 70.8179 266.085 71.4269C267.101 69.2749 269.12 67.7469 270.874 65.8839L271.933 65.4349C262.382 56.3299 251.027 51.2939 238.351 49.5559C236.343 49.2079 234.109 49.3959 232.187 48.7939C232.578 51.2929 232.465 54.7149 232.281 57.5199Z" fill="#0063AC"/>
<path d="M232.281 71.1369C233.484 70.7189 234.715 71.2349 235.922 71.2659C242.125 72.2779 247.992 74.2659 252.938 78.0979C252.352 77.4609 251.618 76.7429 251.485 75.8169C251.594 75.6919 251.712 75.6649 251.872 75.6919C251.938 74.7079 250.892 74.2039 250.747 73.3169C250.892 73.1369 251.122 72.9459 251.438 73.0359C252.504 74.0519 253.415 75.1609 254.215 76.2859C254.918 76.0089 255.481 76.4539 255.996 76.8249C256.906 77.3639 256.344 78.5439 257.047 79.1729C257.164 81.0439 259.442 82.0909 259.32 83.9499C259.336 84.3909 259.882 84.0439 260.074 84.2739L261.972 86.6059C261.62 87.0589 261.913 87.5979 262.3 87.8949C263.144 88.2929 263.624 87.2069 264.46 87.3679C265.694 88.0669 264.28 88.8879 264.398 89.6449C264.878 89.6719 265.488 89.2699 265.867 89.7429C266.027 90.4419 265.297 90.8839 264.996 91.3289C264.996 92.0199 265.578 91.8679 266.086 92.0199C266.648 91.9929 267.008 92.6919 266.848 93.1649C268.43 94.8099 266.368 96.5789 267.129 98.3249C267.625 99.4539 267.008 100.563 266.297 101.423C266.336 102.818 265.063 103.665 264.574 104.841L262.953 105.153C262.09 106.005 263.687 107.055 262.82 107.594L266.367 107.66L265.98 107.285C265.488 105.894 265.601 104.012 266.46 102.785C267.007 101.644 267.128 100.277 268.14 99.3009C268.359 99.2419 268.769 98.8279 268.96 99.3009C269.03 100.375 268.933 101.606 268.429 102.559C269.445 104.012 269.308 105.914 269.402 107.715C272.539 107.524 275.609 107.469 278.683 107.496L278.402 106.891C277.922 101.043 276.726 95.4959 274.281 90.5039C273.617 90.5429 273.14 91.0699 272.383 90.8829C272.133 90.7929 271.969 90.5429 272.004 90.2539C270.738 89.0509 269.938 87.4689 268.531 86.3829C266.894 86.5469 266.172 84.6759 264.715 84.4879C263.426 83.9489 264.317 81.8589 262.442 82.4369C261.528 82.0499 260.633 81.3549 260.45 80.3119C260.45 78.6669 260.134 76.8899 258.657 75.8159C257.509 75.4059 257.048 76.9209 255.891 76.6749C255.266 76.3509 255.551 75.5339 255.344 74.9989C255.129 74.5189 254.594 74.1749 254.688 73.5379C256.172 71.5809 252.883 71.6159 253.61 69.6789C253.415 68.2839 252.008 67.7409 251.274 66.6439C246.364 64.4249 241.462 62.9169 235.922 62.2459C234.563 62.0509 233.305 62.3399 232.133 61.7109L232.438 62.3009C232.371 65.2459 232.578 68.3789 232.281 71.1369Z" fill="#0063AC"/>
<path d="M266.895 74.3951C267.571 74.5511 267.762 75.3401 268.211 75.8171C270.508 77.0511 271.109 79.5241 273.141 80.9111C274.282 83.2981 276.907 85.1221 277 87.8451C279.75 93.9271 281.617 100.353 281.805 107.505L281.563 107.876C281.844 107.876 282.094 107.751 282.313 107.599L291.434 107.431C290.836 106.548 291.086 105.255 290.922 104.177C289.719 90.0951 283.711 78.0321 274.281 67.4041C272.531 69.7481 270.164 71.9271 267.984 74.1741L266.895 74.3951Z" fill="#0063AC"/>
<path d="M233.566 56.016C233.843 55.512 234.57 55.692 234.949 55.852L239.5 53.895C241.328 54.047 243.352 54.27 244.441 55.793V56.016C243.296 56.957 241.843 57.715 240.328 57.082C238.234 57.496 235.32 58.699 233.637 56.551C233.566 56.395 233.379 56.168 233.566 56.016Z" fill="white"/>
<path d="M260.766 61.766C261.391 61.965 261.973 62.246 262.196 62.918C262.02 63.625 262.864 64.238 262.348 64.805C260.633 65.25 260.477 63.325 259.157 62.848C258.969 62.59 258.907 62.27 258.93 61.926C259.535 61.199 260.098 62.406 260.766 61.766Z" fill="white"/>
</g>
<defs>
<clipPath id="clip0_601_1983">
<rect width="461" height="482" fill="white"/>
</clipPath>
</defs>
</svg>
