<svg width="340" height="214" viewBox="0 0 340 214" fill="none" xmlns="http://www.w3.org/2000/svg">
<g clip-path="url(#clip0_595_1812)">
<path d="M20.7549 97.1087L65.327 78.6456L68.7801 131.287L20.7549 97.1087Z" fill="#3D9E47"/>
<path d="M116.864 94.6775L156.303 109.688L123.535 149.068L116.864 94.6775Z" fill="#237875"/>
<path d="M68.874 131.204L27.4025 152.24L20.7549 97.1087L68.874 131.204Z" fill="#008A82"/>
<path d="M159.099 139.919L123.535 149.068L76.5083 169.575L115.243 172.981L159.099 139.919Z" fill="#055770"/>
<path d="M68.874 131.204L123.535 149.068L116.864 94.6775L68.874 131.204Z" fill="#008A85"/>
<path d="M116.864 94.6775L65.3271 78.6456L100.492 38.6423L116.864 94.6775Z" fill="#3D9E47"/>
<path d="M38.1255 40.5097L65.3268 78.6456L100.491 38.6423L38.149 40.5097H38.1255Z" fill="#73AB38"/>
<path d="M0.776633 59.654L20.7548 97.1087L0.00146484 112.377L0.776633 59.654Z" fill="#61A12E"/>
<path d="M0.776611 59.654L20.7548 97.1087L38.1256 40.498L0.776611 59.654Z" fill="#75B828"/>
<path d="M28.5769 18.4057L38.1256 40.5097L0.776611 59.654L28.5769 18.4057Z" fill="#99C554"/>
<path d="M65.327 78.6456L38.1257 40.5097L20.7549 97.1087L65.327 78.6456Z" fill="#389C35"/>
<path d="M0.00146484 112.365L20.7548 97.1087L27.4142 152.24L0.00146484 112.365Z" fill="#007D2E"/>
<path d="M38.1255 40.5097L69.508 0.00134277L100.491 38.6423L38.1255 40.5097Z" fill="#91BF3F"/>
<path d="M38.1256 40.5097L69.5081 0.00134277L28.5652 18.4409L38.1256 40.5097Z" fill="#75B828"/>
<path d="M68.7919 131.287L65.3271 78.6456L116.864 94.6775L68.7919 131.287Z" fill="#009438"/>
<path d="M123.535 149.068L68.874 131.204L76.5083 169.575L123.535 149.068Z" fill="#3D758C"/>
<path d="M27.4141 152.251L76.508 169.575L115.243 172.981L58.5265 173.287L27.4141 152.251Z" fill="#3D758C"/>
<path d="M116.864 94.6775L156.303 109.688L152.533 57.5517L116.864 94.6775Z" fill="#33918C"/>
<path d="M152.533 57.5517L156.75 32.946L174.426 84.9292L152.533 57.5517Z" fill="#005E54"/>
<path d="M124.698 14.847L111.027 0.96443L69.5083 0.00134277L124.698 14.847Z" fill="#4FA34F"/>
<path d="M100.492 38.6423L69.5083 0.00134277L124.698 14.847L100.492 38.6423Z" fill="#75B828"/>
<path d="M100.491 38.6423L116.864 94.6775L152.533 57.5517L100.491 38.6423Z" fill="#009438"/>
<path d="M100.491 38.6423L124.698 14.847L152.533 57.5517L100.491 38.6423Z" fill="#61A12E"/>
<path d="M111.027 0.964432L124.698 14.847L152.533 57.5517L156.738 32.9342L111.027 0.964432Z" fill="#008C35"/>
<path d="M27.4141 152.251L68.8738 131.204L76.508 169.575L27.4141 152.251Z" fill="#2E6E85"/>
<path d="M123.582 149.057L159.099 139.919L156.304 109.688L123.582 149.057Z" fill="#266B85"/>
<path d="M156.303 109.688L174.426 84.9057L152.533 57.5517L156.303 109.688Z" fill="#007A35"/>
<path d="M174.426 84.9292L159.099 139.919L156.303 109.688L174.426 84.9292Z" fill="#2B637D"/>
<path d="M214.605 120.246V131.639C211.822 133.459 208.792 134.493 204.869 134.493C197.434 134.493 191.021 129.079 191.021 121.021C191.021 112.906 197.54 107.527 204.869 107.527C208.721 107.527 211.469 108.595 214.136 110.228L212.104 113.798C210.001 112.436 207.511 111.626 205.092 111.626C199.137 111.626 195.79 115.83 195.79 121.021C195.79 126.589 199.889 130.535 205.057 130.535C207.3 130.535 208.792 130.147 210.33 129.29V124.157H204.235V120.246H214.605Z" fill="#3A3A3A"/>
<path d="M233.679 134.07L227.983 124.662C227.513 124.698 227.09 124.698 226.597 124.698C225.739 124.698 224.847 124.662 223.989 124.627V134.07H219.538V108.208C221.605 107.949 223.778 107.773 226.409 107.773C233.82 107.773 237.097 111.379 237.097 116.006C237.097 119.389 235.253 122.137 232.011 123.558L238.847 134.07H233.679ZM226.984 111.766C225.916 111.766 224.882 111.802 223.989 111.978V120.881C224.812 120.998 225.704 121.021 226.55 121.021C230.437 121.021 232.399 119.213 232.399 116.218C232.399 113.587 230.402 111.766 226.984 111.766" fill="#3A3A3A"/>
<path d="M242.042 134.07V107.949H257.968V112.013H246.493V118.86H256.864V122.771H246.493V130.006H257.968V134.07H242.042Z" fill="#3A3A3A"/>
<path d="M263.194 134.07V107.949H279.109V112.013H267.646V118.86H278.005V122.771H267.646V130.006H279.109V134.07H263.194Z" fill="#3A3A3A"/>
<path d="M305.147 134.563L288.787 117.322V134.07H284.335V107.597L285.052 107.456L301.189 124.451V107.949H305.641V134.458L305.147 134.563Z" fill="#3A3A3A"/>
<path d="M205.115 173.709C196.847 173.709 191.045 168.013 191.045 160.238C191.045 152.51 196.917 146.743 205.115 146.743C208.357 146.743 211.317 147.777 213.525 149.127L211.986 152.897C209.919 151.735 207.359 150.912 205.045 150.912C199.302 150.912 195.813 154.718 195.813 160.238C195.813 165.735 199.407 169.54 205.151 169.54C207.464 169.54 210.177 168.718 212.28 167.473L213.63 171.255C211.458 172.641 208.357 173.709 205.115 173.709Z" fill="#3A3A3A"/>
<path d="M217.53 173.287V147.166H221.981V169.223H233.456V173.287H217.53Z" fill="#3A3A3A"/>
<path d="M237.109 147.166H241.572V173.287H237.109V147.166Z" fill="#3A3A3A"/>
<path d="M269.173 173.287L268.809 157.642L260.587 170.115H260.047L251.755 157.607L251.473 173.287H247.081L248.185 146.849L248.866 146.778L260.446 164.09L271.733 146.778L272.45 146.849L273.554 173.287H269.173Z" fill="#3A3A3A"/>
<path d="M295.904 173.287L293.379 167.297H283.043L280.518 173.287H275.926L287.964 146.813H288.61L300.614 173.287H295.904ZM288.211 155.047L284.511 163.773H291.922L288.211 155.047Z" fill="#3A3A3A"/>
<path d="M311.995 151.23V173.287H307.543V151.23H299.24V147.166H320.263V151.23H311.995Z" fill="#3A3A3A"/>
<path d="M323.986 173.287V147.166H339.913V151.23H328.449V158.065H338.808V161.988H328.449V169.223H339.913V173.287H323.986Z" fill="#3A3A3A"/>
<path d="M196.319 190.528V198.151H206.407V202.097H196.319V212.574H191.867V186.464H207.793V190.528H196.319Z" fill="#3A3A3A"/>
<path d="M221.711 213.008C215.193 213.008 211.34 209.332 211.34 202.567V186.464H215.792V202.25C215.792 206.736 218.011 208.944 221.782 208.944C225.528 208.944 227.76 206.701 227.76 202.25V186.464H232.223V202.567C232.223 209.226 228.124 213.008 221.711 213.008" fill="#3A3A3A"/>
<path d="M258.391 213.079L242.042 195.825V212.574H237.59V186.112L238.295 185.959L254.433 202.954V186.464H258.884V212.961L258.391 213.079Z" fill="#3A3A3A"/>
<path d="M272.085 212.785C269.243 212.785 267.211 212.609 264.568 212.362V186.711C267.105 186.429 269.243 186.288 271.838 186.288C282.174 186.288 287.26 192.231 287.26 199.29C287.26 206.631 282.421 212.785 272.085 212.785ZM272.379 190.199C271.087 190.199 269.948 190.27 269.02 190.411V208.627C270.124 208.803 271.052 208.839 272.767 208.839C279.461 208.839 282.491 204.81 282.491 199.29C282.491 193.875 279.003 190.199 272.379 190.199" fill="#3A3A3A"/>
</g>
<defs>
<clipPath id="clip0_595_1812">
<rect width="340" height="214" fill="white"/>
</clipPath>
</defs>
</svg>
