<?xml version="1.0" encoding="UTF-8" standalone="no"?>
<!DOCTYPE svg PUBLIC "-//W3C//DTD SVG 1.1//EN" "http://www.w3.org/Graphics/SVG/1.1/DTD/svg11.dtd">
<svg width="100%" height="100%" viewBox="0 0 601 312" version="1.1" xmlns="http://www.w3.org/2000/svg" xmlns:xlink="http://www.w3.org/1999/xlink" xml:space="preserve" xmlns:serif="http://www.serif.com/" style="fill-rule:evenodd;clip-rule:evenodd;stroke-linejoin:round;stroke-miterlimit:2;">
    <g transform="matrix(1,0,0,1,-21.9,-165.7)">
        <g transform="matrix(1,0,0,1,153,46)">
            <path d="M103.5,120.3C103.3,120.1 103,119.8 102.5,119.8L77.7,119.8C76,119.8 74.5,120.9 74,122.6L52,201.1L50.1,207.8L48.2,201.1L25.7,120.8C25.5,120.2 25,119.8 24.4,119.8L-3.7,119.8C-5.4,119.8 -6.9,120.9 -7.4,122.6L-18,160.9L-29.4,201.5L-31.3,208.2L-33.2,201.5L-49.1,144.5L-55.7,120.8C-55.9,120.2 -56.4,119.8 -56.9,119.8L-57,119.8C-61.5,120.2 -73,121.6 -82.6,124.7C-83.3,124.9 -83.6,125.6 -83.5,126.3L-46.6,257.1C-46.1,258.7 -44.6,259.9 -42.9,259.9L-19.1,259.9C-17.4,259.9 -15.9,258.8 -15.4,257.1L7.8,174.3L9.7,167.6L11.6,174.3L34.8,257.2C35.3,258.8 36.8,260 38.5,260L62,260C63.7,260 65.2,258.9 65.7,257.2L103.7,121.3C103.9,120.9 103.7,120.5 103.5,120.3" style="fill:rgb(39,88,127);fill-rule:nonzero;"/>
        </g>
        <g transform="matrix(1,0,0,1,153,46)">
            <path d="M-102.5,135.3L-102.6,135.3L-103.3,135.6C-120.4,144.6 -131,162.3 -131,181.9L-131,257.3C-131,258.8 -129.7,260.1 -128.2,260.1L-105,260.1C-103.5,260.1 -102.2,258.8 -102.2,257.3L-102.2,135.6C-102.2,135.5 -102.3,135.4 -102.3,135.4C-102.4,135.3 -102.5,135.3 -102.5,135.3" style="fill:rgb(39,88,127);fill-rule:nonzero;"/>
        </g>
        <g transform="matrix(1,0,0,1,153,46)">
            <path d="M325.9,119.7L302.7,119.7C301.2,119.7 299.9,121 299.9,122.5L299.9,244.3C299.9,244.4 300,244.5 300,244.5L300.3,244.5L301,244.2C318.1,235.2 328.7,217.5 328.7,197.9L328.7,122.6C328.7,121 327.4,119.7 325.9,119.7" style="fill:rgb(39,88,127);fill-rule:nonzero;"/>
        </g>
        <g transform="matrix(1,0,0,1,153,46)">
            <path d="M244.3,122.6C243.8,121 242.3,119.8 240.6,119.8L216.8,119.8C215.1,119.8 213.6,120.9 213.1,122.6L190,205.5L188.1,212.2L186.2,205.5L163,122.5C162.5,120.9 161,119.7 159.3,119.7L135.5,119.7C133.8,119.7 132.3,120.8 131.8,122.5L93.8,258.4C93.6,258.9 93.9,259.3 94,259.5C94.2,259.7 94.5,260 95,260L120,260C121.7,260 123.2,258.9 123.7,257.2L145.7,178.7L147.6,172L149.5,178.7L172,259C172.2,259.6 172.7,259.9 173.3,259.9L201.5,259.9C203.2,259.9 204.7,258.8 205.2,257.1L215.9,218.8L227.3,178.2L229.2,171.5L231.1,178.2L247,235.2L253.6,258.9C253.8,259.5 254.3,259.9 254.8,259.9L254.9,259.9C259.4,259.5 270.9,258.1 280.5,255C281.2,254.8 281.5,254.1 281.4,253.4L244.3,122.6Z" style="fill:rgb(39,88,127);fill-rule:nonzero;"/>
        </g>
        <g transform="matrix(1,0,0,1,153,46)">
            <rect x="-131" y="307" width="6.3" height="42.9" style="fill:rgb(39,88,127);"/>
        </g>
        <g transform="matrix(1,0,0,1,153,46)">
            <path d="M-108.5,322.7C-106.8,317.7 -103.1,315.4 -98.3,315.4C-93.1,315.4 -88.7,318.5 -88.7,325.8L-88.7,349.9L-94.9,349.9L-94.9,327.8C-94.9,323.6 -96.7,321.1 -100.5,321.1C-104.3,321.1 -108,323.3 -108,330.6L-108,349.9L-114.2,349.9L-114.2,316.2L-109.3,316.2L-108.5,322.7Z" style="fill:rgb(39,88,127);fill-rule:nonzero;"/>
        </g>
        <g transform="matrix(1,0,0,1,153,46)">
            <path d="M-61.9,348.8C-64,350.1 -66.6,350.8 -69.6,350.8C-75.3,350.8 -78.7,347.6 -78.7,341.3L-78.7,321.5L-83.3,321.5L-83.3,316.3L-78.7,316.3L-78.7,309.2L-72.5,308.4L-72.5,316.3L-63.1,316.3L-63.1,321.5L-72.6,321.5L-72.6,340C-72.6,343.6 -71,345.2 -68.4,345.2C-66.3,345.2 -64.9,344.6 -63.1,343.4L-61.9,348.8Z" style="fill:rgb(39,88,127);fill-rule:nonzero;"/>
        </g>
        <g transform="matrix(1,0,0,1,153,46)">
            <path d="M-36.9,340.1L-31.5,341.6C-32.8,348.4 -38.2,350.7 -44.2,350.7C-52.6,350.7 -58.3,344.5 -58.3,333.3C-58.3,322 -52.7,315.4 -43.8,315.4C-35.6,315.4 -31.2,321.4 -31.2,329.8C-31.2,331.7 -31.5,333.4 -31.8,334.5L-52.3,334.5C-52,341.1 -49.1,345.7 -43.8,345.7C-40.4,345.6 -38,344.1 -36.9,340.1M-37.4,329.7C-37.3,329.2 -37.3,328.7 -37.3,328.3C-37.3,324 -39.9,320.6 -44.2,320.6C-48.7,320.6 -51.6,323.9 -52.2,329.7L-37.4,329.7Z" style="fill:rgb(39,88,127);fill-rule:nonzero;"/>
        </g>
        <g transform="matrix(1,0,0,1,153,46)">
            <path d="M-5.7,322.8C-6.5,322.7 -7.5,322.5 -8.5,322.5C-13,322.5 -17.3,326.2 -17.3,332.8L-17.3,349.9L-23.5,349.9L-23.5,316.2L-18.3,316.2L-17.6,325.3C-16.4,319.3 -12.4,315.1 -5.3,315.5L-5.7,322.8Z" style="fill:rgb(39,88,127);fill-rule:nonzero;"/>
        </g>
        <g transform="matrix(1,0,0,1,153,46)">
            <path d="M6.6,322.7C8.3,317.7 12,315.4 16.8,315.4C22,315.4 26.4,318.5 26.4,325.8L26.4,349.9L20.2,349.9L20.2,327.8C20.2,323.6 18.4,321.1 14.6,321.1C10.8,321.1 7.1,323.3 7.1,330.6L7.1,349.9L1,349.9L1,316.2L5.9,316.2L6.6,322.7Z" style="fill:rgb(39,88,127);fill-rule:nonzero;"/>
        </g>
        <g transform="matrix(1,0,0,1,153,46)">
            <path d="M58.2,341.9C58.2,344.4 59.3,345 60.5,345C61.3,345 61.8,344.8 62.3,344.6L62.3,349.7C61.4,350.1 60.3,350.3 58.9,350.3C55.3,350.3 52.9,348.7 52.4,344.9C50.7,349.1 47,350.7 43,350.7C37.4,350.7 33.5,347.3 33.5,341.6C33.5,334.2 38.9,329.9 51.9,330.5L51.9,326.3C51.9,322.2 49.6,320.6 46.2,320.6C42.8,320.6 40.7,322.5 40.4,326L34.5,325C35,317.9 40.9,315.3 46.7,315.3C52.9,315.3 58.1,317.9 58.1,325.7L58.1,341.9L58.2,341.9ZM52,334.9C43.5,334.7 39.8,336.7 39.8,340.9C39.8,343.7 41.5,345.8 44.9,345.8C48.2,345.8 52,343.7 52,339.8L52,334.9Z" style="fill:rgb(39,88,127);fill-rule:nonzero;"/>
        </g>
        <g transform="matrix(1,0,0,1,153,46)">
            <path d="M86,348.8C83.9,350.1 81.3,350.8 78.3,350.8C72.6,350.8 69.2,347.6 69.2,341.3L69.2,321.5L64.6,321.5L64.6,316.3L69.2,316.3L69.2,309.2L75.4,308.4L75.4,316.3L84.8,316.3L84.8,321.5L75.3,321.5L75.3,340C75.3,343.6 76.9,345.2 79.5,345.2C81.6,345.2 83,344.6 84.8,343.4L86,348.8Z" style="fill:rgb(39,88,127);fill-rule:nonzero;"/>
        </g>
        <g transform="matrix(1,0,0,1,153,46)">
            <path d="M95,301.1C97.4,301.1 99.3,302.8 99.3,305.5C99.3,308 97.4,309.9 95,309.9C92.8,309.9 90.9,308 90.9,305.5C90.9,302.8 92.8,301.1 95,301.1M98.2,349.9L92,349.9L92,316.2L98.2,316.2L98.2,349.9Z" style="fill:rgb(39,88,127);fill-rule:nonzero;"/>
        </g>
        <g transform="matrix(1,0,0,1,153,46)">
            <path d="M106,332.8C106,321.4 111.7,315.4 120.4,315.4C129.2,315.4 134.9,321.4 134.9,332.8C134.9,344.3 129.2,350.7 120.4,350.7C111.7,350.7 106,344.3 106,332.8M112.1,332.9C112.1,341.4 114.9,345.6 120.4,345.6C126,345.6 128.8,341.4 128.8,332.9C128.8,324.7 125.9,320.7 120.4,320.7C115,320.7 112.1,324.7 112.1,332.9" style="fill:rgb(39,88,127);fill-rule:nonzero;"/>
        </g>
        <g transform="matrix(1,0,0,1,153,46)">
            <path d="M148.4,322.7C150.1,317.7 153.8,315.4 158.6,315.4C163.8,315.4 168.2,318.5 168.2,325.8L168.2,349.9L162,349.9L162,327.8C162,323.6 160.2,321.1 156.4,321.1C152.5,321.1 148.9,323.3 148.9,330.6L148.9,349.9L142.7,349.9L142.7,316.2L147.6,316.2L148.4,322.7Z" style="fill:rgb(39,88,127);fill-rule:nonzero;"/>
        </g>
        <g transform="matrix(1,0,0,1,153,46)">
            <path d="M200,341.9C200,344.4 201.1,345 202.3,345C203.1,345 203.6,344.8 204.1,344.6L204.1,349.7C203.2,350.1 202.1,350.3 200.7,350.3C197.1,350.3 194.7,348.7 194.2,344.9C192.5,349.1 188.8,350.7 184.8,350.7C179.2,350.7 175.3,347.3 175.3,341.6C175.3,334.2 180.7,329.9 193.7,330.5L193.7,326.3C193.7,322.2 191.4,320.6 188,320.6C184.6,320.6 182.5,322.5 182.2,326L176.3,325C176.8,317.9 182.7,315.3 188.5,315.3C194.7,315.3 199.9,317.9 199.9,325.7L199.9,341.9L200,341.9ZM193.8,334.9C185.3,334.7 181.6,336.7 181.6,340.9C181.6,343.7 183.3,345.8 186.7,345.8C190,345.8 193.8,343.7 193.8,339.8L193.8,334.9Z" style="fill:rgb(39,88,127);fill-rule:nonzero;"/>
        </g>
        <g transform="matrix(1,0,0,1,153,46)">
            <path d="M221.4,349.9C219.8,350.3 218.7,350.5 217.6,350.5C213.6,350.5 210.3,348.2 210.3,343.2L210.3,301.2L216.5,301.2L216.5,341.8C216.5,343.9 217.7,344.8 219.3,344.8C220.2,344.8 220.8,344.7 221.5,344.4L221.4,349.9Z" style="fill:rgb(39,88,127);fill-rule:nonzero;"/>
        </g>
        <g transform="matrix(1,0,0,1,153,46)">
            <path d="M277.4,333.8C279,340.5 279.6,345.4 279.6,345.4L279.9,345.4C279.9,345.4 280.5,340.4 282,333.9L288.4,306.9L294.8,306.9L284.3,349.8L275.3,349.8L269.1,324.5C267.4,317.9 267.4,313 267.4,313L267.1,313C267.1,313 266.8,317.8 265.2,324.5L259.1,349.8L250.1,349.8L239.6,307L246.3,307L252.6,333.8C254.1,340.4 254.7,345.5 254.7,345.5L255,345.5C255,345.5 255.5,340.5 257.1,333.8L263.6,307L271,307L277.4,333.8Z" style="fill:rgb(39,88,127);fill-rule:nonzero;"/>
        </g>
        <g transform="matrix(1,0,0,1,153,46)">
            <path d="M322.1,341.9C322.1,344.4 323.2,345 324.4,345C325.2,345 325.7,344.8 326.2,344.6L326.2,349.7C325.3,350.1 324.2,350.3 322.8,350.3C319.2,350.3 316.8,348.7 316.3,344.9C314.6,349.1 310.9,350.7 306.9,350.7C301.3,350.7 297.4,347.3 297.4,341.6C297.4,334.2 302.8,329.9 315.8,330.5L315.8,326.3C315.8,322.2 313.5,320.6 310.1,320.6C306.7,320.6 304.6,322.5 304.3,326L298.4,325C298.9,317.9 304.8,315.3 310.6,315.3C316.8,315.3 322,317.9 322,325.7L322,341.9L322.1,341.9ZM315.9,334.9C307.4,334.7 303.7,336.7 303.7,340.9C303.7,343.7 305.4,345.8 308.8,345.8C312.1,345.8 315.9,343.7 315.9,339.8L315.9,334.9Z" style="fill:rgb(39,88,127);fill-rule:nonzero;"/>
        </g>
        <g transform="matrix(1,0,0,1,153,46)">
            <path d="M350,348.8C347.9,350.1 345.3,350.8 342.3,350.8C336.6,350.8 333.2,347.6 333.2,341.3L333.2,321.5L328.6,321.5L328.6,316.3L333.2,316.3L333.2,309.2L339.4,308.4L339.4,316.3L348.8,316.3L348.8,321.5L339.3,321.5L339.3,340C339.3,343.6 340.9,345.2 343.5,345.2C345.6,345.2 347,344.6 348.8,343.4L350,348.8Z" style="fill:rgb(39,88,127);fill-rule:nonzero;"/>
        </g>
        <g transform="matrix(1,0,0,1,153,46)">
            <path d="M375,340.1L380.4,341.6C379.1,348.4 373.7,350.7 367.7,350.7C359.3,350.7 353.6,344.5 353.6,333.3C353.6,322 359.2,315.4 368.1,315.4C376.3,315.4 380.7,321.4 380.7,329.8C380.7,331.7 380.4,333.4 380.1,334.5L359.6,334.5C359.9,341.1 362.8,345.7 368.1,345.7C371.5,345.6 373.9,344.1 375,340.1M374.5,329.7C374.6,329.2 374.6,328.7 374.6,328.3C374.6,324 372,320.6 367.7,320.6C363.2,320.6 360.3,323.9 359.7,329.7L374.5,329.7Z" style="fill:rgb(39,88,127);fill-rule:nonzero;"/>
        </g>
        <g transform="matrix(1,0,0,1,153,46)">
            <path d="M406.2,322.8C405.4,322.7 404.4,322.5 403.4,322.5C398.9,322.5 394.6,326.2 394.6,332.8L394.6,349.9L388.4,349.9L388.4,316.2L393.6,316.2L394.3,325.3C395.5,319.3 399.5,315.1 406.6,315.5L406.2,322.8Z" style="fill:rgb(39,88,127);fill-rule:nonzero;"/>
        </g>
        <g transform="matrix(1,0,0,1,153,46)">
            <path d="M-114.2,405.6L-121.8,390.7C-124.1,386 -124.8,383.3 -124.8,383.3L-125.1,383.3C-125.1,383.3 -124.8,385.9 -124.8,391L-124.8,416L-131.1,416L-131.1,373.1L-123.8,373.1L-114.2,392.9C-112.6,396.2 -112.1,398.1 -112.1,398.1L-111.8,398.1C-111.8,398.1 -111.4,396.1 -109.7,392.9L-100.2,373.1L-93.1,373.1L-93.1,416L-99.5,416L-99.5,391C-99.5,385.9 -99.1,383.3 -99.1,383.3L-99.4,383.3C-99.4,383.3 -100.1,386 -102.5,390.7L-110.1,405.6L-114.2,405.6Z" style="fill:rgb(39,88,127);fill-rule:nonzero;"/>
        </g>
        <g transform="matrix(1,0,0,1,153,46)">
            <path d="M-60.2,408.1C-60.2,410.6 -59.1,411.2 -57.9,411.2C-57.1,411.2 -56.6,411 -56.1,410.8L-56.1,415.9C-57,416.3 -58.1,416.5 -59.5,416.5C-63.1,416.5 -65.5,414.9 -66,411.1C-67.7,415.3 -71.4,416.9 -75.4,416.9C-81,416.9 -84.9,413.5 -84.9,407.8C-84.9,400.4 -79.5,396.1 -66.5,396.7L-66.5,392.5C-66.5,388.4 -68.8,386.8 -72.2,386.8C-75.6,386.8 -77.7,388.7 -78,392.2L-83.9,391.2C-83.4,384.1 -77.5,381.5 -71.7,381.5C-65.5,381.5 -60.3,384.1 -60.3,391.9L-60.3,408.1L-60.2,408.1ZM-66.4,401C-74.9,400.8 -78.6,402.8 -78.6,407C-78.6,409.8 -76.9,411.9 -73.5,411.9C-70.2,411.9 -66.4,409.8 -66.4,405.9L-66.4,401Z" style="fill:rgb(39,88,127);fill-rule:nonzero;"/>
        </g>
        <g transform="matrix(1,0,0,1,153,46)">
            <path d="M-43.9,388.9C-42.2,383.9 -38.5,381.6 -33.7,381.6C-28.5,381.6 -24.1,384.7 -24.1,392L-24.1,416.1L-30.3,416.1L-30.3,394C-30.3,389.8 -32.1,387.3 -35.9,387.3C-39.7,387.3 -43.4,389.5 -43.4,396.8L-43.4,416.1L-49.6,416.1L-49.6,382.4L-44.7,382.4L-43.9,388.9Z" style="fill:rgb(39,88,127);fill-rule:nonzero;"/>
        </g>
        <g transform="matrix(1,0,0,1,153,46)">
            <path d="M7.7,408.1C7.7,410.6 8.8,411.2 10,411.2C10.8,411.2 11.3,411 11.8,410.8L11.8,415.9C10.9,416.3 9.8,416.5 8.4,416.5C4.8,416.5 2.4,414.9 1.9,411.1C0.2,415.3 -3.5,416.9 -7.5,416.9C-13.1,416.9 -17,413.5 -17,407.8C-17,400.4 -11.6,396.1 1.4,396.7L1.4,392.5C1.4,388.4 -0.9,386.8 -4.3,386.8C-7.7,386.8 -9.8,388.7 -10.1,392.2L-16,391.2C-15.5,384.1 -9.6,381.5 -3.8,381.5C2.4,381.5 7.6,384.1 7.6,391.9L7.6,408.1L7.7,408.1ZM1.5,401C-7,400.8 -10.7,402.8 -10.7,407C-10.7,409.8 -9,411.9 -5.6,411.9C-2.3,411.9 1.5,409.8 1.5,405.9L1.5,401Z" style="fill:rgb(39,88,127);fill-rule:nonzero;"/>
        </g>
        <g transform="matrix(1,0,0,1,153,46)">
            <path d="M38.4,384.3C39.9,383.4 40.4,381.7 40.8,379.2L46.2,381.2C45.7,384.4 43.5,386.6 40.9,387.2C41.9,388.9 42.3,391.1 42.3,393.5C42.3,401.3 36.4,405.2 29.3,405.2C27.7,405.2 26.1,405 25.2,404.6C23.6,405.5 23.1,406.6 23.1,408.1C23.1,410 24.3,410.9 26.5,410.9L34.3,410.9C41.5,410.9 45.4,414.2 45.4,420.3C45.4,429.1 36.5,431.5 28.2,431.5C21.2,431.5 14.3,429.6 14.3,422.7C14.3,418.3 17.2,415.4 22.5,415C19.6,414.6 18.1,412.4 18.1,409.7C18.1,407 19.4,404.8 22.8,403.8C18.9,402 16.6,398.6 16.6,393.6C16.6,386 21.8,381.6 29.4,381.6C32.9,381.6 36,382.5 38.4,384.3M28.5,426.8C34.9,426.8 39.1,425.5 39.1,421.3C39.1,418.8 37.8,416.9 33.7,416.9L27,416.9C22.5,416.9 19.9,418.5 19.9,422C19.9,425.5 23.5,426.8 28.5,426.8M29.2,400.5C33.4,400.5 36.1,398.2 36.1,393.4C36.1,388.7 33.4,386.2 29.2,386.3C25,386.3 22.5,388.8 22.5,393.4C22.5,397.7 24.9,400.5 29.2,400.5" style="fill:rgb(39,88,127);fill-rule:nonzero;"/>
        </g>
        <g transform="matrix(1,0,0,1,153,46)">
            <path d="M69.7,406.3L75.1,407.8C73.8,414.6 68.4,416.9 62.4,416.9C54,416.9 48.3,410.7 48.3,399.5C48.3,388.2 53.9,381.6 62.8,381.6C71,381.6 75.4,387.6 75.4,396C75.4,397.9 75.1,399.6 74.8,400.7L54.2,400.7C54.5,407.3 57.4,411.9 62.7,411.9C66.2,411.8 68.6,410.3 69.7,406.3M69.2,395.9C69.3,395.4 69.3,394.9 69.3,394.5C69.3,390.2 66.7,386.8 62.4,386.8C57.9,386.8 55,390.1 54.4,395.9L69.2,395.9Z" style="fill:rgb(39,88,127);fill-rule:nonzero;"/>
        </g>
        <g transform="matrix(1,0,0,1,153,46)">
            <path d="M117.3,381.6C122.7,381.6 126.7,384.7 126.7,391.7L126.7,416L120.5,416L120.5,393.8C120.5,389.7 118.8,387.2 115.2,387.2C111.6,387.2 108,389.9 108,396.7L108,416L101.8,416L101.8,393.8C101.8,389.7 100.1,387.2 96.5,387.2C92.9,387.2 89.3,390 89.3,396.7L89.3,416L83.1,416L83.1,382.3L88,382.3L88.8,388.8C90.4,383.6 94.4,381.5 98.7,381.5C103.2,381.5 106.5,383.6 107.3,388.9C108.9,383.6 113,381.6 117.3,381.6" style="fill:rgb(39,88,127);fill-rule:nonzero;"/>
        </g>
        <g transform="matrix(1,0,0,1,153,46)">
            <path d="M155.6,406.3L161,407.8C159.7,414.6 154.3,416.9 148.3,416.9C139.9,416.9 134.2,410.7 134.2,399.5C134.2,388.2 139.8,381.6 148.7,381.6C156.9,381.6 161.3,387.6 161.3,396C161.3,397.9 161,399.6 160.7,400.7L140.2,400.7C140.5,407.3 143.4,411.9 148.7,411.9C152.2,411.8 154.5,410.3 155.6,406.3M155.1,395.9C155.2,395.4 155.2,394.9 155.2,394.5C155.2,390.2 152.6,386.8 148.3,386.8C143.8,386.8 140.9,390.1 140.3,395.9L155.1,395.9Z" style="fill:rgb(39,88,127);fill-rule:nonzero;"/>
        </g>
        <g transform="matrix(1,0,0,1,153,46)">
            <path d="M174.7,388.9C176.4,383.9 180.1,381.6 184.9,381.6C190.1,381.6 194.5,384.7 194.5,392L194.5,416.1L188.3,416.1L188.3,394C188.3,389.8 186.5,387.3 182.7,387.3C178.8,387.3 175.2,389.5 175.2,396.8L175.2,416.1L169,416.1L169,382.4L173.9,382.4L174.7,388.9Z" style="fill:rgb(39,88,127);fill-rule:nonzero;"/>
        </g>
        <g transform="matrix(1,0,0,1,153,46)">
            <path d="M221.2,415C219.1,416.3 216.5,417 213.5,417C207.8,417 204.4,413.8 204.4,407.5L204.4,387.7L199.8,387.7L199.8,382.5L204.4,382.5L204.4,375.4L210.6,374.6L210.6,382.5L220,382.5L220,387.7L210.5,387.7L210.5,406.2C210.5,409.8 212.1,411.4 214.7,411.4C216.8,411.4 218.2,410.8 220,409.6L221.2,415Z" style="fill:rgb(39,88,127);fill-rule:nonzero;"/>
        </g>
        <g transform="matrix(1,0,0,1,153,46)">
            <rect x="243.2" y="373.1" width="6.3" height="42.9" style="fill:rgb(39,88,127);"/>
        </g>
        <g transform="matrix(1,0,0,1,153,46)">
            <path d="M265.8,388.9C267.5,383.9 271.2,381.6 276,381.6C281.2,381.6 285.6,384.7 285.6,392L285.6,416.1L279.4,416.1L279.4,394C279.4,389.8 277.6,387.3 273.8,387.3C270,387.3 266.3,389.5 266.3,396.8L266.3,416.1L260.1,416.1L260.1,382.4L265,382.4L265.8,388.9Z" style="fill:rgb(39,88,127);fill-rule:nonzero;"/>
        </g>
        <g transform="matrix(1,0,0,1,153,46)">
            <path d="M297.5,406.7C298,410.6 300.6,412.2 304.4,412.2C308,412.2 310.7,410.7 310.7,407.7C310.7,404.9 309.5,403.4 305.7,402.4L301,401.2C295.2,399.8 293,396.6 293,391.7C293,384.1 298.9,381.6 304.9,381.6C311.6,381.6 315.7,384.2 316.3,390.7L310.3,391.4C310.1,388 308.2,386.5 304.5,386.5C301,386.5 298.9,388.2 298.9,391C298.9,393.4 299.8,394.9 303.2,395.7L307.6,396.8C313.2,398.3 316.4,401 316.4,406.9C316.4,414.1 311,416.8 304.1,416.8C296.9,416.8 292.7,414.5 291.8,408.4L297.5,406.7Z" style="fill:rgb(39,88,127);fill-rule:nonzero;"/>
        </g>
        <g transform="matrix(1,0,0,1,153,46)">
            <path d="M341,415C338.9,416.3 336.3,417 333.3,417C327.6,417 324.2,413.8 324.2,407.5L324.2,387.7L319.6,387.7L319.6,382.5L324.2,382.5L324.2,375.4L330.4,374.6L330.4,382.5L339.8,382.5L339.8,387.7L330.3,387.7L330.3,406.2C330.3,409.8 331.9,411.4 334.5,411.4C336.6,411.4 338,410.8 339.8,409.6L341,415Z" style="fill:rgb(39,88,127);fill-rule:nonzero;"/>
        </g>
        <g transform="matrix(1,0,0,1,153,46)">
            <path d="M350.1,367.2C352.5,367.2 354.4,368.9 354.4,371.6C354.4,374.1 352.5,376 350.1,376C347.9,376 346,374.1 346,371.6C345.9,369 347.9,367.2 350.1,367.2M353.2,416L347,416L347,382.3L353.2,382.3L353.2,416Z" style="fill:rgb(39,88,127);fill-rule:nonzero;"/>
        </g>
        <g transform="matrix(1,0,0,1,153,46)">
            <path d="M380.3,415C378.2,416.3 375.6,417 372.6,417C366.9,417 363.5,413.8 363.5,407.5L363.5,387.7L358.9,387.7L358.9,382.5L363.5,382.5L363.5,375.4L369.7,374.6L369.7,382.5L379.1,382.5L379.1,387.7L369.6,387.7L369.6,406.2C369.6,409.8 371.2,411.4 373.8,411.4C375.9,411.4 377.3,410.8 379.1,409.6L380.3,415Z" style="fill:rgb(39,88,127);fill-rule:nonzero;"/>
        </g>
        <g transform="matrix(1,0,0,1,153,46)">
            <path d="M405.2,409.9C403.7,414.9 400.5,416.9 395.5,416.9C389.7,416.9 385.9,413.8 385.9,405.8L385.9,382.4L392.1,382.4L392.1,404.8C392.1,409.8 393.9,412.1 397.8,412.1C401.2,412.1 405.1,408.8 405.1,402.3L405.1,382.4L411.3,382.4L411.3,416L406,416L405.2,409.9Z" style="fill:rgb(39,88,127);fill-rule:nonzero;"/>
        </g>
        <g transform="matrix(1,0,0,1,153,46)">
            <path d="M438.3,415C436.2,416.3 433.6,417 430.6,417C424.9,417 421.5,413.8 421.5,407.5L421.5,387.7L416.9,387.7L416.9,382.5L421.5,382.5L421.5,375.4L427.7,374.6L427.7,382.5L437.1,382.5L437.1,387.7L427.6,387.7L427.6,406.2C427.6,409.8 429.2,411.4 431.8,411.4C433.9,411.4 435.3,410.8 437.1,409.6L438.3,415Z" style="fill:rgb(39,88,127);fill-rule:nonzero;"/>
        </g>
        <g transform="matrix(1,0,0,1,153,46)">
            <path d="M463.3,406.3L468.7,407.8C467.4,414.6 462,416.9 456,416.9C447.6,416.9 441.9,410.7 441.9,399.5C441.9,388.2 447.5,381.6 456.4,381.6C464.6,381.6 469,387.6 469,396C469,397.9 468.7,399.6 468.4,400.7L447.9,400.7C448.2,407.3 451.1,411.9 456.4,411.9C459.9,411.8 462.2,410.3 463.3,406.3M462.8,395.9C462.9,395.4 462.9,394.9 462.9,394.5C462.9,390.2 460.3,386.8 456,386.8C451.5,386.8 448.6,390.1 448,395.9L462.8,395.9Z" style="fill:rgb(39,88,127);fill-rule:nonzero;"/>
        </g>
    </g>
</svg>
