<svg width="200" height="299" viewBox="0 0 200 299" fill="none" xmlns="http://www.w3.org/2000/svg">
<g clip-path="url(#clip0_592_1735)">
<path d="M69.8086 244.263C67.9078 244.263 66.3233 245.216 65.6891 246.797L57.7665 267.389L57.1324 269.607L56.4999 267.389L50.1618 247.431V247.115C49.5276 245.531 47.9431 244.263 46.0423 244.263H35.901C33.6824 244.579 32.0978 246.163 32.0978 248.699C32.0978 249.331 32.4141 249.965 32.4141 250.596L33.6808 255.032L28.9272 267.384L27.9768 269.604L27.3427 267.384L21.3208 247.428V247.112H21.0046C20.6883 245.528 19.1038 244.26 17.2014 244.26H7.06171C4.84305 244.576 2.94226 246.158 2.94226 248.696C2.94226 249.328 3.26012 249.962 3.57479 250.593L18.4681 295.58C19.1022 297.477 20.6867 298.745 22.5891 298.745C24.4899 298.745 26.0744 297.477 26.7085 295.895L37.1661 269.285L38.1165 266.75L38.7506 269.285L47.6236 295.58C47.9399 297.477 49.8423 298.745 51.7431 298.745C53.6455 298.745 55.23 297.477 55.8641 295.895L73.6102 250.278C73.9264 249.646 73.9264 249.012 73.9264 248.378C73.928 246.163 72.0256 244.263 69.8086 244.263V244.263ZM144.914 244.263C143.013 244.263 141.425 245.216 140.794 246.797L132.872 267.389L132.239 269.607L131.607 267.389L125.267 247.431V247.115C124.634 245.531 123.048 244.263 121.149 244.263H111.006C108.788 244.579 107.203 246.163 107.203 248.699C107.203 249.331 107.203 249.965 107.519 250.596L108.788 255.032L104.032 267.384L103.08 269.604L102.448 267.384L96.4261 247.428L96.1098 247.112C95.7935 245.528 94.209 244.26 92.3082 244.26H82.1669C79.9483 244.576 78.0475 246.158 78.0475 248.696C78.0475 249.328 78.3653 249.962 78.6816 250.593L93.5765 295.58C94.209 297.477 95.7951 298.745 97.6975 298.745C99.5967 298.745 101.183 297.477 101.815 295.895L112.276 269.285L113.226 266.75L113.859 269.285L122.735 295.58C123.05 297.477 124.954 298.745 126.853 298.745C128.754 298.745 130.342 297.477 130.974 295.895L148.719 250.278C149.035 249.646 149.035 249.012 149.035 248.378C149.033 246.163 147.131 244.263 144.914 244.263V244.263ZM193.715 244.263H158.537C156.319 244.263 154.737 245.847 154.737 248.065V294.633C155.052 296.853 156.636 298.435 158.855 298.435H168.677C170.896 298.435 172.48 296.853 172.48 294.633V272.777H187.059C188.956 272.777 190.86 270.877 190.86 268.975C190.86 266.757 188.961 264.855 187.059 264.855H172.48V252.502H193.713C195.933 252.502 197.832 250.604 197.832 248.384C197.834 246.165 195.935 244.263 193.715 244.263V244.263ZM139.208 95.3718C145.548 102.342 146.179 123.884 162.34 115.33C171.846 110.262 171.846 88.7196 158.855 80.7996C148.394 74.7798 142.692 83.0175 138.889 93.1539C138.574 94.104 138.574 94.7379 139.208 95.3718ZM114.174 91.8876C107.203 97.2736 102.766 112.796 90.4074 107.41C80.2677 102.342 79.3173 82.6998 96.7455 73.5135C108.788 67.8115 114.809 78.8995 114.809 90.6198C114.808 90.936 114.492 91.5699 114.174 91.8876ZM130.653 130.852C137.307 130.22 135.723 123.884 130.653 122.616C126.216 121.032 119.561 120.082 114.492 120.398C105.935 120.398 106.253 127.05 110.687 128.318C114.174 129.268 116.389 129.584 119.242 133.386C121.778 138.456 120.512 131.802 130.653 130.852ZM162.026 20.6092C170.265 6.67093 184.842 9.20501 192.132 16.1749C200.056 23.7772 201.639 32.6473 198.471 38.6671C194.35 46.9033 183.578 56.725 176.606 47.221C173.44 42.7868 167.099 37.717 163.297 36.4492C157.905 33.9151 156.956 29.1615 162.026 20.6092V20.6092Z" fill="#272728"/>
<path d="M195.301 81.7497C194.668 79.2156 193.398 79.5318 193.398 81.4336C194.032 106.776 178.823 134.022 146.5 134.338C138.261 134.338 140.797 147.328 125.585 140.674C114.809 133.388 108.471 147.96 100.865 132.438C98.9641 128.002 96.4276 126.102 93.2585 125.152C61.2518 117.232 51.1105 73.1974 79.3157 37.717C84.7034 41.2028 86.9204 41.8351 92.9423 36.133C95.7951 33.2812 101.181 30.1132 104.032 29.1631C110.687 26.629 114.491 23.7772 108.468 10.789C105.695 4.67018 101.918 1.41117 97.8923 0.0171814H87.1281C84.0504 0.932829 81.1808 2.43955 78.68 4.45302C70.4411 11.1052 65.0534 21.5593 75.1914 33.9151C46.6748 53.2393 41.6049 76.9977 42.2375 97.9059C42.87 119.764 37.4839 117.864 44.4561 140.038C45.0887 141.94 43.5057 141.94 42.5553 141.308C12.7672 122.3 -3.3943 64.0095 43.1895 32.0134C44.1399 31.0633 43.8236 29.7954 40.0204 32.0134C-0.226851 53.2393 -4.02843 94.4217 2.62593 122.3C5.79498 135.604 1.04141 138.14 6.11285 155.88C18.1549 192.628 28.2946 195.793 42.8716 196.746C69.1744 196.746 51.1105 182.174 52.3788 164.116C52.3788 162.847 53.647 162.532 54.2795 164.749C68.8565 197.059 78.9978 226.523 117.025 223.671C138.889 220.821 126.847 210.049 125.262 203.711C109.102 150.176 148.394 137.504 137.304 189.773C130.017 219.869 153.149 216.7 169.627 205.929C186.424 195.161 207.343 121.982 195.301 81.7497V81.7497ZM131.286 145.424C127.482 154.93 108.786 151.762 108.152 142.258C108.152 141.942 108.786 141.942 108.786 142.258C117.341 144.158 125.262 145.108 130.65 145.108C130.969 145.108 131.286 144.792 131.286 145.424V145.424Z" fill="#272728"/>
</g>
<defs>
<clipPath id="clip0_592_1735">
<rect width="200" height="298.765" fill="white"/>
</clipPath>
</defs>
</svg>
