<svg width="1623" height="1042" viewBox="0 0 1623 1042" fill="none" xmlns="http://www.w3.org/2000/svg">
<g clip-path="url(#clip0_595_1859)">
<path d="M656.76 47.0562C705.762 19.5885 760.807 -0.29811 817.611 0.0315033C872.766 0.69073 925.394 21.3464 972.748 48.2648C912.319 32.4434 842.002 29.9163 792.23 74.0844C686.095 171.32 674.559 343.927 741.58 466.323C798.383 420.287 798.713 340.521 803.327 273.829C806.733 202.413 847.715 129.679 916.824 103.969C966.266 81.6655 1022.52 106.716 1057.13 143.742C1136.13 233.287 1140.41 382.931 1058.12 471.817C1020.87 512.359 960.333 522.467 909.902 502.141C890.565 524.335 870.898 546.089 851.011 567.844C891.993 580.369 934.733 579.05 976.154 570.261C913.638 606.079 839.255 629.151 767.07 613.769C725.429 606.738 687.084 588.279 651.266 566.415C696.863 578.611 746.964 588.389 792.011 568.503C857.274 541.584 896.937 476.431 916.824 411.388C939.897 325.469 940.446 223.948 882.324 151.214C834.421 202.963 829.916 274.818 825.082 341.51C822.665 402.268 793.329 462.697 745.316 500.383C700.049 534.333 633.797 524.664 592.705 488.517C487.559 402.158 484.922 221.531 586.333 131.657C622.92 97.377 678.294 91.444 722.353 114.627C739.273 91.9933 758.83 71.3376 775.75 48.7042C736.965 35.1901 696.313 42.6613 656.76 47.0562V47.0562Z" fill="#2B1871"/>
<path d="M155.621 739.383V795.776H158.379C167.165 795.776 173.533 793.018 177.483 787.501C181.433 781.984 183.953 773.845 185.043 763.084H188.925V835.619H185.043C184.226 827.718 182.489 821.248 179.833 816.208C177.245 811.168 174.214 807.797 170.74 806.094C167.267 804.323 162.227 803.438 155.621 803.438V842.463C155.621 850.091 155.927 854.757 156.54 856.459C157.221 858.162 158.447 859.558 160.218 860.648C161.989 861.738 164.849 862.283 168.799 862.283H177.074C190.015 862.283 200.367 859.286 208.131 853.292C215.964 847.299 221.583 838.173 224.988 825.913H228.768L222.536 869.945H102.803V866.165H107.401C111.419 866.165 114.654 865.45 117.106 864.019C118.877 863.066 120.239 861.431 121.192 859.116C121.942 857.481 122.316 853.19 122.316 846.243V755.116C122.316 748.85 122.146 745.002 121.805 743.572C121.124 741.188 119.864 739.349 118.025 738.055C115.437 736.148 111.896 735.195 107.401 735.195H102.803V731.415H218.756V772.381H214.874C212.899 762.369 210.106 755.184 206.497 750.825C202.955 746.466 197.915 743.265 191.377 741.222C187.563 739.996 180.412 739.383 169.923 739.383H155.621V739.383Z" fill="#2B1871"/>
<path d="M337.671 774.424V849.206C337.671 856.494 338.352 861.057 339.715 862.896C341.077 864.666 343.835 865.79 347.99 866.267V869.945H309.066V857.175C304.503 862.623 299.94 866.607 295.377 869.127C290.814 871.579 285.706 872.805 280.053 872.805C274.672 872.805 269.871 871.171 265.648 867.901C261.493 864.564 258.701 860.682 257.271 856.255C255.84 851.828 255.125 844.098 255.125 833.065V795.163C255.125 787.944 254.444 783.449 253.082 781.678C251.788 779.907 249.03 778.749 244.807 778.204V774.424H283.73V839.705C283.73 846.516 284.037 850.909 284.65 852.884C285.331 854.859 286.353 856.357 287.715 857.379C289.145 858.4 290.78 858.911 292.618 858.911C295.07 858.911 297.284 858.264 299.259 856.97C301.983 855.199 305.252 851.624 309.066 846.243V795.163C309.066 787.944 308.385 783.449 307.023 781.678C305.729 779.907 302.971 778.749 298.748 778.204V774.424H337.671Z" fill="#2B1871"/>
<path d="M401.522 774.424V796.083C407.856 786.207 413.406 779.669 418.174 776.468C422.941 773.198 427.539 771.564 431.966 771.564C435.78 771.564 438.811 772.756 441.058 775.14C443.374 777.455 444.532 780.758 444.532 785.049C444.532 789.612 443.408 793.154 441.16 795.674C438.981 798.194 436.325 799.454 433.192 799.454C429.582 799.454 426.449 798.296 423.793 795.98C421.137 793.665 419.57 792.371 419.093 792.098C418.412 791.69 417.629 791.485 416.744 791.485C414.769 791.485 412.896 792.234 411.125 793.733C408.332 796.048 406.221 799.352 404.791 803.642C402.611 810.249 401.522 817.536 401.522 825.505V847.469L401.624 853.19C401.624 857.073 401.862 859.559 402.339 860.648C403.156 862.487 404.348 863.849 405.915 864.735C407.549 865.552 410.274 866.063 414.088 866.267V869.945H362.496V866.267C366.651 865.927 369.443 864.803 370.873 862.896C372.372 860.921 373.121 855.779 373.121 847.469V794.652C373.121 789.204 372.849 785.73 372.304 784.232C371.623 782.325 370.635 780.929 369.341 780.043C368.047 779.158 365.765 778.545 362.496 778.204V774.424H401.522H401.522Z" fill="#2B1871"/>
<path d="M496.225 771.564C504.534 771.564 512.264 773.709 519.416 778C526.567 782.291 531.981 788.386 535.659 796.287C539.405 804.187 541.278 812.837 541.278 822.236C541.278 835.789 537.839 847.129 530.96 856.255C522.651 867.289 511.175 872.805 496.531 872.805C482.161 872.805 471.093 867.765 463.329 857.686C455.565 847.606 451.683 835.925 451.683 822.644C451.683 808.955 455.633 797.036 463.534 786.888C471.502 776.672 482.399 771.564 496.225 771.564V771.564ZM496.634 778.817C493.16 778.817 490.163 780.145 487.644 782.802C485.192 785.39 483.557 790.566 482.74 798.33C481.991 806.026 481.616 816.753 481.616 830.511C481.616 837.798 482.093 844.609 483.046 850.943C483.795 855.779 485.396 859.456 487.848 861.976C490.3 864.496 493.092 865.756 496.225 865.756C499.29 865.756 501.844 864.905 503.887 863.202C506.543 860.887 508.314 857.651 509.199 853.497C510.562 847.027 511.243 833.95 511.243 814.267C511.243 802.689 510.596 794.754 509.302 790.464C508.008 786.105 506.101 782.938 503.581 780.963C501.81 779.532 499.494 778.817 496.634 778.817V778.817Z" fill="#2B1871"/>
<path d="M592.971 860.24V895.792C592.971 900.695 593.346 904.032 594.095 905.803C594.912 907.574 596.138 908.868 597.773 909.685C599.407 910.503 602.609 910.911 607.376 910.911V914.691H552.924V910.911C557.147 910.775 560.28 909.583 562.323 907.336C563.685 905.769 564.366 901.717 564.366 895.179V794.346C564.366 787.603 563.583 783.312 562.017 781.474C560.45 779.567 557.419 778.477 552.924 778.204V774.424H592.971V786.99C596.309 782.086 599.714 778.545 603.187 776.365C608.159 773.164 613.574 771.564 619.431 771.564C626.446 771.564 632.814 773.777 638.535 778.204C644.324 782.631 648.717 788.761 651.714 796.593C654.711 804.358 656.209 812.735 656.209 821.725C656.209 831.396 654.642 840.25 651.51 848.287C648.445 856.255 643.95 862.351 638.024 866.573C632.167 870.728 625.629 872.805 618.409 872.805C613.165 872.805 608.261 871.648 603.698 869.332C600.293 867.561 596.717 864.53 592.971 860.24V860.24ZM592.971 849.921C598.829 858.23 605.094 862.385 611.769 862.385C615.447 862.385 618.478 860.444 620.861 856.562C624.403 850.841 626.174 839.944 626.174 823.87C626.174 807.388 624.233 796.117 620.35 790.055C617.762 786.037 614.289 784.028 609.93 784.028C603.051 784.028 597.398 788.999 592.971 798.943V849.921V849.921Z" fill="#2B1871"/>
<path d="M753.364 818.762H700.955C701.568 831.43 704.94 841.442 711.069 848.798C715.769 854.45 721.422 857.277 728.028 857.277C732.114 857.277 735.826 856.153 739.164 853.906C742.501 851.59 746.076 847.469 749.89 841.544L753.364 843.792C748.188 854.348 742.467 861.84 736.201 866.267C729.935 870.626 722.682 872.805 714.441 872.805C700.274 872.805 689.547 867.357 682.26 856.46C676.403 847.674 673.474 836.777 673.474 823.768C673.474 807.831 677.765 795.163 686.346 785.764C694.996 776.297 705.11 771.564 716.688 771.564C726.359 771.564 734.737 775.548 741.82 783.517C748.971 791.417 752.819 803.166 753.364 818.762V818.762ZM728.232 811.917C728.232 800.952 727.619 793.426 726.393 789.34C725.236 785.253 723.397 782.155 720.877 780.043C719.447 778.817 717.54 778.204 715.156 778.204C711.614 778.204 708.72 779.941 706.472 783.415C702.454 789.476 700.445 797.785 700.445 808.342V811.917H728.232V811.917Z" fill="#2B1871"/>
<path d="M817.93 855.847C806.283 866.131 795.829 871.273 786.566 871.273C781.118 871.273 776.589 869.502 772.979 865.961C769.369 862.351 767.564 857.856 767.564 852.475C767.564 845.188 770.697 838.65 776.963 832.86C783.229 827.003 796.885 819.239 817.93 809.568V799.965C817.93 792.745 817.521 788.216 816.704 786.377C815.955 784.47 814.49 782.836 812.311 781.474C810.131 780.043 807.68 779.328 804.955 779.328C800.528 779.328 796.885 780.316 794.024 782.291C792.253 783.517 791.368 784.947 791.368 786.582C791.368 788.012 792.321 789.783 794.228 791.894C796.816 794.823 798.111 797.649 798.111 800.373C798.111 803.711 796.851 806.571 794.331 808.955C791.879 811.27 788.644 812.428 784.625 812.428C780.335 812.428 776.725 811.134 773.796 808.546C770.936 805.958 769.505 802.927 769.505 799.454C769.505 794.55 771.447 789.885 775.329 785.458C779.211 780.963 784.625 777.523 791.572 775.14C798.519 772.756 805.739 771.564 813.23 771.564C822.289 771.564 829.44 773.505 834.684 777.387C839.996 781.201 843.436 785.356 845.002 789.851C845.956 792.711 846.433 799.284 846.433 809.568V846.652C846.433 851.011 846.603 853.769 846.943 854.927C847.284 856.017 847.795 856.834 848.476 857.379C849.157 857.924 849.94 858.196 850.826 858.196C852.596 858.196 854.401 856.936 856.24 854.416L859.305 856.868C855.9 861.908 852.358 865.586 848.68 867.902C845.07 870.149 840.95 871.273 836.319 871.273C830.87 871.273 826.613 870.013 823.549 867.493C820.484 864.905 818.611 861.023 817.93 855.847ZM817.93 848.389V816.413C809.689 821.248 803.559 826.424 799.541 831.941C796.885 835.619 795.557 839.331 795.557 843.077C795.557 846.209 796.68 848.968 798.928 851.352C800.631 853.19 803.014 854.11 806.079 854.11C809.484 854.11 813.435 852.203 817.93 848.389V848.389Z" fill="#2B1871"/>
<path d="M908.853 774.424V786.786C913.756 781.474 918.456 777.625 922.951 775.242C927.446 772.79 932.282 771.564 937.458 771.564C943.656 771.564 948.798 773.301 952.884 776.774C956.971 780.179 959.695 784.436 961.057 789.544C962.147 793.426 962.691 800.884 962.691 811.917V849.104C962.691 856.46 963.339 861.057 964.633 862.896C965.995 864.667 968.787 865.79 973.01 866.267V869.945H924.688V866.267C928.297 865.79 930.885 864.292 932.452 861.772C933.542 860.069 934.086 855.847 934.086 849.104V806.605C934.086 798.773 933.78 793.835 933.167 791.792C932.554 789.749 931.498 788.182 930 787.092C928.57 785.935 926.969 785.356 925.198 785.356C919.341 785.356 913.893 789.544 908.853 797.921V849.104C908.853 856.255 909.5 860.784 910.794 862.691C912.156 864.598 914.642 865.79 918.252 866.267V869.945H869.929V866.267C873.948 865.858 876.808 864.564 878.511 862.385C879.669 860.887 880.248 856.46 880.248 849.104V795.163C880.248 787.944 879.567 783.449 878.204 781.678C876.91 779.907 874.152 778.749 869.929 778.204V774.424H908.853V774.424Z" fill="#2B1871"/>
<path d="M1124.62 796.491C1137.76 799.556 1146.99 803.268 1152.3 807.627C1159.93 813.824 1163.74 821.861 1163.74 831.736C1163.74 842.157 1159.56 850.772 1151.18 857.583C1140.89 865.824 1125.94 869.945 1106.33 869.945H1035.94V866.165C1042.34 866.165 1046.67 865.586 1048.92 864.428C1051.23 863.202 1052.83 861.636 1053.72 859.729C1054.67 857.822 1055.15 853.122 1055.15 845.63V755.729C1055.15 748.237 1054.67 743.538 1053.72 741.631C1052.83 739.656 1051.23 738.089 1048.92 736.931C1046.6 735.773 1042.27 735.195 1035.94 735.195V731.415H1102.35C1118.21 731.415 1129.45 732.845 1136.06 735.705C1142.66 738.498 1147.88 742.72 1151.69 748.373C1155.5 753.958 1157.41 759.917 1157.41 766.251C1157.41 772.926 1154.99 778.885 1150.16 784.13C1145.32 789.306 1136.81 793.426 1124.62 796.491V796.491ZM1087.43 793.733C1097.1 793.733 1104.22 792.643 1108.78 790.464C1113.41 788.284 1116.95 785.219 1119.41 781.269C1121.86 777.319 1123.08 772.279 1123.08 766.149C1123.08 760.02 1121.86 755.014 1119.41 751.132C1117.02 747.181 1113.58 744.185 1109.09 742.141C1104.59 740.098 1097.37 739.111 1087.43 739.179V793.733V793.733ZM1087.43 801.701V846.141L1087.33 851.249C1087.33 854.927 1088.25 857.719 1090.09 859.626C1091.99 861.465 1094.79 862.385 1098.46 862.385C1103.91 862.385 1108.92 861.193 1113.48 858.809C1118.11 856.357 1121.65 852.85 1124.11 848.287C1126.56 843.655 1127.78 838.513 1127.78 832.86C1127.78 826.39 1126.29 820.601 1123.29 815.493C1120.29 810.317 1116.17 806.707 1110.93 804.664C1105.68 802.621 1097.85 801.633 1087.43 801.701H1087.43Z" fill="#2B1871"/>
<path d="M1231.07 855.847C1219.42 866.131 1208.97 871.273 1199.7 871.273C1194.26 871.273 1189.73 869.502 1186.12 865.961C1182.51 862.351 1180.7 857.856 1180.7 852.475C1180.7 845.188 1183.84 838.65 1190.1 832.86C1196.37 827.003 1210.02 819.239 1231.07 809.568V799.965C1231.07 792.745 1230.66 788.216 1229.84 786.377C1229.09 784.47 1227.63 782.836 1225.45 781.474C1223.27 780.043 1220.82 779.328 1218.09 779.328C1213.67 779.328 1210.02 780.316 1207.16 782.291C1205.39 783.517 1204.51 784.947 1204.51 786.582C1204.51 788.012 1205.46 789.783 1207.37 791.894C1209.95 794.823 1211.25 797.649 1211.25 800.373C1211.25 803.711 1209.99 806.571 1207.47 808.955C1205.02 811.27 1201.78 812.428 1197.76 812.428C1193.47 812.428 1189.86 811.134 1186.93 808.546C1184.07 805.958 1182.64 802.927 1182.64 799.454C1182.64 794.55 1184.58 789.885 1188.47 785.458C1192.35 780.963 1197.76 777.523 1204.71 775.14C1211.66 772.756 1218.88 771.564 1226.37 771.564C1235.43 771.564 1242.58 773.505 1247.82 777.387C1253.13 781.201 1256.57 785.356 1258.14 789.851C1259.09 792.711 1259.57 799.284 1259.57 809.568V846.652C1259.57 851.011 1259.74 853.769 1260.08 854.927C1260.42 856.017 1260.93 856.834 1261.61 857.379C1262.3 857.924 1263.08 858.196 1263.96 858.196C1265.73 858.196 1267.54 856.936 1269.38 854.416L1272.44 856.868C1269.04 861.908 1265.5 865.586 1261.82 867.902C1258.21 870.149 1254.09 871.273 1249.46 871.273C1244.01 871.273 1239.75 870.013 1236.69 867.493C1233.62 864.905 1231.75 861.023 1231.07 855.847ZM1231.07 848.389V816.413C1222.83 821.248 1216.7 826.424 1212.68 831.941C1210.02 835.619 1208.69 839.331 1208.69 843.077C1208.69 846.209 1209.82 848.968 1212.07 851.352C1213.77 853.19 1216.15 854.11 1219.22 854.11C1222.62 854.11 1226.57 852.203 1231.07 848.389V848.389Z" fill="#2B1871"/>
<path d="M1321.99 774.424V786.786C1326.9 781.474 1331.59 777.625 1336.09 775.242C1340.58 772.79 1345.42 771.564 1350.6 771.564C1356.79 771.564 1361.94 773.301 1366.02 776.774C1370.11 780.179 1372.83 784.436 1374.2 789.544C1375.29 793.426 1375.83 800.884 1375.83 811.917V849.104C1375.83 856.46 1376.48 861.057 1377.77 862.896C1379.13 864.667 1381.93 865.79 1386.15 866.267V869.945H1337.83V866.267C1341.44 865.79 1344.02 864.292 1345.59 861.772C1346.68 860.069 1347.23 855.847 1347.23 849.104V806.605C1347.23 798.773 1346.92 793.835 1346.31 791.792C1345.69 789.749 1344.64 788.182 1343.14 787.092C1341.71 785.935 1340.11 785.356 1338.34 785.356C1332.48 785.356 1327.03 789.544 1321.99 797.921V849.104C1321.99 856.255 1322.64 860.784 1323.93 862.691C1325.29 864.598 1327.78 865.79 1331.39 866.267V869.945H1283.07V866.267C1287.09 865.858 1289.95 864.564 1291.65 862.385C1292.81 860.887 1293.39 856.46 1293.39 849.104V795.163C1293.39 787.944 1292.71 783.449 1291.34 781.678C1290.05 779.907 1287.29 778.749 1283.07 778.204V774.424H1321.99V774.424Z" fill="#2B1871"/>
<path d="M1438.25 731.415V822.542L1460.42 800.782C1464.98 796.355 1467.81 793.154 1468.9 791.179C1470.06 789.204 1470.64 787.297 1470.64 785.458C1470.64 783.619 1469.89 782.086 1468.39 780.86C1466.89 779.634 1463.96 778.749 1459.6 778.204V774.424H1502.41V778.204C1498.32 778.409 1494.75 779.396 1491.68 781.167C1488.62 782.87 1482.62 788.08 1473.7 796.797L1463.28 807.014L1485.76 839.909C1494.81 853.258 1500.19 860.75 1501.9 862.385C1504.21 864.7 1507.14 865.994 1510.68 866.267V869.945H1461.34V866.267C1463.52 866.267 1465.08 865.858 1466.04 865.041C1467.06 864.224 1467.57 863.338 1467.57 862.385C1467.57 860.818 1466.14 857.924 1463.28 853.701L1444.38 826.015L1438.25 832.043V849.206C1438.25 856.493 1438.93 861.057 1440.29 862.896C1441.66 864.666 1444.45 865.79 1448.67 866.267V869.945H1399.33V866.267C1403.35 865.858 1406.21 864.564 1407.91 862.385C1409.07 860.886 1409.65 856.493 1409.65 849.206V752.153C1409.65 744.934 1408.96 740.439 1407.6 738.668C1406.31 736.897 1403.55 735.739 1399.33 735.195V731.415H1438.25V731.415Z" fill="#2B1871"/>
<path d="M18.6378 973.053V1005.35C18.6378 1009.93 19.1385 1012.82 20.1399 1014.04C21.4632 1015.61 23.2336 1016.4 25.4511 1016.4H29.9038V1018.33H0.558462V1016.4H2.75802C4.18863 1016.4 5.49406 1016.04 6.67432 1015.33C7.85457 1014.61 8.65928 1013.65 9.08847 1012.43C9.55341 1011.21 9.78589 1008.85 9.78589 1005.35V973.053H0.236572V969.19H9.78589V965.972C9.78589 961.072 10.5727 956.923 12.1464 953.525C13.7201 950.128 16.1163 947.391 19.3352 945.317C22.5898 943.207 26.2379 942.152 30.2794 942.152C34.0347 942.152 37.486 943.368 40.6334 945.8C42.7078 947.409 43.745 949.216 43.745 951.218C43.745 952.291 43.28 953.311 42.3501 954.276C41.4202 955.206 40.4188 955.671 39.3458 955.671C38.5232 955.671 37.647 955.385 36.7171 954.813C35.823 954.205 34.7142 952.935 33.3909 951.004C32.0676 949.037 30.8516 947.713 29.7429 947.034C28.6342 946.354 27.4003 946.015 26.0412 946.015C24.396 946.015 23.0011 946.462 21.8566 947.356C20.7122 948.214 19.8896 949.573 19.3888 951.433C18.8881 953.257 18.6378 957.996 18.6378 965.65V969.19H31.2987V973.053H18.6378V973.053Z" fill="#43347F"/>
<path d="M60.1613 967.742C67.6004 967.742 73.5732 970.567 78.0796 976.218C81.9065 981.046 83.8199 986.59 83.8199 992.849C83.8199 997.248 82.7649 1001.7 80.6547 1006.21C78.5446 1010.71 75.6297 1014.11 71.9101 1016.4C68.2263 1018.69 64.1133 1019.83 59.5711 1019.83C52.1677 1019.83 46.2843 1016.88 41.921 1010.98C38.2372 1006.01 36.3953 1000.43 36.3953 994.244C36.3953 989.737 37.504 985.267 39.7214 980.832C41.9746 976.361 44.9253 973.071 48.5733 970.961C52.2214 968.815 56.084 967.742 60.1613 967.742V967.742ZM58.4982 971.229C56.6026 971.229 54.6892 971.801 52.7578 972.946C50.8623 974.054 49.3244 976.021 48.1441 978.847C46.9639 981.672 46.3738 985.302 46.3738 989.737C46.3738 996.89 47.7865 1003.06 50.6119 1008.25C53.4732 1013.43 57.2285 1016.02 61.878 1016.02C65.3472 1016.02 68.2084 1014.59 70.4616 1011.73C72.7148 1008.87 73.8414 1003.95 73.8414 996.98C73.8414 988.253 71.9638 981.386 68.2084 976.379C65.6691 972.946 62.4323 971.229 58.4982 971.229Z" fill="#43347F"/>
<path d="M105.44 967.742V978.793C109.553 971.426 113.773 967.742 118.101 967.742C120.068 967.742 121.695 968.35 122.983 969.566C124.27 970.746 124.914 972.123 124.914 973.697C124.914 975.091 124.449 976.272 123.519 977.237C122.589 978.203 121.481 978.686 120.193 978.686C118.941 978.686 117.528 978.078 115.955 976.862C114.417 975.61 113.272 974.984 112.521 974.984C111.878 974.984 111.18 975.342 110.429 976.057C108.82 977.523 107.157 979.938 105.44 983.3V1006.85C105.44 1009.57 105.78 1011.63 106.459 1013.02C106.924 1013.99 107.747 1014.79 108.927 1015.43C110.107 1016.08 111.806 1016.4 114.023 1016.4V1018.33H88.8626V1016.4C91.3662 1016.4 93.226 1016.01 94.442 1015.22C95.3362 1014.65 95.962 1013.74 96.3197 1012.48C96.4985 1011.88 96.5879 1010.14 96.5879 1007.28V988.235C96.5879 982.513 96.4628 979.115 96.2124 978.042C95.9978 976.933 95.5686 976.129 94.9249 975.628C94.3168 975.127 93.5479 974.877 92.618 974.877C91.5093 974.877 90.2575 975.145 88.8626 975.682L88.3262 973.75L103.187 967.742H105.44V967.742Z" fill="#43347F"/>
<path d="M226.04 1018.33H206.62L181.995 984.319C180.171 984.39 178.687 984.426 177.543 984.426C177.078 984.426 176.577 984.426 176.041 984.426C175.504 984.39 174.95 984.355 174.377 984.319V1005.46C174.377 1010.03 174.878 1012.88 175.88 1013.99C177.239 1015.56 179.277 1016.35 181.995 1016.35H184.839V1018.33H153.669V1016.35H156.405C159.481 1016.35 161.681 1015.35 163.004 1013.34C163.755 1012.23 164.131 1009.6 164.131 1005.46V958.461C164.131 953.883 163.63 951.039 162.629 949.931C161.234 948.357 159.159 947.57 156.405 947.57H153.669V945.585H180.171C187.897 945.585 193.583 946.157 197.231 947.302C200.915 948.411 204.027 950.485 206.566 953.525C209.141 956.529 210.429 960.124 210.429 964.308C210.429 968.779 208.962 972.659 206.03 975.95C203.133 979.24 198.626 981.565 192.51 982.924L207.532 1003.79C210.965 1008.59 213.916 1011.77 216.384 1013.34C218.852 1014.92 222.07 1015.92 226.04 1016.35V1018.33V1018.33ZM174.377 980.939C175.057 980.939 175.647 980.957 176.148 980.993C176.649 980.993 177.06 980.993 177.382 980.993C184.32 980.993 189.542 979.491 193.047 976.486C196.588 973.482 198.358 969.655 198.358 965.006C198.358 960.464 196.927 956.78 194.066 953.954C191.241 951.093 187.485 949.662 182.8 949.662C180.726 949.662 177.918 950.002 174.377 950.682V980.939V980.939Z" fill="#43347F"/>
<path d="M236.877 987.699C236.841 994.995 238.612 1000.72 242.188 1004.87C245.765 1009.01 249.967 1011.09 254.795 1011.09C258.014 1011.09 260.804 1010.21 263.164 1008.46C265.561 1006.67 267.564 1003.63 269.173 999.34L270.836 1000.41C270.085 1005.31 267.903 1009.78 264.291 1013.83C260.679 1017.83 256.154 1019.83 250.718 1019.83C244.817 1019.83 239.756 1017.54 235.536 1012.97C231.351 1008.35 229.259 1002.17 229.259 994.405C229.259 986 231.405 979.455 235.697 974.77C240.024 970.048 245.443 967.688 251.952 967.688C257.46 967.688 261.984 969.512 265.525 973.16C269.066 976.772 270.836 981.619 270.836 987.699H236.877V987.699ZM236.877 984.587H259.624C259.445 981.44 259.069 979.222 258.497 977.935C257.603 975.932 256.262 974.358 254.474 973.214C252.721 972.069 250.879 971.497 248.948 971.497C245.979 971.497 243.315 972.659 240.954 974.984C238.63 977.273 237.27 980.474 236.877 984.587V984.587Z" fill="#43347F"/>
<path d="M319.066 999.662C317.742 1006.14 315.149 1011.12 311.287 1014.63C307.424 1018.1 303.15 1019.83 298.465 1019.83C292.885 1019.83 288.021 1017.49 283.873 1012.81C279.724 1008.12 277.649 1001.79 277.649 993.815C277.649 986.089 279.938 979.812 284.516 974.984C289.13 970.156 294.656 967.742 301.093 967.742C305.922 967.742 309.892 969.029 313.003 971.604C316.115 974.144 317.671 976.79 317.671 979.544C317.671 980.903 317.224 982.012 316.329 982.87C315.471 983.693 314.255 984.104 312.681 984.104C310.571 984.104 308.98 983.425 307.907 982.066C307.299 981.315 306.887 979.884 306.673 977.774C306.494 975.664 305.779 974.054 304.527 972.946C303.275 971.873 301.541 971.336 299.323 971.336C295.747 971.336 292.868 972.659 290.686 975.306C287.789 978.811 286.34 983.443 286.34 989.201C286.34 995.066 287.771 1000.25 290.632 1004.76C293.529 1009.23 297.428 1011.46 302.327 1011.46C305.832 1011.46 308.98 1010.27 311.769 1007.87C313.737 1006.23 315.65 1003.24 317.51 998.911L319.066 999.662V999.662Z" fill="#43347F"/>
<path d="M350.074 967.742C357.513 967.742 363.486 970.567 367.992 976.218C371.819 981.046 373.733 986.59 373.733 992.849C373.733 997.248 372.678 1001.7 370.568 1006.21C368.457 1010.71 365.543 1014.11 361.823 1016.4C358.139 1018.69 354.026 1019.83 349.484 1019.83C342.081 1019.83 336.197 1016.88 331.834 1010.98C328.15 1006.01 326.308 1000.43 326.308 994.244C326.308 989.737 327.417 985.267 329.634 980.832C331.887 976.361 334.838 973.071 338.486 970.961C342.134 968.815 345.997 967.742 350.074 967.742V967.742ZM348.411 971.229C346.515 971.229 344.602 971.801 342.671 972.946C340.775 974.054 339.237 976.021 338.057 978.847C336.877 981.672 336.287 985.302 336.287 989.737C336.287 996.89 337.699 1003.06 340.525 1008.25C343.386 1013.43 347.141 1016.02 351.791 1016.02C355.26 1016.02 358.121 1014.59 360.374 1011.73C362.628 1008.87 363.754 1003.95 363.754 996.98C363.754 988.253 361.877 981.386 358.121 976.379C355.582 972.946 352.345 971.229 348.411 971.229Z" fill="#43347F"/>
<path d="M395.299 978.149C401.057 971.211 406.547 967.742 411.769 967.742C414.451 967.742 416.758 968.421 418.69 969.78C420.621 971.104 422.159 973.303 423.303 976.379C424.09 978.525 424.484 981.815 424.484 986.25V1007.23C424.484 1010.34 424.734 1012.45 425.235 1013.56C425.628 1014.45 426.254 1015.15 427.112 1015.65C428.007 1016.15 429.634 1016.4 431.994 1016.4V1018.33H407.692V1016.4H408.711C411 1016.4 412.592 1016.06 413.486 1015.38C414.416 1014.67 415.059 1013.63 415.417 1012.27C415.56 1011.73 415.632 1010.05 415.632 1007.23V987.109C415.632 982.638 415.042 979.401 413.861 977.398C412.717 975.36 410.768 974.34 408.014 974.34C403.758 974.34 399.52 976.665 395.299 981.315V1007.23C395.299 1010.55 395.496 1012.61 395.889 1013.4C396.39 1014.43 397.07 1015.2 397.928 1015.7C398.822 1016.17 400.61 1016.4 403.293 1016.4V1018.33H378.99V1016.4H380.063C382.567 1016.4 384.248 1015.77 385.106 1014.52C386 1013.24 386.447 1010.8 386.447 1007.23V988.986C386.447 983.085 386.304 979.491 386.018 978.203C385.768 976.915 385.356 976.039 384.784 975.574C384.248 975.109 383.515 974.877 382.585 974.877C381.583 974.877 380.385 975.145 378.99 975.682L378.186 973.75L392.992 967.742H395.299V978.149V978.149Z" fill="#43347F"/>
<path d="M467.67 967.742V984.48H465.9C464.541 979.222 462.788 975.646 460.642 973.75C458.532 971.855 455.832 970.907 452.541 970.907C450.038 970.907 448.017 971.569 446.479 972.892C444.941 974.215 444.172 975.682 444.172 977.291C444.172 979.294 444.745 981.011 445.889 982.441C446.998 983.908 449.251 985.463 452.649 987.109L460.481 990.918C467.742 994.458 471.372 999.126 471.372 1004.92C471.372 1009.39 469.673 1013 466.275 1015.76C462.913 1018.47 459.14 1019.83 454.955 1019.83C451.951 1019.83 448.518 1019.3 444.655 1018.22C443.475 1017.87 442.509 1017.69 441.758 1017.69C440.936 1017.69 440.292 1018.15 439.827 1019.08H438.056V1001.54H439.827C440.828 1006.55 442.742 1010.32 445.567 1012.86C448.393 1015.4 451.558 1016.67 455.063 1016.67C457.531 1016.67 459.533 1015.95 461.071 1014.52C462.645 1013.06 463.432 1011.3 463.432 1009.27C463.432 1006.8 462.556 1004.72 460.803 1003.04C459.086 1001.36 455.635 999.233 450.449 996.658C445.263 994.083 441.865 991.758 440.256 989.684C438.647 987.645 437.842 985.07 437.842 981.958C437.842 977.917 439.219 974.537 441.973 971.819C444.762 969.101 448.357 967.742 452.756 967.742C454.687 967.742 457.03 968.153 459.784 968.976C461.608 969.512 462.824 969.78 463.432 969.78C464.004 969.78 464.451 969.655 464.773 969.405C465.095 969.154 465.47 968.6 465.9 967.742H467.67V967.742Z" fill="#43347F"/>
<path d="M492.884 953.042V969.19H504.365V972.946H492.884V1004.81C492.884 1008 493.332 1010.14 494.226 1011.25C495.156 1012.36 496.336 1012.91 497.766 1012.91C498.947 1012.91 500.091 1012.56 501.2 1011.84C502.309 1011.09 503.167 1010 503.775 1008.57H505.867C504.615 1012.07 502.845 1014.72 500.556 1016.51C498.267 1018.26 495.907 1019.14 493.475 1019.14C491.829 1019.14 490.22 1018.69 488.646 1017.8C487.073 1016.87 485.91 1015.56 485.159 1013.88C484.408 1012.16 484.033 1009.53 484.033 1005.99V972.946H476.254V971.175C478.221 970.388 480.224 969.065 482.262 967.205C484.337 965.31 486.179 963.074 487.788 960.499C488.611 959.14 489.755 956.655 491.221 953.042H492.884V953.042Z" fill="#43347F"/>
<path d="M523.464 967.742V978.793C527.577 971.426 531.797 967.742 536.125 967.742C538.092 967.742 539.719 968.35 541.007 969.566C542.294 970.746 542.938 972.123 542.938 973.697C542.938 975.091 542.473 976.272 541.543 977.237C540.613 978.203 539.504 978.686 538.217 978.686C536.965 978.686 535.552 978.078 533.979 976.862C532.441 975.61 531.296 974.984 530.545 974.984C529.901 974.984 529.204 975.342 528.453 976.057C526.844 977.523 525.181 979.938 523.464 983.3V1006.85C523.464 1009.57 523.804 1011.63 524.483 1013.02C524.948 1013.99 525.771 1014.79 526.951 1015.43C528.131 1016.08 529.83 1016.4 532.047 1016.4V1018.33H506.887V1016.4C509.39 1016.4 511.25 1016.01 512.466 1015.22C513.36 1014.65 513.986 1013.74 514.344 1012.48C514.522 1011.88 514.612 1010.14 514.612 1007.28V988.235C514.612 982.513 514.487 979.115 514.236 978.042C514.022 976.933 513.593 976.129 512.949 975.628C512.341 975.127 511.572 974.877 510.642 974.877C509.533 974.877 508.281 975.145 506.887 975.682L506.35 973.75L521.211 967.742H523.464V967.742Z" fill="#43347F"/>
<path d="M588.86 969.19V998.965C588.86 1004.65 588.986 1008.14 589.236 1009.43C589.522 1010.68 589.951 1011.55 590.524 1012.05C591.132 1012.56 591.829 1012.81 592.616 1012.81C593.725 1012.81 594.976 1012.5 596.371 1011.89L597.122 1013.77L582.423 1019.83H580.009V1009.43C575.788 1014 572.569 1016.88 570.352 1018.06C568.135 1019.24 565.792 1019.83 563.324 1019.83C560.57 1019.83 558.174 1019.05 556.135 1017.47C554.132 1015.86 552.738 1013.81 551.951 1011.3C551.164 1008.8 550.77 1005.26 550.77 1000.68V978.739C550.77 976.415 550.52 974.805 550.019 973.911C549.519 973.017 548.768 972.338 547.766 971.873C546.801 971.372 545.03 971.139 542.455 971.175V969.19H559.676V1002.08C559.676 1006.65 560.463 1009.66 562.037 1011.09C563.646 1012.52 565.577 1013.24 567.831 1013.24C569.368 1013.24 571.103 1012.75 573.034 1011.79C575.001 1010.82 577.326 1008.98 580.009 1006.26V978.418C580.009 975.628 579.49 973.75 578.453 972.785C577.451 971.783 575.341 971.247 572.122 971.175V969.19H588.86V969.19Z" fill="#43347F"/>
<path d="M642.455 999.662C641.131 1006.14 638.538 1011.12 634.676 1014.63C630.813 1018.1 626.539 1019.83 621.854 1019.83C616.275 1019.83 611.41 1017.49 607.262 1012.81C603.113 1008.12 601.039 1001.79 601.039 993.815C601.039 986.089 603.328 979.812 607.906 974.984C612.519 970.156 618.045 967.742 624.483 967.742C629.311 967.742 633.281 969.029 636.393 971.604C639.504 974.144 641.06 976.79 641.06 979.544C641.06 980.903 640.613 982.012 639.719 982.87C638.86 983.693 637.644 984.104 636.071 984.104C633.96 984.104 632.369 983.425 631.296 982.066C630.688 981.315 630.277 979.884 630.062 977.774C629.883 975.664 629.168 974.054 627.916 972.946C626.664 971.873 624.93 971.336 622.712 971.336C619.136 971.336 616.257 972.659 614.075 975.306C611.178 978.811 609.729 983.443 609.729 989.201C609.729 995.066 611.16 1000.25 614.021 1004.76C616.918 1009.23 620.817 1011.46 625.717 1011.46C629.222 1011.46 632.369 1010.27 635.159 1007.87C637.126 1006.23 639.039 1003.24 640.899 998.911L642.455 999.662V999.662Z" fill="#43347F"/>
<path d="M663.699 953.042V969.19H675.18V972.946H663.699V1004.81C663.699 1008 664.146 1010.14 665.04 1011.25C665.97 1012.36 667.151 1012.91 668.581 1012.91C669.761 1012.91 670.906 1012.56 672.015 1011.84C673.123 1011.09 673.982 1010 674.59 1008.57H676.682C675.43 1012.07 673.66 1014.72 671.371 1016.51C669.082 1018.26 666.721 1019.14 664.289 1019.14C662.644 1019.14 661.035 1018.69 659.461 1017.8C657.887 1016.87 656.725 1015.56 655.974 1013.88C655.223 1012.16 654.847 1009.53 654.847 1005.99V972.946H647.068V971.175C649.035 970.388 651.038 969.065 653.077 967.205C655.151 965.31 656.993 963.074 658.603 960.499C659.425 959.14 660.57 956.655 662.036 953.042H663.699V953.042Z" fill="#43347F"/>
<path d="M692.401 942.044C693.903 942.044 695.173 942.581 696.21 943.654C697.283 944.691 697.819 945.961 697.819 947.463C697.819 948.965 697.283 950.253 696.21 951.326C695.173 952.398 693.903 952.935 692.401 952.935C690.899 952.935 689.611 952.398 688.538 951.326C687.465 950.253 686.929 948.965 686.929 947.463C686.929 945.961 687.447 944.691 688.484 943.654C689.557 942.581 690.863 942.044 692.401 942.044ZM696.854 967.742V1007.23C696.854 1010.3 697.068 1012.36 697.497 1013.4C697.962 1014.4 698.624 1015.15 699.482 1015.65C700.376 1016.15 701.986 1016.4 704.311 1016.4V1018.33H680.437V1016.4C682.834 1016.4 684.443 1016.17 685.266 1015.7C686.088 1015.24 686.732 1014.47 687.197 1013.4C687.698 1012.32 687.948 1010.27 687.948 1007.23V988.289C687.948 982.96 687.787 979.509 687.465 977.935C687.215 976.79 686.821 976.004 686.285 975.574C685.748 975.109 685.015 974.877 684.085 974.877C683.084 974.877 681.868 975.145 680.437 975.682L679.686 973.75L694.493 967.742H696.854V967.742Z" fill="#43347F"/>
<path d="M734.407 967.742C741.846 967.742 747.819 970.567 752.325 976.218C756.152 981.046 758.066 986.59 758.066 992.849C758.066 997.248 757.011 1001.7 754.901 1006.21C752.79 1010.71 749.876 1014.11 746.156 1016.4C742.472 1018.69 738.359 1019.83 733.817 1019.83C726.414 1019.83 720.53 1016.88 716.167 1010.98C712.483 1006.01 710.641 1000.43 710.641 994.244C710.641 989.737 711.75 985.267 713.967 980.832C716.22 976.361 719.171 973.071 722.819 970.961C726.467 968.815 730.33 967.742 734.407 967.742V967.742ZM732.744 971.229C730.848 971.229 728.935 971.801 727.004 972.946C725.108 974.054 723.57 976.021 722.39 978.847C721.21 981.672 720.62 985.302 720.62 989.737C720.62 996.89 722.032 1003.06 724.858 1008.25C727.719 1013.43 731.474 1016.02 736.124 1016.02C739.593 1016.02 742.454 1014.59 744.707 1011.73C746.961 1008.87 748.087 1003.95 748.087 996.98C748.087 988.253 746.21 981.386 742.454 976.379C739.915 972.946 736.678 971.229 732.744 971.229V971.229Z" fill="#43347F"/>
<path d="M779.632 978.149C785.39 971.211 790.88 967.742 796.102 967.742C798.784 967.742 801.091 968.421 803.023 969.78C804.954 971.104 806.492 973.303 807.636 976.379C808.423 978.525 808.817 981.815 808.817 986.25V1007.23C808.817 1010.34 809.067 1012.45 809.568 1013.56C809.961 1014.45 810.587 1015.15 811.445 1015.65C812.339 1016.15 813.967 1016.4 816.327 1016.4V1018.33H792.025V1016.4H793.044C795.333 1016.4 796.925 1016.06 797.819 1015.38C798.749 1014.67 799.392 1013.63 799.75 1012.27C799.893 1011.73 799.965 1010.05 799.965 1007.23V987.109C799.965 982.638 799.375 979.401 798.194 977.398C797.05 975.36 795.101 974.34 792.347 974.34C788.091 974.34 783.852 976.665 779.632 981.315V1007.23C779.632 1010.55 779.829 1012.61 780.222 1013.4C780.723 1014.43 781.403 1015.2 782.261 1015.7C783.155 1016.17 784.943 1016.4 787.626 1016.4V1018.33H763.323V1016.4H764.396C766.9 1016.4 768.581 1015.77 769.439 1014.52C770.333 1013.24 770.78 1010.8 770.78 1007.23V988.986C770.78 983.085 770.637 979.491 770.351 978.203C770.101 976.915 769.689 976.039 769.117 975.574C768.581 975.109 767.848 974.877 766.918 974.877C765.916 974.877 764.718 975.145 763.323 975.682L762.519 973.75L777.325 967.742H779.632V978.149V978.149Z" fill="#43347F"/>
<path d="M875.554 1011.25C870.512 1015.15 867.346 1017.4 866.059 1018.01C864.127 1018.9 862.071 1019.35 859.889 1019.35C856.492 1019.35 853.684 1018.19 851.467 1015.86C849.285 1013.54 848.194 1010.48 848.194 1006.69C848.194 1004.29 848.731 1002.22 849.804 1000.47C851.27 998.035 853.809 995.746 857.422 993.6C861.07 991.454 867.114 988.843 875.554 985.767V983.836C875.554 978.936 874.768 975.574 873.194 973.75C871.656 971.926 869.403 971.014 866.434 971.014C864.181 971.014 862.393 971.622 861.07 972.838C859.71 974.054 859.031 975.449 859.031 977.023L859.138 980.134C859.138 981.78 858.709 983.049 857.851 983.943C857.028 984.837 855.937 985.285 854.578 985.285C853.255 985.285 852.164 984.82 851.306 983.89C850.483 982.96 850.072 981.69 850.072 980.081C850.072 977.005 851.645 974.179 854.793 971.604C857.94 969.029 862.357 967.742 868.044 967.742C872.407 967.742 875.984 968.475 878.773 969.941C880.884 971.05 882.439 972.785 883.441 975.145C884.085 976.683 884.406 979.83 884.406 984.587V1001.27C884.406 1005.96 884.496 1008.84 884.675 1009.91C884.853 1010.95 885.14 1011.64 885.533 1012C885.962 1012.36 886.445 1012.54 886.981 1012.54C887.554 1012.54 888.054 1012.41 888.484 1012.16C889.235 1011.7 890.683 1010.39 892.829 1008.25V1011.25C888.823 1016.61 884.996 1019.3 881.348 1019.3C879.596 1019.3 878.201 1018.69 877.164 1017.47C876.127 1016.26 875.59 1014.18 875.554 1011.25V1011.25ZM875.554 1007.76V989.04C870.154 991.186 866.667 992.706 865.093 993.6C862.268 995.174 860.247 996.819 859.031 998.536C857.815 1000.25 857.207 1002.13 857.207 1004.17C857.207 1006.74 857.976 1008.89 859.514 1010.61C861.052 1012.29 862.822 1013.13 864.825 1013.13C867.543 1013.13 871.12 1011.34 875.554 1007.76V1007.76Z" fill="#43347F"/>
<path d="M910.747 978.149C916.506 971.211 921.996 967.742 927.217 967.742C929.9 967.742 932.207 968.421 934.138 969.78C936.069 971.104 937.607 973.303 938.752 976.379C939.538 978.525 939.932 981.815 939.932 986.25V1007.23C939.932 1010.34 940.182 1012.45 940.683 1013.56C941.076 1014.45 941.702 1015.15 942.561 1015.65C943.455 1016.15 945.082 1016.4 947.443 1016.4V1018.33H923.14V1016.4H924.159C926.448 1016.4 928.04 1016.06 928.934 1015.38C929.864 1014.67 930.508 1013.63 930.865 1012.27C931.008 1011.73 931.08 1010.05 931.08 1007.23V987.109C931.08 982.638 930.49 979.401 929.31 977.398C928.165 975.36 926.216 974.34 923.462 974.34C919.206 974.34 914.968 976.665 910.747 981.315V1007.23C910.747 1010.55 910.944 1012.61 911.338 1013.4C911.838 1014.43 912.518 1015.2 913.376 1015.7C914.27 1016.17 916.059 1016.4 918.741 1016.4V1018.33H894.439V1016.4H895.511C898.015 1016.4 899.696 1015.77 900.554 1014.52C901.449 1013.24 901.896 1010.8 901.896 1007.23V988.986C901.896 983.085 901.753 979.491 901.466 978.203C901.216 976.915 900.805 976.039 900.233 975.574C899.696 975.109 898.963 974.877 898.033 974.877C897.032 974.877 895.833 975.145 894.439 975.682L893.634 973.75L908.441 967.742H910.747V978.149V978.149Z" fill="#43347F"/>
<path d="M986.069 1012.81C983.673 1015.31 981.33 1017.12 979.041 1018.22C976.752 1019.3 974.284 1019.83 971.638 1019.83C966.273 1019.83 961.588 1017.6 957.582 1013.13C953.576 1008.62 951.573 1002.85 951.573 995.8C951.573 988.754 953.791 982.316 958.226 976.486C962.661 970.621 968.365 967.688 975.339 967.688C979.667 967.688 983.244 969.065 986.069 971.819V962.753C986.069 957.137 985.926 953.686 985.64 952.398C985.389 951.111 984.978 950.235 984.406 949.77C983.834 949.305 983.118 949.072 982.26 949.072C981.33 949.072 980.096 949.358 978.558 949.931L977.861 948.053L992.507 942.044H994.921V998.858C994.921 1004.62 995.046 1008.14 995.296 1009.43C995.583 1010.68 996.012 1011.55 996.584 1012.05C997.192 1012.56 997.889 1012.81 998.676 1012.81C999.642 1012.81 1000.93 1012.5 1002.54 1011.89L1003.13 1013.77L988.537 1019.83H986.069V1012.81V1012.81ZM986.069 1009.05V983.729C985.854 981.297 985.211 979.079 984.138 977.076C983.065 975.074 981.634 973.571 979.846 972.57C978.093 971.533 976.377 971.014 974.696 971.014C971.548 971.014 968.741 972.427 966.273 975.252C963.018 978.972 961.391 984.408 961.391 991.561C961.391 998.786 962.965 1004.33 966.112 1008.19C969.259 1012.02 972.764 1013.93 976.627 1013.93C979.882 1013.93 983.029 1012.31 986.069 1009.05V1009.05Z" fill="#43347F"/>
<path d="M1032.21 1018.33V1016.35H1034.94C1038.02 1016.35 1040.2 1015.36 1041.49 1013.4C1042.27 1012.22 1042.67 1009.57 1042.67 1005.46V958.461C1042.67 953.918 1042.17 951.075 1041.17 949.931C1039.77 948.357 1037.7 947.57 1034.94 947.57H1032.21V945.585H1061.82C1072.69 945.585 1080.95 946.819 1086.6 949.287C1092.29 951.755 1096.85 955.868 1100.29 961.626C1103.75 967.384 1105.49 974.036 1105.49 981.583C1105.49 991.704 1102.41 1000.16 1096.26 1006.96C1089.36 1014.54 1078.84 1018.33 1064.72 1018.33H1032.21V1018.33ZM1052.97 1013.07C1057.51 1014.08 1061.32 1014.58 1064.39 1014.58C1072.69 1014.58 1079.58 1011.66 1085.05 1005.83C1090.52 1000 1093.26 992.098 1093.26 982.119C1093.26 972.069 1090.52 964.147 1085.05 958.353C1079.58 952.559 1072.55 949.662 1063.97 949.662C1060.75 949.662 1057.08 950.181 1052.97 951.218V1013.07V1013.07Z" fill="#43347F"/>
<path d="M1121.42 987.699C1121.39 994.995 1123.16 1000.72 1126.73 1004.87C1130.31 1009.01 1134.51 1011.09 1139.34 1011.09C1142.56 1011.09 1145.35 1010.21 1147.71 1008.46C1150.11 1006.67 1152.11 1003.63 1153.72 999.34L1155.38 1000.41C1154.63 1005.31 1152.45 1009.78 1148.84 1013.83C1145.22 1017.83 1140.7 1019.83 1135.26 1019.83C1129.36 1019.83 1124.3 1017.54 1120.08 1012.97C1115.9 1008.35 1113.8 1002.17 1113.8 994.405C1113.8 986 1115.95 979.455 1120.24 974.77C1124.57 970.048 1129.99 967.688 1136.5 967.688C1142.01 967.688 1146.53 969.512 1150.07 973.16C1153.61 976.772 1155.38 981.619 1155.38 987.699H1121.42V987.699ZM1121.42 984.587H1144.17C1143.99 981.44 1143.61 979.222 1143.04 977.935C1142.15 975.932 1140.81 974.358 1139.02 973.214C1137.27 972.069 1135.42 971.497 1133.49 971.497C1130.52 971.497 1127.86 972.659 1125.5 974.984C1123.17 977.273 1121.82 980.474 1121.42 984.587V984.587Z" fill="#43347F"/>
<path d="M1159.35 969.19H1182.47V971.175H1180.97C1179.58 971.175 1178.5 971.515 1177.75 972.194C1177.04 972.874 1176.68 973.786 1176.68 974.931C1176.68 976.182 1177.06 977.667 1177.81 979.383L1189.23 1006.53L1200.71 978.364C1201.54 976.361 1201.95 974.841 1201.95 973.804C1201.95 973.303 1201.8 972.892 1201.52 972.57C1201.13 972.033 1200.62 971.676 1200.02 971.497C1199.41 971.282 1198.17 971.175 1196.31 971.175V969.19H1212.36V971.175C1210.5 971.318 1209.21 971.694 1208.49 972.302C1207.24 973.375 1206.11 975.163 1205.11 977.667L1187.68 1019.83H1185.48L1167.94 978.364C1167.15 976.433 1166.4 975.056 1165.68 974.233C1164.97 973.375 1164.05 972.659 1162.95 972.087C1162.34 971.765 1161.14 971.461 1159.35 971.175V969.19V969.19Z" fill="#43347F"/>
<path d="M1225.07 987.699C1225.03 994.995 1226.8 1000.72 1230.38 1004.87C1233.96 1009.01 1238.16 1011.09 1242.99 1011.09C1246.21 1011.09 1249 1010.21 1251.36 1008.46C1253.75 1006.67 1255.76 1003.63 1257.37 999.34L1259.03 1000.41C1258.28 1005.31 1256.1 1009.78 1252.48 1013.83C1248.87 1017.83 1244.35 1019.83 1238.91 1019.83C1233.01 1019.83 1227.95 1017.54 1223.73 1012.97C1219.54 1008.35 1217.45 1002.17 1217.45 994.405C1217.45 986 1219.6 979.455 1223.89 974.77C1228.22 970.048 1233.64 967.688 1240.14 967.688C1245.65 967.688 1250.18 969.512 1253.72 973.16C1257.26 976.772 1259.03 981.619 1259.03 987.699H1225.07V987.699ZM1225.07 984.587H1247.82C1247.64 981.44 1247.26 979.222 1246.69 977.935C1245.8 975.932 1244.45 974.358 1242.67 973.214C1240.91 972.069 1239.07 971.497 1237.14 971.497C1234.17 971.497 1231.51 972.659 1229.15 974.984C1226.82 977.273 1225.46 980.474 1225.07 984.587V984.587Z" fill="#43347F"/>
<path d="M1282.42 942.044V1007.23C1282.42 1010.3 1282.63 1012.34 1283.06 1013.34C1283.53 1014.34 1284.23 1015.11 1285.16 1015.65C1286.09 1016.15 1287.82 1016.4 1290.36 1016.4V1018.33H1266.27V1016.4C1268.52 1016.4 1270.06 1016.17 1270.89 1015.7C1271.71 1015.24 1272.35 1014.47 1272.82 1013.4C1273.28 1012.32 1273.51 1010.27 1273.51 1007.23V962.592C1273.51 957.048 1273.39 953.65 1273.14 952.398C1272.89 951.111 1272.48 950.235 1271.9 949.77C1271.37 949.305 1270.67 949.072 1269.81 949.072C1268.88 949.072 1267.7 949.358 1266.27 949.931L1265.36 948.053L1280.01 942.044H1282.42V942.044Z" fill="#43347F"/>
<path d="M1320.03 967.742C1327.47 967.742 1333.44 970.567 1337.94 976.218C1341.77 981.046 1343.69 986.59 1343.69 992.849C1343.69 997.248 1342.63 1001.7 1340.52 1006.21C1338.41 1010.71 1335.5 1014.11 1331.78 1016.4C1328.09 1018.69 1323.98 1019.83 1319.44 1019.83C1312.03 1019.83 1306.15 1016.88 1301.79 1010.98C1298.1 1006.01 1296.26 1000.43 1296.26 994.244C1296.26 989.737 1297.37 985.267 1299.59 980.832C1301.84 976.361 1304.79 973.071 1308.44 970.961C1312.09 968.815 1315.95 967.742 1320.03 967.742V967.742ZM1318.36 971.229C1316.47 971.229 1314.55 971.801 1312.62 972.946C1310.73 974.054 1309.19 976.021 1308.01 978.847C1306.83 981.672 1306.24 985.302 1306.24 989.737C1306.24 996.89 1307.65 1003.06 1310.48 1008.25C1313.34 1013.43 1317.09 1016.02 1321.74 1016.02C1325.21 1016.02 1328.07 1014.59 1330.33 1011.73C1332.58 1008.87 1333.71 1003.95 1333.71 996.98C1333.71 988.253 1331.83 981.386 1328.07 976.379C1325.53 972.946 1322.3 971.229 1318.36 971.229Z" fill="#43347F"/>
<path d="M1347.39 974.072L1362.52 967.956H1364.55V979.437C1367.09 975.109 1369.63 972.087 1372.17 970.37C1374.75 968.618 1377.45 967.742 1380.27 967.742C1385.21 967.742 1389.32 969.673 1392.61 973.536C1396.65 978.257 1398.67 984.408 1398.67 991.991C1398.67 1000.47 1396.24 1007.48 1391.38 1013.02C1387.37 1017.56 1382.33 1019.83 1376.25 1019.83C1373.6 1019.83 1371.31 1019.46 1369.38 1018.71C1367.95 1018.17 1366.34 1017.1 1364.55 1015.49V1030.46C1364.55 1033.82 1364.75 1035.95 1365.14 1036.84C1365.57 1037.77 1366.29 1038.5 1367.29 1039.04C1368.33 1039.58 1370.19 1039.84 1372.87 1039.84V1041.83H1347.12V1039.84H1348.46C1350.43 1039.88 1352.11 1039.5 1353.5 1038.72C1354.18 1038.32 1354.7 1037.68 1355.06 1036.79C1355.45 1035.93 1355.65 1033.71 1355.65 1030.13V983.675C1355.65 980.492 1355.51 978.471 1355.22 977.613C1354.93 976.755 1354.47 976.111 1353.82 975.682C1353.22 975.252 1352.38 975.038 1351.3 975.038C1350.45 975.038 1349.35 975.288 1348.03 975.789L1347.39 974.072V974.072ZM1364.55 982.602V1000.95C1364.55 1004.92 1364.72 1007.53 1365.04 1008.78C1365.54 1010.86 1366.75 1012.68 1368.69 1014.25C1370.65 1015.83 1373.12 1016.61 1376.09 1016.61C1379.67 1016.61 1382.56 1015.22 1384.78 1012.43C1387.68 1008.78 1389.13 1003.65 1389.13 997.033C1389.13 989.523 1387.48 983.747 1384.19 979.705C1381.9 976.915 1379.18 975.521 1376.04 975.521C1374.32 975.521 1372.62 975.95 1370.94 976.808C1369.65 977.452 1367.52 979.383 1364.55 982.602V982.602Z" fill="#43347F"/>
<path d="M1420.46 978.203C1424.03 974.626 1426.14 972.57 1426.79 972.034C1428.4 970.674 1430.13 969.619 1431.99 968.868C1433.85 968.117 1435.69 967.742 1437.52 967.742C1440.59 967.742 1443.24 968.636 1445.46 970.424C1447.67 972.212 1449.16 974.805 1449.91 978.203C1453.59 973.911 1456.7 971.104 1459.24 969.78C1461.78 968.421 1464.39 967.742 1467.08 967.742C1469.69 967.742 1471.99 968.421 1474 969.78C1476.03 971.104 1477.64 973.285 1478.82 976.325C1479.61 978.4 1480 981.654 1480 986.089V1007.23C1480 1010.3 1480.24 1012.41 1480.7 1013.56C1481.06 1014.34 1481.72 1015.02 1482.69 1015.6C1483.65 1016.13 1485.23 1016.4 1487.41 1016.4V1018.33H1463.16V1016.4H1464.18C1466.29 1016.4 1467.93 1015.99 1469.11 1015.17C1469.94 1014.59 1470.53 1013.68 1470.88 1012.43C1471.03 1011.82 1471.1 1010.09 1471.1 1007.23V986.089C1471.1 982.084 1470.62 979.258 1469.65 977.613C1468.26 975.324 1466.02 974.179 1462.94 974.179C1461.05 974.179 1459.14 974.662 1457.2 975.628C1455.31 976.558 1453 978.31 1450.28 980.885L1450.18 981.476L1450.28 983.782V1007.23C1450.28 1010.59 1450.46 1012.68 1450.82 1013.5C1451.21 1014.33 1451.93 1015.02 1452.97 1015.6C1454 1016.13 1455.77 1016.4 1458.28 1016.4V1018.33H1433.44V1016.4C1436.16 1016.4 1438.02 1016.08 1439.02 1015.43C1440.05 1014.79 1440.77 1013.83 1441.16 1012.54C1441.34 1011.93 1441.43 1010.16 1441.43 1007.23V986.089C1441.43 982.084 1440.84 979.204 1439.66 977.452C1438.09 975.163 1435.89 974.018 1433.06 974.018C1431.13 974.018 1429.22 974.537 1427.32 975.574C1424.35 977.148 1422.06 978.918 1420.46 980.885V1007.23C1420.46 1010.45 1420.67 1012.54 1421.1 1013.5C1421.56 1014.47 1422.23 1015.2 1423.08 1015.7C1423.98 1016.17 1425.77 1016.4 1428.45 1016.4V1018.33H1404.15V1016.4C1406.4 1016.4 1407.97 1016.17 1408.87 1015.7C1409.76 1015.2 1410.44 1014.43 1410.91 1013.4C1411.37 1012.32 1411.6 1010.27 1411.6 1007.23V988.45C1411.6 983.049 1411.44 979.562 1411.12 977.988C1410.87 976.808 1410.48 976.003 1409.94 975.574C1409.4 975.109 1408.67 974.877 1407.74 974.877C1406.74 974.877 1405.54 975.145 1404.15 975.682L1403.34 973.75L1418.15 967.742H1420.46V978.203V978.203Z" fill="#43347F"/>
<path d="M1499.53 987.699C1499.5 994.995 1501.27 1000.72 1504.84 1004.87C1508.42 1009.01 1512.62 1011.09 1517.45 1011.09C1520.67 1011.09 1523.46 1010.21 1525.82 1008.46C1528.22 1006.67 1530.22 1003.63 1531.83 999.34L1533.49 1000.41C1532.74 1005.31 1530.56 1009.78 1526.95 1013.83C1523.33 1017.83 1518.81 1019.83 1513.37 1019.83C1507.47 1019.83 1502.41 1017.54 1498.19 1012.97C1494.01 1008.35 1491.91 1002.17 1491.91 994.405C1491.91 986 1494.06 979.455 1498.35 974.77C1502.68 970.048 1508.1 967.688 1514.61 967.688C1520.12 967.688 1524.64 969.512 1528.18 973.16C1531.72 976.772 1533.49 981.619 1533.49 987.699H1499.53V987.699ZM1499.53 984.587H1522.28C1522.1 981.44 1521.72 979.222 1521.15 977.935C1520.26 975.932 1518.92 974.358 1517.13 973.214C1515.38 972.069 1513.53 971.497 1511.6 971.497C1508.63 971.497 1505.97 972.659 1503.61 974.984C1501.28 977.273 1499.93 980.474 1499.53 984.587Z" fill="#43347F"/>
<path d="M1554.31 978.149C1560.06 971.211 1565.55 967.742 1570.78 967.742C1573.46 967.742 1575.77 968.421 1577.7 969.78C1579.63 971.104 1581.17 973.303 1582.31 976.379C1583.1 978.525 1583.49 981.815 1583.49 986.25V1007.23C1583.49 1010.34 1583.74 1012.45 1584.24 1013.56C1584.64 1014.45 1585.26 1015.15 1586.12 1015.65C1587.01 1016.15 1588.64 1016.4 1591 1016.4V1018.33H1566.7V1016.4H1567.72C1570.01 1016.4 1571.6 1016.06 1572.49 1015.38C1573.42 1014.67 1574.07 1013.63 1574.42 1012.27C1574.57 1011.73 1574.64 1010.05 1574.64 1007.23V987.109C1574.64 982.638 1574.05 979.401 1572.87 977.398C1571.72 975.36 1569.78 974.34 1567.02 974.34C1562.77 974.34 1558.53 976.665 1554.31 981.315V1007.23C1554.31 1010.55 1554.5 1012.61 1554.9 1013.4C1555.4 1014.43 1556.08 1015.2 1556.94 1015.7C1557.83 1016.17 1559.62 1016.4 1562.3 1016.4V1018.33H1538V1016.4H1539.07C1541.57 1016.4 1543.26 1015.77 1544.11 1014.52C1545.01 1013.24 1545.45 1010.8 1545.45 1007.23V988.986C1545.45 983.085 1545.31 979.491 1545.03 978.203C1544.78 976.915 1544.36 976.039 1543.79 975.574C1543.26 975.109 1542.52 974.877 1541.59 974.877C1540.59 974.877 1539.39 975.145 1538 975.682L1537.19 973.75L1552 967.742H1554.31V978.149V978.149Z" fill="#43347F"/>
<path d="M1609.19 953.042V969.19H1620.67V972.946H1609.19V1004.81C1609.19 1008 1609.64 1010.14 1610.53 1011.25C1611.46 1012.36 1612.64 1012.91 1614.07 1012.91C1615.25 1012.91 1616.4 1012.56 1617.5 1011.84C1618.61 1011.09 1619.47 1010 1620.08 1008.57H1622.17C1620.92 1012.07 1619.15 1014.72 1616.86 1016.51C1614.57 1018.26 1612.21 1019.14 1609.78 1019.14C1608.13 1019.14 1606.52 1018.69 1604.95 1017.8C1603.38 1016.87 1602.21 1015.56 1601.46 1013.88C1600.71 1012.16 1600.34 1009.53 1600.34 1005.99V972.946H1592.56V971.175C1594.52 970.388 1596.53 969.065 1598.57 967.205C1600.64 965.31 1602.48 963.074 1604.09 960.499C1604.91 959.14 1606.06 956.655 1607.53 953.042H1609.19V953.042Z" fill="#43347F"/>
</g>
<defs>
<clipPath id="clip0_595_1859">
<rect width="1623" height="1042" fill="white"/>
</clipPath>
</defs>
</svg>
